<?xml version="1.0" encoding="utf-8"?>
<!-- Generator: Adobe Illustrator 16.0.0, SVG Export Plug-In . SVG Version: 6.00 Build 0)  -->
<!DOCTYPE svg PUBLIC "-//W3C//DTD SVG 1.1//EN" "http://www.w3.org/Graphics/SVG/1.1/DTD/svg11.dtd">
<svg version="1.1" id="Layer_1" xmlns="http://www.w3.org/2000/svg" xmlns:xlink="http://www.w3.org/1999/xlink" x="0px" y="0px"
	 width="232px" height="87px" viewBox="0 0 232 87" enable-background="new 0 0 232 87" xml:space="preserve">
<g>
	<polygon fill="#FFFFFF" points="147.292,58.669 147.292,58.67 147.294,58.669 	"/>
	<path fill="#FFFFFF" d="M109.148,72.516c-0.165,0.033-0.33,0.066-0.497,0.1v0.1h-0.199v0.1h-0.199
		c-0.665,0.424-1.101,1.182-1.096,2.291c0.18,0.095,0.157,0.138,0.398,0.199v-0.099c0.167-0.034,0.334-0.067,0.498-0.101
		c0.819-0.508,1.644-1.115,1.694-2.392c-0.22-0.118-0.298-0.229-0.6-0.298L109.148,72.516L109.148,72.516z"/>
	<path fill="#FFFFFF" d="M57.96,63.75c-0.199,0.23-0.398,0.464-0.597,0.698c-0.622,0.622-1.28,1.042-1.293,2.29
		c0.307,0.164,0.176,0.188,0.697,0.199c0.104-0.127,0.172-0.104,0.296-0.199v-0.1h0.199c0.133-0.166,0.266-0.332,0.399-0.498
		c0.065-0.033,0.131-0.065,0.198-0.1c0.328-0.486,0.578-1.598,0.599-2.391c-0.068-0.031-0.134-0.065-0.199-0.1
		C58.153,63.677,58.068,63.648,57.96,63.75z"/>
	<path fill="#FFFFFF" d="M221.484,59.068c0.658-0.131,1.33-0.869,1.396-1.594c-0.476-0.274-0.375-0.31-1.196-0.298
		c-0.125,0.156-0.265,0.241-0.496,0.298c-0.033,0.101-0.067,0.199-0.101,0.299h-0.101v0.199c-0.066,0.033-0.131,0.067-0.197,0.1
		c-0.133,0.398-0.268,0.798-0.4,1.197c0.024,0,0.051,0,0.077,0C220.82,59.27,221.331,59.215,221.484,59.068z"/>
	<path fill="#FFFFFF" d="M91.322,68.529c-0.107-0.055-0.208-0.266-0.398-0.199v0.102c-0.635,0.336-0.948,1.396,0.257,1.396
		c0.014,0,0.028,0,0.043,0c0.146-0.263,0.436-0.55,0.697-0.698V68.83c-0.199-0.033-0.399-0.066-0.598-0.1L91.322,68.529
		L91.322,68.529z"/>
	<path fill="#FFFFFF" d="M162.529,73.313c-0.268,0.232-0.532,0.465-0.797,0.696v0.198c-0.067,0.034-0.133,0.068-0.2,0.102
		c-0.033,0.099-0.064,0.198-0.099,0.299h-0.1c-0.035,0.134-0.066,0.267-0.1,0.397c-0.066,0.034-0.133,0.065-0.199,0.101v0.299
		h-0.102c-0.033,0.134-0.065,0.267-0.1,0.396h-0.098V76.1c-0.211,0.483-0.465,1.021-0.5,1.695c1.707-0.311,2.935-1.505,3.787-2.689
		c0.131-0.101,0.265-0.201,0.397-0.301v-0.197c0.065-0.034,0.134-0.065,0.2-0.101v-0.198c0.1-0.067,0.197-0.133,0.297-0.201V73.91
		c0.066-0.032,0.132-0.064,0.199-0.098v-1.098c-0.112-0.113-0.04,0-0.098-0.199c-0.406-0.236-0.375-0.307-1.096-0.299
		c-0.259,0.313-0.758,0.455-1.096,0.698C162.729,73.045,162.629,73.18,162.529,73.313z"/>
	<path fill="#FFFFFF" d="M39.537,38.649c-0.167-0.136-0.333-0.268-0.498-0.399c-0.201-0.33,0.165-0.34-0.399-0.498
		c-0.034,0.1-0.068,0.2-0.101,0.298h-0.098c-0.034,0.102-0.067,0.2-0.1,0.3c-0.067,0.032-0.134,0.066-0.199,0.1v0.2
		c-0.192,0.332-0.28,0.332-0.3,0.896c0.066,0.032,0.132,0.066,0.2,0.1c0.19,0.192,0.641,0.238,1.122,0.238
		c0.415,0,0.854-0.035,1.17-0.039v-0.299C39.977,39.331,39.819,38.933,39.537,38.649z"/>
	<path fill="#FFFFFF" d="M69.215,34.464h-0.101v-0.199h-0.1c-0.034-0.1-0.067-0.2-0.1-0.299h-0.297
		c-0.054,0.5-0.383,0.767-0.498,1.196c0.318,0.167,0.481,0.201,0.955,0.201c0.044,0,0.091,0,0.141,0
		c0.033-0.2,0.066-0.399,0.1-0.599h-0.1V34.464z"/>
	<path fill="#FFFFFF" d="M29.777,25.6v-0.101h-0.4v-0.1H29.18V25.3h-0.4v-0.1h-0.597v-0.099h-0.596V25h-2.991v0.101h-0.398V25.2
		c-0.266,0.034-0.53,0.066-0.796,0.1c-0.034,0.066-0.068,0.134-0.101,0.199h-0.296V25.6h-0.2v0.099h-0.2
		c-0.033,0.066-0.067,0.134-0.101,0.2h-0.197c-0.067,0.099-0.132,0.198-0.199,0.298H21.91c-0.032,0.067-0.065,0.133-0.098,0.2
		c-0.1,0.033-0.201,0.066-0.301,0.1v0.1c-0.132,0.032-0.264,0.065-0.398,0.098c-0.032,0.067-0.065,0.134-0.098,0.2
		c-0.219,0.136-0.865,0.226-0.998,0.398c-0.098,0.299-0.2,0.599-0.298,0.897c-0.323,0.729-0.717,1.495-0.798,2.49h0.399
		c0.199,0.564,0.399,1.129,0.599,1.694c0.028,0.049,0.136,0.082,0.198,0.199c0.507-0.142,0.245-0.302,0.496-0.497h0.2
		c0.034-0.067,0.067-0.133,0.101-0.199c0.26-0.13,0.56,0.018,0.798-0.2c0.343-0.221,0.283-0.563,0.497-0.896
		c0.064-0.033,0.132-0.066,0.197-0.1V30.48h0.099v-0.2h0.101c0.034-0.098,0.068-0.199,0.102-0.298h0.198
		c0.106-0.385,0.296-0.313,0.396-0.698c0.313-0.081,0.457-0.275,0.697-0.397h0.2v-0.1h0.499v-0.099
		c0.869-0.254,2.261,0.276,2.89,0.398c0.032,0.166,0.065,0.333,0.1,0.497h0.099v0.399h-0.099c-0.068,0.298-0.134,0.598-0.201,0.896
		h-0.199c-0.033,0.1-0.067,0.2-0.098,0.3c-0.167,0.132-0.333,0.265-0.5,0.398c-0.032,0.065-0.067,0.132-0.099,0.199h-0.2
		c-0.066,0.1-0.133,0.198-0.199,0.298c-0.28,0.199-0.415,0.178-0.596,0.497h-0.201v0.2c-0.258,0.072-0.323,0.155-0.499,0.299v0.099
		h-0.198c-0.132,0.166-0.265,0.333-0.397,0.499h-0.2c-0.034,0.066-0.067,0.132-0.101,0.2h-0.198v0.099h-0.298v0.1h-0.201v0.1h-0.496
		c-0.959,0.295-1.836,0.151-2.688-0.2h-0.3c-0.032-0.066-0.065-0.132-0.098-0.199H19.52v-0.1h-0.3
		c-0.033-0.067-0.064-0.133-0.098-0.199h-0.2c-2.158-1.513-1.171-6.942-0.397-9.264c0.034-0.265,0.067-0.531,0.099-0.797h0.1v-0.298
		h0.1c0.034-0.232,0.067-0.466,0.1-0.698h0.1v-0.199h0.1v-0.398h0.098v-0.199h0.101c0.033-0.2,0.067-0.399,0.099-0.598h0.1
		c0.033-0.132,0.067-0.266,0.1-0.398h0.101V20.32h0.098v-0.199h0.102v-0.199c0.065-0.033,0.131-0.065,0.198-0.1v-0.198
		c0.066-0.034,0.132-0.067,0.199-0.101v-0.1h0.201c0.032-0.066,0.066-0.131,0.097-0.199h0.499v-0.1h0.3v-0.1h0.198v-0.099h0.201
		c0.196-0.265,0.397-0.532,0.594-0.797h0.301v-0.1c0.231,0.034,0.464,0.066,0.696,0.1v-0.1h0.398v-0.1H24.1V17.83h0.398v-0.101h0.3
		V17.63h0.198v-0.1c0.298-0.066,0.599-0.133,0.898-0.2v-0.099c0.197-0.067,0.397-0.133,0.598-0.2v-0.099h0.197v-0.1h0.299
		c0.033-0.067,0.067-0.133,0.101-0.2h0.198v-0.099h0.199v-0.1h0.201v-0.099h0.197c0.034-0.066,0.067-0.133,0.101-0.2h0.199
		c0.101-0.132,0.201-0.265,0.3-0.398h0.197c0.034-0.066,0.068-0.132,0.1-0.199c0.402-0.381,0.936-0.781,1.095-1.394h0.099
		c-0.032-0.132-0.066-0.266-0.099-0.399h-0.098v-0.198c-0.067-0.034-0.134-0.066-0.201-0.1c-0.031-0.333-0.065-0.665-0.098-0.997
		c-0.313-0.147-0.498-0.357-0.894-0.397v-0.2c-0.554-0.117-0.929-0.497-1.395-0.697h-0.3v-0.099h-0.398v-0.1h-0.4
		c-0.132-0.167-0.265-0.332-0.398-0.499h-0.098v-0.199c-0.068-0.033-0.134-0.066-0.201-0.099V9.961h-0.098v-0.2h-0.1V9.562h-0.099
		V9.363h-0.102v-0.2h-0.1V8.965h-0.098v-0.2h-0.101c-0.033-0.132-0.067-0.265-0.1-0.398c-0.064-0.033-0.132-0.067-0.198-0.1V8.068
		c-0.098-0.067-0.2-0.133-0.298-0.199V7.67c-0.133-0.1-0.265-0.2-0.399-0.299v-0.2c-0.132-0.099-0.266-0.199-0.399-0.299V6.674
		c-0.264-0.232-0.53-0.465-0.797-0.697v-0.2c-0.267-0.076-0.225-0.023-0.295-0.299h-0.202V5.379
		c-0.049-0.044-0.057-0.042-0.059-0.041c-0.003,0.001,0.001,0.004-0.039-0.059v-0.1c-0.065-0.033-0.132-0.066-0.198-0.099
		c-0.295-0.309-0.481-0.601-0.899-0.798V4.084C20.521,4,20.42,3.853,20.216,3.685v-0.1h-0.199c-0.033-0.066-0.067-0.132-0.098-0.199
		h-0.2c-0.101-0.133-0.201-0.266-0.3-0.399h-0.2c-0.033-0.066-0.064-0.132-0.098-0.198h-0.2c-0.033-0.066-0.066-0.134-0.1-0.2
		h-0.199c-0.031-0.067-0.065-0.134-0.099-0.199h-0.199c-0.033-0.067-0.067-0.133-0.1-0.2c-0.2-0.066-0.399-0.133-0.597-0.198v-0.1
		h-0.201V1.793c-0.197-0.067-0.398-0.133-0.598-0.2v-0.1H16.43c-0.032-0.066-0.065-0.132-0.1-0.199h-0.496
		c-0.304-0.104-0.301-0.196-0.797-0.199c-0.034-0.333-0.067-0.665-0.1-0.996c-0.25-0.049-0.428-0.099-0.766-0.1H14.14
		c-0.221,1.292-0.034,2.839,0.501,3.685c0.066,0.034,0.13,0.068,0.196,0.101c0.066,0.199,0.133,0.397,0.2,0.597
		c0.1,0.067,0.198,0.132,0.296,0.2V4.88h0.101v0.2h0.099c0.033,0.132,0.067,0.266,0.101,0.397h0.098
		c0.034,0.167,0.067,0.332,0.102,0.5c0.067,0.032,0.132,0.066,0.197,0.1v0.298h0.1v0.199h0.1v0.199h0.1v0.199h0.1v0.199h0.1v0.2
		h0.099V7.57h0.1c0.034,0.133,0.067,0.266,0.1,0.399h0.1c0.034,0.133,0.067,0.265,0.1,0.398h0.1
		c0.068,0.198,0.133,0.398,0.199,0.598h0.1c0.065,0.198,0.133,0.398,0.201,0.597h0.098v0.199h0.1c0.066,0.2,0.133,0.399,0.199,0.598
		h0.1c0.067,0.564,0.133,1.129,0.201,1.694c0.076,0.221,0.246,0.414,0.297,0.697c0.167,0.033,0.333,0.066,0.499,0.1
		c0.061,0.199-0.014,0.085,0.098,0.199v0.896c-0.011,0.024-0.554,0.38-0.597,0.398h-0.297c-0.677,0.26-1.684,0.373-2.389,0.598h-0.5
		c-2.044,0.648-5.116,0.684-7.17,0H7.768v-0.1H7.471v-0.1H7.17v-0.099H6.771v-0.1H6.572v-0.1H6.273v-0.099h-0.2v-0.099H5.777v-0.1
		c-0.135-0.034-0.267-0.068-0.4-0.101v-0.099H5.079c-0.034-0.066-0.066-0.133-0.1-0.2h-0.2v-0.099H4.581v-0.099h-0.2v-0.1H4.182
		v-0.1H3.983c-0.066-0.101-0.133-0.2-0.2-0.299H3.584c-0.066-0.1-0.134-0.199-0.198-0.299h-0.2c-0.1-0.132-0.199-0.265-0.299-0.398
		H2.688c-0.133-0.167-0.266-0.332-0.399-0.499c-0.1-0.032-0.199-0.066-0.296-0.1c-0.034-0.065-0.068-0.132-0.102-0.199H1.693
		c-0.034-0.066-0.066-0.133-0.1-0.199c-0.101-0.033-0.2-0.067-0.298-0.1v-0.1c-0.149-0.116-0.177-0.14-0.4-0.199v-0.199H0.697v0.398
		h-0.1v0.1c-0.2,0.033-0.4,0.067-0.598,0.1c0.034,0.199,0.066,0.397,0.1,0.597c0.064,0.033,0.132,0.067,0.199,0.1
		c0.1,0.299,0.2,0.597,0.299,0.896h0.1v0.298c0.064,0.034,0.132,0.068,0.198,0.101v0.199h0.101v0.198h0.1v0.2h0.1v0.2
		c0.065,0.033,0.134,0.066,0.198,0.1c0.034,0.133,0.066,0.266,0.1,0.398c0.066,0.034,0.134,0.067,0.2,0.099v0.2
		c0.1,0.066,0.198,0.132,0.3,0.199c0.034,0.132,0.064,0.266,0.098,0.398c0.067,0.033,0.132,0.067,0.199,0.1
		c0.155,0.17,0.199,0.366,0.399,0.498v0.2h0.199c0.123,0.442,0.382,0.355,0.499,0.796c0.344,0.098,0.655,0.468,0.896,0.698
		c0.034,0.066,0.066,0.133,0.1,0.199h0.2c0.066,0.1,0.132,0.2,0.198,0.299c0.1,0.033,0.199,0.066,0.299,0.099
		c0.033,0.067,0.067,0.134,0.099,0.2h0.199c0.034,0.066,0.066,0.133,0.1,0.199c0.133,0.033,0.267,0.067,0.398,0.101
		c0.034,0.066,0.068,0.133,0.1,0.199h0.198c0.034,0.066,0.066,0.134,0.1,0.199h0.2v0.1h0.199v0.1h0.199v0.101H7.07v0.099
		c0.2,0.066,0.401,0.134,0.598,0.199v0.099c0.865,0.1,1.725,0.2,2.588,0.299v0.1h0.2c0.034,0.066,0.067,0.134,0.1,0.199h0.198
		c0.034,0.066,0.066,0.132,0.1,0.199c0.159,0.043,0.252-0.055,0.355-0.153c0.107-0.104,0.226-0.209,0.442-0.146v0.1h0.199
		c0.034,0.066,0.067,0.132,0.098,0.199h0.2v0.1c0.288,0.061,0.223-0.172,0.299-0.2c0.383-0.137,0.628,0.148,0.896,0.2
		c0.062-0.199-0.013-0.085,0.1-0.2c0.128-0.113,1.58-0.183,1.891-0.099v0.099h0.602c0.993-0.331,1.991-0.663,2.985-0.995
		c0.034,0.167,0.068,0.332,0.1,0.498h-0.1v0.299h-0.1v0.299h-0.1v0.199h-0.1c-0.031,0.166-0.065,0.332-0.099,0.498h-0.098
		c-0.068,0.199-0.134,0.399-0.201,0.598h-0.101v0.199h-0.1v0.199h-0.099v0.199h-0.1v0.299c-0.066,0.034-0.132,0.067-0.198,0.101
		v0.398h-0.102v0.299h-0.1v0.298h-0.1v0.299H17.23c-0.034,0.299-0.068,0.597-0.102,0.896h-0.1v0.3h-0.1v0.397h-0.1v0.399h-0.1
		c-0.034,0.397-0.066,0.797-0.1,1.195c-0.35,1.213-0.329,3.882,0.1,4.98h0.1v0.2h0.1c0.1,0.299,0.199,0.597,0.301,0.896h0.097
		c0.143,0.178,0.227,0.237,0.301,0.498h0.198c0.034,0.1,0.066,0.199,0.1,0.298h0.198c0.101,0.133,0.201,0.266,0.301,0.397h0.197
		c0.033,0.067,0.065,0.134,0.1,0.2h0.199v0.1h0.2v0.1h0.199v0.101h0.199v0.098c0.133,0.034,0.267,0.067,0.4,0.101v0.1
		c0.198,0.034,0.397,0.066,0.598,0.099v0.101h0.596c0.636,0.188,0.934,0.196,1.595,0h0.495V35.76h0.201v-0.1h0.298v-0.1
		c0.202-0.066,0.399-0.134,0.6-0.198v-0.101h0.198v-0.1h0.3c0.065-0.1,0.132-0.199,0.198-0.3h0.201v-0.098
		c0.1-0.034,0.198-0.066,0.299-0.101c0.031-0.066,0.065-0.132,0.1-0.199h0.197c0.067-0.099,0.133-0.199,0.2-0.298
		c0.416-0.292,0.841-0.448,1.097-0.897h0.198V33.07c0.583-0.153,1.253-1.222,1.595-1.693c0.132-0.101,0.263-0.199,0.398-0.3v-0.2
		c0.096-0.065,0.197-0.132,0.295-0.199V30.48c0.067-0.034,0.134-0.067,0.201-0.1v-0.199c0.064-0.034,0.131-0.066,0.197-0.101
		c0.034-0.133,0.067-0.266,0.102-0.399c0.066-0.033,0.133-0.066,0.199-0.1v-0.199h0.098v-0.199h0.102v-0.298h0.098v-0.199h0.1
		c0.032-0.199,0.066-0.399,0.1-0.598h0.1c-0.067-0.731-0.134-1.462-0.2-2.191C30.373,25.798,30.076,25.699,29.777,25.6z"/>
	<path fill="#FFFFFF" d="M49.295,14.741v1.395h0.102v0.896h0.099c0.034,0.433,0.067,0.864,0.101,1.296h0.098v0.598h0.099v0.497
		h0.101v0.399h0.099v0.498h0.1v0.397h0.1v0.3h0.1v0.298h0.1c0.031,0.234,0.065,0.466,0.099,0.698h0.1
		c0.032,0.134,0.065,0.267,0.1,0.399h0.1c0.1,0.298,0.2,0.597,0.298,0.896h0.1c0.032,0.1,0.066,0.2,0.1,0.3
		c0.065,0.033,0.132,0.066,0.2,0.099v0.2c0.23,0.199,0.463,0.398,0.697,0.598c0.364,0.365,0.948,1.053,1.494,1.195
		c0.031-0.2,0.065-0.398,0.099-0.597h0.299c0.155,0.67,0.541,1.32,0.598,2.092c0.155,0.059,0.292,0.033,0.497,0.098v0.1h1.396v0.1
		c0.516,0.146,2.013,0.005,2.388-0.1h1.197v-0.1h0.498v-0.098h0.597v-0.101h0.299v-0.1c0.199-0.033,0.398-0.066,0.598-0.1v-0.1
		h0.197v-0.1h0.3v-0.098c0.166-0.134,0.331-0.267,0.497-0.399c-0.017-0.523-0.234-0.643-0.596-0.797
		c0.102-0.738,0.441-0.415,0.896-0.697c0.031-0.065,0.065-0.133,0.098-0.199h0.199c0.032-0.066,0.065-0.133,0.1-0.2h0.099
		c-0.034-0.132-0.067-0.265-0.099-0.398c0.406-0.167,0.923-0.314,1.294-0.499V22.71c0.216-0.046,0.627-0.247,0.697-0.398
		c0.143-0.304-0.255-0.363,0-0.598h0.2v-0.099c0.134-0.1,0.264-0.2,0.397-0.3v-0.198c0.1-0.066,0.2-0.132,0.3-0.199v-0.2
		c0.1-0.064,0.198-0.131,0.298-0.198v-0.2h0.1v-0.199h0.1v-0.299h0.1c0.032-0.133,0.065-0.266,0.1-0.399h0.1
		c0.031-0.165,0.065-0.332,0.098-0.497h0.1v-0.399h0.101v-0.298h0.1V17.93h0.1v-0.298h0.1c0.032-0.2,0.066-0.398,0.1-0.599h0.098
		v-0.198h0.101c0.032-0.232,0.066-0.466,0.1-0.698h0.1v-0.199h0.099c0.034-0.232,0.066-0.465,0.101-0.697h0.098v-0.499h0.1v-0.497
		h0.1v-0.598h0.101V12.85h0.1v-1.195h-0.1v-0.797c-0.2-0.598-0.398-1.195-0.598-1.792h-0.1c-0.034-0.1-0.068-0.2-0.1-0.299
		c-0.068-0.033-0.134-0.066-0.199-0.099v-0.2c-0.133-0.099-0.267-0.198-0.399-0.298c-0.034-0.099-0.068-0.199-0.101-0.298h-0.198
		V7.67c-0.346-0.097-0.657-0.47-0.896-0.698c-0.034-0.066-0.068-0.133-0.1-0.199h-0.2c-0.134-0.167-0.266-0.331-0.398-0.498h-0.2
		c-0.034-0.066-0.066-0.133-0.1-0.198c-0.166-0.034-0.333-0.068-0.498-0.1V5.876h-0.198v-0.1c-0.358-0.138-0.561-0.03-0.896,0
		c-0.034,0.398-0.067,0.797-0.1,1.195h0.1v0.897h0.099v0.797c0.137,0.479,0.199,0.919,0.199,1.593v1.793H64.24v0.299h-0.1v0.298
		h-0.099v0.3h-0.1v0.298h-0.099v0.3h-0.1v0.398h-0.101v0.299h-0.099v0.298h-0.098v0.299h-0.101v0.199H63.24v0.2
		c-0.2,0.166-0.399,0.332-0.598,0.498v0.199h-0.099v0.199c-0.036,0.055-0.136,0.08-0.201,0.2c-0.167,0.032-0.331,0.065-0.496,0.099
		v0.1c-0.596,0.184-1.934-0.093-2.291-0.199h-0.797v-0.1h-0.399v-0.1H57.86c-1.231-0.393-2.577-0.813-4.181-0.797
		c-0.066-0.314-0.225-0.565-0.299-0.797v-2.49h-0.1c-0.034-0.398-0.068-0.797-0.1-1.196c-0.228-0.772-0.36-1.752-0.598-2.49
		c-0.034-0.299-0.068-0.599-0.1-0.897h-0.1V7.171h-0.098V6.873h-0.1c-0.034-0.199-0.068-0.398-0.1-0.598h-0.1
		c-0.034-0.133-0.067-0.266-0.1-0.398h-0.1v-0.2c-0.068-0.033-0.133-0.066-0.198-0.1c-0.034-0.132-0.067-0.266-0.1-0.398
		c-0.173-0.251-0.39-0.167-0.498-0.597c-0.218-0.047-0.282-0.063-0.399-0.2C50.045,4.414,50.1,4.53,49.893,4.88h-0.101v0.2
		c-0.067,0.033-0.132,0.066-0.197,0.099c-0.36,0.735-0.2,2.88-0.2,3.984v1.395h-0.102c-0.033,1.294-0.067,2.589-0.099,3.884h0.099
		c-0.033,0.1-0.067,0.2-0.099,0.299H49.295z M53.778,16.236v-0.1h0.1c0.066,0.1,0.133,0.2,0.2,0.299c0.1,0.034,0.2,0.067,0.299,0.1
		c0.031,0.067,0.065,0.133,0.099,0.199h0.2c0.032,0.066,0.065,0.132,0.099,0.2c0.1,0.033,0.198,0.067,0.298,0.099
		c0.032,0.067,0.065,0.133,0.099,0.2h0.201c0.065,0.099,0.132,0.199,0.199,0.299h0.198c0.032,0.066,0.066,0.133,0.1,0.198h0.2
		c0.031,0.067,0.064,0.134,0.098,0.2c0.132,0.034,0.264,0.067,0.399,0.1v0.1h0.2v0.1c0.198,0.066,0.396,0.133,0.596,0.198v0.1h0.299
		v0.1h0.298c0.257,0.096,1.393,0.415,1.793,0.299v-0.101h0.797c0.524-0.164,0.923-0.46,1.594-0.497
		c-0.055,1.174-0.62,2.208-1.097,2.987v0.2H60.95v0.199h-0.101v0.2H60.75v0.199c-0.067,0.034-0.134,0.067-0.2,0.1v0.199h-0.1v0.199
		c-0.1,0.066-0.198,0.133-0.298,0.199v0.199c-0.368,0.398-0.731,0.798-1.097,1.196h-0.198v0.099c-0.208,0.111-0.918,0.308-1.295,0.2
		v-0.1h-0.499v-0.1c-0.151-0.043-0.315-0.031-0.471-0.019c-0.205,0.016-0.396,0.032-0.523-0.08h-0.798
		c-0.025-0.012-0.379-0.552-0.397-0.597v-0.3h-0.1v-0.198h-0.099V22.71h-0.101v-0.298h-0.1c-0.034-0.265-0.067-0.531-0.099-0.796
		h-0.099v-0.499h-0.101c-0.033-0.332-0.067-0.663-0.1-0.996h-0.099v-0.598c-0.054-0.173-0.179-0.581-0.2-0.797
		C53.737,18.295,53.503,16.531,53.778,16.236z"/>
	<path fill="#FFFFFF" d="M95.421,17.762c0.03-0.003,0.08-0.007,0.185,0.068c0.033,0.066,0.067,0.133,0.1,0.199h0.2v0.1h0.198v0.1
		h0.2c0.034,0.066,0.067,0.133,0.1,0.198c0.2,0.067,0.397,0.134,0.596,0.2c0.034,0.066,0.067,0.133,0.101,0.199
		c0.133,0.033,0.267,0.067,0.397,0.101c0.034,0.066,0.067,0.133,0.102,0.199c0.132,0.034,0.266,0.066,0.396,0.1
		c0.034,0.067,0.068,0.133,0.1,0.199h0.2v0.1h0.2v0.101h0.198c0.033,0.065,0.066,0.132,0.1,0.198h0.199v0.1
		c0.224,0.137,0.133-0.039,0.298,0.199c0.671-0.026,0.945-0.275,1.594-0.299c0.033-0.1,0.067-0.198,0.1-0.299h0.1v-0.2
		c0.067-0.032,0.133-0.065,0.197-0.099v-0.298h0.1v-0.2h0.101c0.033-0.133,0.067-0.266,0.1-0.398h0.1v-0.299h0.1v-0.299h0.099
		v-0.298h0.1v-0.399h0.1v-0.398h0.1v-0.896h0.1c0.09-0.322-0.052-0.825-0.1-0.997v-0.896h-0.1v-0.397h-0.1v-0.398h-0.1V12.75h-0.099
		c-0.032-0.2-0.065-0.398-0.1-0.598h-0.1v-0.199h-0.1v-0.298c-0.067-0.034-0.132-0.066-0.201-0.1v-0.299h-0.098v-0.199
		c-0.065-0.033-0.132-0.066-0.199-0.1v-0.298c-0.067-0.033-0.132-0.067-0.199-0.1c-0.067-0.199-0.134-0.398-0.199-0.597
		c-0.1-0.067-0.199-0.133-0.298-0.2v-0.2c-0.067-0.033-0.132-0.066-0.2-0.099c-0.033-0.133-0.066-0.266-0.101-0.398
		c-0.064-0.033-0.131-0.067-0.198-0.1v-0.2c-0.066-0.033-0.132-0.066-0.199-0.099c-0.033-0.101-0.067-0.2-0.1-0.299
		c-0.134-0.1-0.264-0.2-0.398-0.299V7.869c-0.066-0.033-0.133-0.067-0.2-0.101V7.57c-0.1-0.066-0.2-0.132-0.3-0.199v-0.2
		c-0.098-0.067-0.198-0.132-0.298-0.199c-0.032-0.133-0.066-0.266-0.1-0.398c-0.067-0.033-0.132-0.067-0.2-0.1V6.275
		c-0.1-0.066-0.198-0.133-0.298-0.198v-0.2h-0.098c-0.102-0.132-0.2-0.266-0.298-0.399c-0.167-0.114-0.229,0-0.399-0.198H96.8
		c0.034,1.195,0.066,2.391,0.101,3.585h0.098v1.097H97.1c0.034,1.063,0.068,2.124,0.099,3.187c-0.199,1.362-0.398,2.724-0.596,4.085
		c-0.308-0.014-1.069-0.086-1.196,0.099v0.2h-0.1C95.375,17.772,95.377,17.767,95.421,17.762z"/>
	<path fill="#FFFFFF" d="M46.01,16.634v-0.498h-0.1v-0.299h-0.1v-0.299h-0.098V15.24h-0.1v-0.2h-0.1
		c-0.034-0.166-0.067-0.331-0.1-0.498c-0.067-0.033-0.134-0.067-0.199-0.1v-0.298c-0.101-0.068-0.199-0.132-0.298-0.2
		c-0.266-0.383-0.267-0.756-0.797-0.896V12.85c-0.255-0.053-0.459-0.135-0.598-0.3h-0.396v0.1c-0.295,0.294-0.074,0.553-0.2,0.997
		c-0.113,0.384-0.197,0.893-0.2,1.394v1.096h-0.102v0.896h-0.099v1.196c-0.166,0.697-0.332,1.395-0.498,2.091
		c-0.011,0.02-0.149,0.099-0.2,0.199c-1.03,0.006-2.088,0.024-2.887-0.199c-0.142-0.039-0.288-0.03-0.426-0.02
		c-0.184,0.012-0.353,0.025-0.471-0.08c-0.101-0.033-0.2-0.066-0.298-0.1c-0.034-0.165-0.067-0.333-0.1-0.497h-0.1v-0.201h-0.1
		v-0.298h-0.1v-0.299h-0.101v-0.298h-0.1v-0.298h-0.101V17.93h-0.097v-0.2h-0.1v-0.398h-0.1v-0.299h-0.1v-0.298h-0.1v-0.299h-0.1
		v-0.299H36.35v-0.299h-0.102v-0.399H36.15V15.24h-0.099c-0.034-0.2-0.067-0.398-0.101-0.598h-0.099v-0.2h-0.098v-0.298h-0.101
		c-0.035-0.132-0.066-0.266-0.099-0.399h-0.1v-0.298c-0.068-0.034-0.134-0.068-0.2-0.1v-0.299c-0.068-0.034-0.132-0.067-0.198-0.1
		v-0.2h-0.101c-0.099-0.132-0.2-0.265-0.298-0.398h-0.298c-0.062,0.231-0.09,0.236-0.2,0.398h-0.1v0.498h-0.101v0.698h-0.1v3.387
		h0.1c0.067,0.83,0.132,1.661,0.2,2.49h0.1c0.033,0.366,0.066,0.731,0.1,1.096h0.1v0.397h0.098v0.399h0.101v0.398h0.1v0.299h0.1
		v0.298h0.099v0.399h0.101c0.032,0.133,0.066,0.265,0.1,0.398h0.098v0.299h0.1c0.032,0.133,0.066,0.265,0.1,0.398h0.1v0.199
		c0.063,0.033,0.132,0.067,0.199,0.1v0.298c0.065,0.034,0.129,0.067,0.197,0.101c0.327,0.506,0.424,0.919,0.997,1.194
		c0.084,0.113-0.015,0.016,0.097,0.1c0.063-0.16,0.094-0.236,0.101-0.498c0.198-0.059,0.086,0.013,0.2-0.099
		c0.307-0.002,0.512-0.031,0.697-0.101c0.101-0.525,0.596-1.8,0.399-2.49c-0.119-0.41-0.28-0.654-0.299-1.195
		c0.508,0.006,1.016,0.036,1.394,0.199v0.1c0.132,0.034,0.265,0.067,0.398,0.1v0.1h0.299v0.1c0.331,0.066,0.664,0.133,0.996,0.199
		v0.099c0.22,0.223,0.342,1.283,0.2,1.793c-0.417,1.482-0.496,3.497-1.692,4.184c0.007,0.777,0.431,1.186,0.895,1.495h0.2
		c0.032,0.065,0.065,0.132,0.1,0.199c0.165,0.033,0.33,0.066,0.498,0.1v0.099c0.284,0.094,0.681,0.071,1.081,0.048
		c0.406-0.024,0.816-0.048,1.11,0.052c0.113-0.171,0.125-0.16,0.156-0.149c0.022,0.009,0.053,0.017,0.142-0.049
		c0.133-0.167,0.266-0.332,0.399-0.498h0.098v-0.199c0.066-0.034,0.132-0.067,0.2-0.101c0.032-0.132,0.065-0.264,0.1-0.398
		c0.066-0.033,0.132-0.066,0.2-0.099c0.032-0.132,0.066-0.265,0.1-0.398h0.098c0.032-0.133,0.066-0.266,0.101-0.399h0.1V28.09
		C46.489,25.417,47.057,19.97,46.01,16.634z"/>
	<path fill="#FFFFFF" d="M105.861,29.086v0.398c0.399,0.631,0.797,1.261,1.197,1.893c0.167-0.034,0.331-0.067,0.498-0.101v-0.098
		c0.233,0.033,0.465,0.065,0.697,0.098c0.199-0.332,0.398-0.663,0.597-0.996v-0.298h0.1v-0.199h0.1v-0.299h0.098v-0.2h0.101
		c0.265-0.962,0.533-1.925,0.797-2.888h1.195c0.205,0.057,0.871,0.29,1.193,0.2v-0.1c0.268-0.034,0.534-0.066,0.798-0.1v-0.1h0.2
		v-0.1h0.199c0.034-0.066,0.068-0.132,0.101-0.199c0.332-0.065,0.665-0.133,0.995-0.199c0.048-0.215,0.064-0.282,0.2-0.399v-1.096
		c-0.058-0.11-0.383-0.127-0.499-0.199v-0.1c-0.1-0.033-0.199-0.065-0.299-0.099c-0.066,0.199-0.132,0.398-0.2,0.598
		c-0.398,0.034-0.798,0.066-1.195,0.1c0,0-0.022-0.083-0.2-0.1h-0.696v-0.1h-0.299v-0.1h-0.498v-0.099
		c-0.2-0.033-0.399-0.066-0.596-0.1c-0.066-0.399-0.132-0.797-0.2-1.195h0.1c0.034-0.565,0.068-1.129,0.1-1.694h-0.1v-0.797h-0.1
		v-0.796h-0.1v-0.798h-0.1V17.53h-0.1v-0.697h-0.1v-0.698h-0.098v-0.498h-0.1V15.04h-0.1v-0.398h-0.1v-0.299h-0.1v-0.398h-0.1v-0.2
		h-0.101v-0.198h-0.098v-0.199h-0.1c-0.032-0.101-0.066-0.2-0.1-0.299c-0.235,0.023-0.246,0.042-0.398,0.099
		c-0.299,1.029-0.598,2.06-0.896,3.089v0.796h-0.1v0.599h-0.101v1.194h-0.1v0.997h-0.099v1.096
		c-0.283,0.942-0.084,1.962-0.398,2.988c-0.033,0.432-0.066,0.863-0.1,1.295h-0.1c-0.098,0.498-0.198,0.996-0.298,1.494h-0.1v0.299
		h-0.1v0.298h-0.1v0.599c-0.058,0.183-0.292,0.896-0.198,1.195L105.861,29.086L105.861,29.086z"/>
	<path fill="#FFFFFF" d="M98.891,36.06c0.2-0.068,0.397-0.135,0.598-0.2v-0.101h0.2c0.167-0.199,0.332-0.397,0.497-0.597
		c0.067-0.033,0.133-0.066,0.2-0.1c0.033-0.133,0.067-0.266,0.099-0.399h0.1v-0.298h0.099c0.068-0.764,0.134-1.527,0.2-2.291
		c0.089-0.307,0.238-1.648,0.1-2.092c-0.634-2.036-2.293-3.121-4.88-3.188v-0.498c0.125-0.106,0.105-0.177,0.2-0.299h0.1v-0.199
		c0.1-0.033,0.2-0.066,0.298-0.1c0.034-0.066,0.068-0.132,0.1-0.2c0.101-0.032,0.199-0.065,0.299-0.1V25.3
		c0.167-0.033,0.333-0.065,0.499-0.1v-0.099h0.396V25c0.233-0.033,0.467-0.065,0.698-0.099V24.8c0.185-0.06,0.354-0.055,0.51-0.051
		c0.215,0.006,0.407,0.012,0.586-0.147c0.241-0.061,0.218-0.104,0.398-0.199c-0.061-0.302-0.212-0.563-0.298-0.796v-0.399
		c-0.066-0.033-0.131-0.066-0.199-0.099V22.91h-0.1v-0.2c-0.036-0.053-0.135-0.079-0.199-0.199c-0.565-0.166-1.13-0.331-1.693-0.499
		v-0.099c-0.132-0.034-0.264-0.066-0.396-0.1v-0.1h-0.5v-0.099c-0.198-0.066-0.397-0.133-0.597-0.2v-0.1h-0.2v-0.099
		c-0.198-0.066-0.397-0.132-0.597-0.199c-0.032-0.066-0.066-0.132-0.1-0.199c-0.198-0.067-0.398-0.133-0.597-0.199
		c-0.066-0.1-0.133-0.199-0.199-0.299h-0.2c-0.032-0.066-0.066-0.132-0.1-0.199c-0.132-0.033-0.264-0.066-0.398-0.1
		c-0.032-0.065-0.066-0.132-0.1-0.199h-0.199c-0.131-0.166-0.265-0.332-0.398-0.499h-0.199c-0.1-0.132-0.2-0.265-0.299-0.397h-0.199
		c-0.134-0.166-0.266-0.333-0.4-0.499h-0.198v-0.099c-0.252-0.21-0.438-0.508-0.797-0.599V17.53
		c-0.405-0.102-0.394-0.301-0.596-0.598c-0.067-0.034-0.132-0.067-0.2-0.1c-0.033-0.1-0.067-0.2-0.101-0.299h-0.098
		c-0.065-0.298-0.133-0.598-0.199-0.896h0.1v-0.1h-0.1V14.94h-0.2c-0.101,0.132-0.2,0.266-0.298,0.398h-0.2
		c-0.033,0.066-0.066,0.132-0.1,0.199c-0.132,0.1-0.266,0.199-0.398,0.299v0.199c-0.1,0.067-0.2,0.133-0.299,0.2
		c-0.032,0.165-0.066,0.333-0.1,0.498c-0.067,0.033-0.134,0.066-0.2,0.1v0.398h-0.098v0.299h-0.1
		c-0.151,0.472,0.153,1.363,0.298,1.593c0.068,0.034,0.134,0.066,0.2,0.1v0.199c0.1,0.067,0.2,0.133,0.299,0.201v0.198
		c0.065,0.034,0.132,0.067,0.198,0.1c0.2,0.233,0.399,0.465,0.597,0.697h0.2c0.066,0.132,0.133,0.266,0.2,0.398h0.199
		c0.098,0.132,0.198,0.266,0.297,0.398h0.2c0.067,0.1,0.132,0.2,0.199,0.299h0.298v0.2c0.279,0.068,0.41,0.149,0.598,0.298v0.1h0.2
		c0.034,0.066,0.065,0.134,0.099,0.199h0.199v0.1h0.199v0.099h0.2v0.1h0.198c0.034,0.067,0.068,0.133,0.101,0.199
		c0.133,0.034,0.265,0.067,0.399,0.101v0.099h0.198v0.099c0.133,0.034,0.268,0.067,0.399,0.1v0.1h0.2v0.1h0.398
		c0.311,0.113,0.532,0.286,0.996,0.298c0.084,0.185,0.153,0.26,0.2,0.498h0.1v0.1h-0.1c-0.155,0.333-0.337,0.479-0.598,0.697v0.1
		h-0.2c-0.166,0.199-0.331,0.398-0.498,0.598h-0.199c-0.033,0.065-0.066,0.133-0.099,0.198h-0.1c-0.066,0.1-0.132,0.2-0.2,0.3
		c-0.099,0.033-0.199,0.066-0.299,0.1c-0.031,0.066-0.064,0.132-0.099,0.198h-0.199c-0.199,0.233-0.399,0.465-0.597,0.697h-0.2
		c-0.166,0.2-0.331,0.399-0.497,0.598h-0.2c-0.266,0.299-0.532,0.598-0.797,0.897c-0.231,0.199-0.464,0.398-0.697,0.598v0.198
		c-0.129,0.101-0.263,0.2-0.396,0.3v0.2c-0.066,0.033-0.132,0.065-0.2,0.098v0.2c-0.065,0.033-0.133,0.066-0.198,0.099v0.2h-0.1
		v0.299c-0.066,0.034-0.133,0.066-0.2,0.101c-0.126,0.271,0.02,0.561-0.2,0.796c0.062,0.513,0.275,0.464,0.597,0.698
		c0.1,0.132,0.2,0.265,0.3,0.398h0.2c0.032,0.066,0.068,0.132,0.099,0.199h0.198c0.068,0.1,0.133,0.2,0.2,0.3h0.2
		c0.064,0.099,0.132,0.199,0.197,0.299c0.133,0.032,0.266,0.065,0.399,0.099c0.034,0.067,0.067,0.133,0.099,0.2
		c0.1,0.034,0.199,0.066,0.299,0.1v0.1c0.133,0.033,0.265,0.066,0.397,0.099c0.034,0.066,0.068,0.133,0.1,0.199h0.3
		c0.033,0.067,0.067,0.133,0.1,0.199c0.133,0.034,0.266,0.067,0.398,0.101c0.034,0.066,0.067,0.133,0.099,0.199h0.299
		c0.034,0.065,0.067,0.133,0.099,0.2c0.865,0.298,1.728,0.596,2.59,0.895h0.599v0.1c0.534,0.158,1.951-0.055,2.289-0.2v-0.1H98.891z
		 M98.393,32.97c-0.032,0.066-0.066,0.133-0.1,0.199h-0.2c-0.066,0.1-0.132,0.199-0.2,0.299c-0.364,0.206-2.357,0.602-3.086,0.399
		v-0.1c-0.398-0.034-0.796-0.067-1.195-0.1v-0.099h-0.2v-0.1c-0.23-0.033-0.463-0.066-0.697-0.1v-0.1
		c-0.198-0.066-0.398-0.132-0.597-0.199v-0.1H91.92c-0.065-0.099-0.133-0.199-0.199-0.298c-0.166-0.145-0.418-0.293-0.598-0.399
		v-0.299h0.1c0.164-0.198,0.332-0.397,0.498-0.597h0.199c0.099-0.134,0.199-0.266,0.299-0.399h0.2
		c0.134-0.166,0.264-0.333,0.398-0.498c0.065-0.034,0.133-0.067,0.199-0.1V30.18c0.1-0.066,0.2-0.134,0.299-0.2v-0.199
		c0.099-0.067,0.199-0.133,0.299-0.2v-0.199c0.099-0.066,0.199-0.133,0.299-0.199v-0.199h0.1c0.188-0.227,0.41-0.371,0.498-0.697
		h0.199V28.09h0.199c0.034-0.101,0.068-0.199,0.1-0.299c0.807,0.01,1.521,0.044,2.091,0.299v0.099
		c0.201,0.067,0.397,0.133,0.597,0.199c0.034,0.067,0.067,0.133,0.1,0.199h0.198v0.101c0.1,0.033,0.2,0.066,0.3,0.099v0.199h0.2
		c0.071,0.26,0.157,0.32,0.298,0.499h0.1v0.198h0.1c0.034,0.133,0.068,0.266,0.1,0.399h0.1v0.399h0.098
		c0.188,0.62-0.236,1.488-0.397,1.792c-0.033,0.133-0.067,0.266-0.1,0.399C98.657,32.771,98.527,32.871,98.393,32.97z"/>
	<path fill="#FFFFFF" d="M121.498,21.117v0.198c0.167,0.034,0.332,0.067,0.498,0.1v0.1h1.094v0.1h0.5v0.099h0.299
		c0.451,0.198,0.686,0.662,1.094,0.896c0.035,0.166,0.067,0.333,0.101,0.499h0.101c0.242,0.752-0.234,2.434-0.498,2.689v0.1
		c1.905-0.021,3.68-3.157,2.588-4.881c-0.065-0.032-0.131-0.066-0.199-0.1v-0.2c-0.1-0.032-0.198-0.064-0.297-0.099
		c-0.067-0.1-0.135-0.199-0.2-0.299h-0.2c-0.031-0.066-0.064-0.132-0.1-0.199c-0.131-0.033-0.266-0.066-0.399-0.1v-0.099
		c-0.13-0.033-0.265-0.065-0.397-0.1v-0.1h-0.299v-0.099h-0.199v-0.101h-0.396v-0.1c-0.398-0.033-0.797-0.066-1.193-0.1v0.1h-0.998
		v0.1c-0.297,0.067-0.598,0.133-0.896,0.199c-0.033,0.1-0.065,0.199-0.101,0.298h-0.101v0.2h-0.101
		c0.033,0.265,0.068,0.531,0.101,0.797C121.366,21.05,121.432,21.084,121.498,21.117z"/>
	<path fill="#FFFFFF" d="M77.479,36.257v0.1c0.602-0.024,0.487-0.205,0.697-0.598h0.101V35.56h0.1v-0.299h0.1
		c0.033-0.133,0.066-0.266,0.1-0.4h0.1c0.1-0.43,0.198-0.862,0.298-1.293h0.1c0.1-0.465,0.199-0.931,0.299-1.396h0.1v-0.099h1.096
		c0.241,0.072,0.659,0.335,1.095,0.199v-0.1c0.2-0.033,0.399-0.066,0.597-0.099v-0.1c0.167-0.033,0.333-0.066,0.5-0.099
		c0.034-0.067,0.066-0.134,0.098-0.2c0.232-0.034,0.467-0.066,0.698-0.099c0.101-0.459,0.21-0.617,0.2-1.296
		c-0.405-0.111-0.259-0.271-0.797-0.298v0.398h-0.1v0.1c-0.697-0.034-1.395-0.067-2.092-0.1V30.28
		c-0.331-0.065-0.664-0.132-0.996-0.199c-0.033-0.531-0.066-1.063-0.1-1.594h0.1c-0.033-0.63-0.066-1.261-0.1-1.892h-0.1v-0.798
		h-0.099v-1.195h-0.1v-0.796h-0.1v-0.798h-0.1V22.51h-0.1v-0.398h-0.1v-0.398h-0.101v-0.399h-0.098v-0.198h-0.1v-0.199h-0.1v-0.2
		h-0.1c-0.034-0.099-0.066-0.198-0.1-0.298c-0.067-0.033-0.132-0.066-0.2-0.1c-0.352,0.841-0.618,1.877-0.894,2.79v0.896H77.18
		v0.598h-0.099v1.195h-0.102v0.798H76.88v1.194h-0.101v1.295h-0.098v0.796h-0.099v0.796h-0.101v0.299h-0.099v0.498
		c-0.186,0.582-0.419,1.287-0.598,1.893v0.598v0.797c0.365,0.564,0.729,1.128,1.095,1.693
		C77.083,36.391,77.282,36.324,77.479,36.257z"/>
	<path fill="#FFFFFF" d="M69.415,26.894c-0.034-0.066-0.066-0.132-0.1-0.2h-0.2c-0.034-0.066-0.067-0.132-0.1-0.198
		c-0.133-0.034-0.264-0.066-0.397-0.1c-0.034-0.067-0.067-0.132-0.1-0.2c-0.134-0.033-0.264-0.066-0.398-0.1
		c-0.067-0.099-0.134-0.198-0.199-0.298H67.72c-0.033-0.066-0.067-0.133-0.1-0.198c-0.132-0.034-0.265-0.067-0.397-0.101
		c-0.034-0.065-0.067-0.132-0.1-0.199h-0.2c-0.064-0.1-0.132-0.199-0.198-0.299c-0.264-0.183-0.479-0.281-0.897-0.298
		c-0.059,0.2,0.013,0.085-0.1,0.2c0.012,0.766,0.27,1.235,0.598,1.694c0.166,0.132,0.332,0.265,0.499,0.397v0.2
		c0.064,0.033,0.132,0.066,0.198,0.098c0.132,0.167,0.266,0.333,0.399,0.499h0.198c0.167,0.199,0.333,0.398,0.5,0.597
		c0.1,0.034,0.198,0.067,0.298,0.1c0.066,0.099,0.132,0.2,0.2,0.299h0.2c0.13,0.166,0.264,0.332,0.398,0.498h0.199
		c0.034,0.067,0.065,0.134,0.098,0.2h0.2c0.064,0.099,0.132,0.198,0.2,0.299h0.2c0.062,0.043,0.073,0.131,0.197,0.199v0.298
		c-0.136,0.286-1.48,1.023-1.891,1.097c-0.098,0.364-0.318,0.499-0.398,0.896h-0.2c-0.065,0.279-0.151,0.413-0.298,0.598h-0.1v0.199
		c-0.134,0.099-0.267,0.199-0.399,0.298v0.2c-0.066,0.032-0.134,0.065-0.198,0.099v0.2c-0.067,0.032-0.134,0.065-0.199,0.099v0.2
		h-0.1v0.199h-0.1v0.298h-0.1v0.199h-0.1v0.699h-0.098c0.085,0.286,0.101,0.268,0.167,0.248c0.043-0.012,0.108-0.025,0.231,0.051
		c0.1,0.132,0.2,0.264,0.299,0.397h0.198v0.1c0.332,0.034,0.664,0.066,0.997,0.1v0.1h0.297v0.098h0.2v0.102
		c0.295,0.115,2.017,0.337,2.488,0.198v-0.1c0.233-0.034,0.465-0.066,0.697-0.098c0.365-0.234,0.731-0.467,1.095-0.697v-0.2
		c-0.166-0.134-0.332-0.268-0.497-0.4v-0.098h-0.199c-0.1-0.135-0.199-0.267-0.299-0.399c-0.066-0.034-0.134-0.067-0.199-0.101
		v-0.199c-0.099-0.066-0.199-0.132-0.299-0.199v-0.298c-0.299-0.652-0.711-1.646-1.294-1.993c0.028-0.514,0.214-0.483,0.399-0.796
		h0.198v-0.199c0.223-0.063,0.25-0.083,0.398-0.2v-0.1h0.2c0.033-0.065,0.065-0.132,0.099-0.199h0.2v-0.1
		c0.264-0.033,0.531-0.065,0.796-0.099c0.026-0.269,0.162-0.664,0.299-0.798c-0.045-0.522-0.34-0.985-0.797-1.096
		c-0.093-0.345-0.258-0.372-0.297-0.796c0.388-0.105,0.625-0.428,0.995-0.597c0.1-0.3,0.199-0.598,0.297-0.897
		c-0.064-0.398-0.132-0.797-0.198-1.195h-0.1c-0.034-0.199-0.066-0.399-0.1-0.598h-0.099v-0.2h-0.099v-0.199
		c-0.067-0.033-0.134-0.066-0.2-0.1c-0.034-0.133-0.065-0.265-0.099-0.397c-0.067-0.033-0.134-0.066-0.2-0.1
		c-0.194-0.287-0.182-0.415-0.497-0.597v-0.2c-0.258-0.072-0.324-0.154-0.499-0.298v-0.1c-0.1-0.033-0.199-0.066-0.298-0.1
		c-0.033-0.066-0.067-0.133-0.101-0.2H70.01c0.034,0.532,0.067,1.063,0.101,1.595h0.098v3.586
		C69.853,27.147,69.665,27.06,69.415,26.894z M69.215,35.362c-0.05,0-0.097,0-0.141,0c-0.474,0-0.637-0.033-0.955-0.201
		c0.115-0.429,0.444-0.695,0.498-1.196h0.297c0.033,0.1,0.066,0.2,0.1,0.299h0.1v0.199h0.101v0.299h0.1
		C69.281,34.963,69.248,35.162,69.215,35.362z"/>
	<path fill="#FFFFFF" d="M118.809,34.166c0.034,0.066,0.067,0.132,0.1,0.199h0.199v0.099h0.199v0.1h0.198v0.099h0.198v0.101h0.199
		v0.098c0.201,0.067,0.399,0.134,0.598,0.2v0.1h0.4v0.1h0.197v0.101c0.199,0.033,0.399,0.064,0.6,0.098v0.101h0.398v0.1
		c0.297,0.034,0.596,0.066,0.893,0.099v0.101h0.898c0.887,0.251,3.174,0.38,4.184,0.099h1.096V35.86h1.193v-0.101h0.697V35.66h0.799
		v-0.1h0.398v-0.1h0.296v-0.098h0.498v-0.101h0.201v-0.1h0.3v-0.1c0.165-0.033,0.33-0.066,0.497-0.099v-0.101h0.201
		c0.03-0.065,0.063-0.132,0.097-0.199h0.299c0.034-0.066,0.067-0.132,0.103-0.199c0.099-0.033,0.196-0.066,0.296-0.099v-0.1
		c0.102-0.034,0.201-0.066,0.299-0.1c0.094-0.327,0.309-0.47,0.498-0.697h0.102v-0.2c0.101-0.066,0.199-0.132,0.297-0.199v-0.199
		c0.068-0.033,0.133-0.066,0.201-0.1c0.031-0.133,0.065-0.266,0.098-0.399c0.066-0.033,0.133-0.066,0.199-0.1
		c0.033-0.132,0.068-0.266,0.102-0.397h0.1v-0.2h0.098v-0.2h0.1v-0.199h0.1v-0.199h0.102c0.032-0.133,0.066-0.265,0.098-0.399h0.1
		c0.16-0.295,0.16-0.58,0.398-0.796v-0.299c-1.094,0.365-2.19,0.731-3.287,1.096h-0.396v0.1h-0.201v0.099h-0.397v0.1h-0.297v0.1
		c-0.367,0.066-0.731,0.133-1.096,0.199v0.101c-0.267,0.032-0.533,0.065-0.797,0.098v0.101c-0.268,0.032-0.531,0.065-0.796,0.099
		v0.101c-0.333,0.032-0.665,0.066-0.996,0.1c-2.131,0.681-6.433,1.016-9.063,0.497v-0.199c0.465-0.133,0.931-0.266,1.395-0.397
		v-0.101c0.299-0.034,0.6-0.066,0.896-0.099c0.033-0.067,0.066-0.134,0.098-0.199h0.301c0.033-0.067,0.066-0.134,0.1-0.199h0.199
		c0.067-0.101,0.133-0.2,0.199-0.3h0.1v-0.199c0.068-0.033,0.133-0.065,0.2-0.1v-0.198h0.099v-0.199h0.101v-0.3h0.099
		c0.078-0.2,0.286-1.299,0.199-1.594h-0.102V27.89h-0.098v-0.2h-0.099v-0.299c-0.067-0.033-0.132-0.066-0.199-0.1v-0.199
		c-0.166-0.133-0.332-0.265-0.497-0.399c-0.236-0.234-0.314-0.498-0.697-0.598v-0.099c-0.18,0.095-0.154,0.144-0.399,0.199
		c0.011,0.664,0.16,1.585,0.2,1.893c-0.066,0.465-0.131,0.929-0.2,1.395h-0.099v0.299h-0.101c-0.065,0.199-0.132,0.399-0.198,0.598
		h-0.101v0.198c-0.101,0.066-0.2,0.133-0.298,0.2c-0.2,0.232-0.4,0.464-0.6,0.697h-0.197v0.101c-0.2,0.065-0.4,0.132-0.598,0.199
		v0.1h-0.3v0.099h-0.198v0.1h-0.397v0.099h-0.199v0.1h-1.095v0.1c-0.102,0.034-0.2,0.067-0.301,0.101
		c-0.096,0.224-0.308,0.573-0.1,0.796C117.868,33.847,118.359,33.881,118.809,34.166z"/>
	<path fill="#FFFFFF" d="M118.809,29.185c0.067,0.333,0.133,0.665,0.199,0.997h0.1v0.199c0.065,0.033,0.131,0.066,0.199,0.1v0.298
		h0.1v0.199c0.027,0.047,0.138,0.089,0.199,0.2c0.512-0.016,0.568-0.146,0.896-0.3c0.034-0.132,0.067-0.265,0.101-0.397h0.1
		c0.195-0.558-0.354-2.112-0.498-2.491h-0.1v-0.398h-0.101v-0.299h-0.101v-0.199h-0.1v-0.399h-0.1v-0.198
		c-0.133-0.066-0.266-0.133-0.396-0.2c-0.068,0.1-0.134,0.2-0.199,0.3h-0.1c-0.033,0.265-0.066,0.531-0.1,0.795
		c-0.113,0.371-0.377,1.188-0.2,1.793H118.809z"/>
	<path fill="#FFFFFF" d="M51.885,35.958v0.399h-0.1c-0.003,0.796,0.133,0.652,0.399,1.097c1.093,0,1.705-0.045,2.49-0.3h0.397v-0.1
		h0.597c0.425-0.133,1.209-0.5,1.893-0.298v0.098h0.498v0.1h0.298v0.1h0.299v0.1h0.297v0.1c0.133,0.032,0.266,0.065,0.4,0.098v0.102
		c0.23,0.032,0.464,0.064,0.698,0.098v0.1h0.1v-0.1h0.697v-0.098h0.298v-0.102h0.2v-0.098h0.299v-0.1
		c0.099-0.034,0.199-0.066,0.298-0.1v-0.399c0.166-0.033,0.331-0.066,0.498-0.098v-0.399c-0.2-0.166-0.397-0.332-0.597-0.498v-0.1
		c-0.168-0.034-0.333-0.066-0.498-0.101c-1.813-0.943-4.155,0.065-6.176,0.101v-0.299c0.1-0.034,0.201-0.066,0.3-0.1
		c0.032-0.066,0.065-0.133,0.1-0.199h0.198c0.066-0.099,0.132-0.199,0.2-0.3h0.198c0.067-0.099,0.132-0.199,0.199-0.298h0.2
		c0.099-0.133,0.2-0.266,0.298-0.399c0.198-0.166,0.397-0.332,0.597-0.498c0.033-0.133,0.066-0.266,0.1-0.398h0.1V32.87
		c0.065-0.033,0.131-0.066,0.198-0.1c0.033-0.532,0.066-1.063,0.1-1.593h-0.1v-0.5h-0.099c-0.068-0.198-0.133-0.398-0.199-0.597
		h-0.1v-0.199c-0.067-0.033-0.133-0.066-0.2-0.099v-0.2c-0.181-0.256-0.377-0.164-0.496-0.597h-0.2
		c-0.135-0.5-0.789-0.731-1.095-1.095h-0.1c0.002,1.447,0.494,2.157,0.497,3.585v1.296h-0.1v0.199h-0.1v0.299h-0.098v0.3
		c-0.067,0.032-0.134,0.065-0.199,0.099c-0.034,0.132-0.068,0.265-0.101,0.398c-0.067,0.033-0.134,0.066-0.199,0.1v0.199h-0.1
		c-0.117,0.148-0.139,0.175-0.198,0.398c-0.363,0.095-0.652,0.381-0.997,0.498H53.28v0.101c-0.182,0.054-0.315,0.043-0.427,0.034
		c-0.167-0.014-0.291-0.028-0.47,0.165c-0.407,0.115-0.118,0.038-0.297,0.299C52.018,35.892,51.951,35.924,51.885,35.958z"/>
	<path fill="#FFFFFF" d="M42.524,37.652v-0.1h-0.597v-0.098c-0.426-0.13-0.905,0.04-1.195-0.2c-0.202-0.23,0.068-0.694-0.1-0.997
		h-0.1v-0.1c-0.058-0.005-0.467,0.356-0.795,0.399c0.012-1.918,0.311-3.43,0.297-5.379h-0.1v0.297
		c-0.133-0.033-0.266-0.066-0.398-0.098c-0.078,0.271-0.024,0.226-0.299,0.298v-0.298c-0.099,0.032-0.198,0.065-0.298,0.098
		c-0.084,0.359-0.277,0.69-0.4,0.998v0.298h-0.098c-0.034,0.199-0.067,0.398-0.1,0.597h-0.1c-0.068,0.2-0.134,0.399-0.2,0.598H37.94
		v0.2c-0.067,0.034-0.133,0.066-0.198,0.1v0.199h-0.1v0.199h-0.1v0.199h-0.1v0.2c-0.067,0.034-0.134,0.067-0.2,0.1
		c-0.1,0.298-0.2,0.597-0.297,0.897h-0.1c-0.034,0.132-0.067,0.264-0.1,0.397h-0.1v0.3h-0.1v0.198h-0.1
		c-0.163,0.379-0.49,2.24-0.298,2.889c0.073,0.248,0.233,0.515,0.298,0.796c0.568,0.056,1.289,0.252,1.794,0.399
		c0.563,0.034,1.127,0.066,1.692,0.1c0.313,0.088,2.045,0.226,2.491,0.1v-0.1h0.498v-0.1c0.297-0.033,0.596-0.067,0.894-0.1
		c0.332-0.198,0.664-0.398,0.997-0.597c0.046-0.216,0.062-0.282,0.2-0.399v-1.094c-0.067-0.034-0.134-0.067-0.2-0.102
		C44.19,38.064,43.471,37.998,42.524,37.652z M40.334,39.844c-0.316,0.004-0.755,0.039-1.17,0.039c-0.481,0-0.931-0.046-1.122-0.238
		c-0.068-0.034-0.134-0.067-0.2-0.1c0.02-0.564,0.108-0.564,0.3-0.896v-0.2c0.065-0.034,0.132-0.067,0.199-0.1
		c0.033-0.1,0.066-0.198,0.1-0.3h0.098c0.033-0.098,0.066-0.198,0.101-0.298c0.563,0.158,0.198,0.168,0.399,0.498
		c0.165,0.132,0.33,0.264,0.498,0.399c0.282,0.284,0.44,0.682,0.797,0.896V39.844z"/>
	<path fill="#FFFFFF" d="M104.667,36.655v0.2c0.222,0.063,0.252,0.082,0.399,0.2v0.1c0.099,0.032,0.199,0.065,0.298,0.1
		c0.034,0.065,0.068,0.132,0.1,0.2c0.133,0.032,0.267,0.064,0.398,0.098c0.034,0.066,0.068,0.132,0.1,0.2h0.2v0.1
		c0.133,0.032,0.267,0.066,0.397,0.101v0.098h0.3v0.102c0.133,0.032,0.267,0.064,0.397,0.098v0.1c0.233,0.032,0.467,0.066,0.698,0.1
		v0.099h0.199v0.102h0.299v0.098h0.298v0.102h0.299v0.098h0.298v0.1h0.399v0.1c0.332,0.065,0.665,0.132,0.996,0.2
		c0.267,0.132,0.531,0.264,0.795,0.397c0.034,0.332,0.067,0.665,0.1,0.997h-0.1c-0.066,0.498-0.132,0.995-0.2,1.493
		c0.235,0.838,0.537,1.792,0.697,2.689c0.52-0.06,0.859-0.167,1.195,0.2c0.386-0.1,0.303-0.227,0.499-0.5h0.098
		c0.068-0.1,0.134-0.197,0.2-0.298c0.436,0.057,0.266,0.151,0.697,0.2c0.132-0.55,0.494-0.941,0.697-1.396v-0.299h0.1v-0.198h0.1
		v-0.299h0.1V42.14h0.099c0.034-0.2,0.068-0.399,0.1-0.599h0.1v-0.298h0.1v-0.2h0.1V40.64h0.1v-0.399h0.098v-0.397h0.101v-0.399
		h0.101c0.089-0.289,0.077-1.808,0-1.893c-0.076-0.271-0.022-0.228-0.298-0.298c-0.068-0.242-0.071-0.237-0.115-0.232
		c-0.03,0.004-0.081,0.007-0.185-0.068c-0.032-0.066-0.066-0.133-0.1-0.198h-0.198v-0.102h-0.199
		c-0.033-0.066-0.066-0.132-0.1-0.198c-0.166-0.034-0.331-0.066-0.497-0.1c-0.033-0.068-0.066-0.133-0.1-0.2h-0.2V36.06h-0.498
		v-0.101h-0.2V35.86h-0.299v-0.101h-0.398V35.66h-0.199v-0.1h-0.697v-0.1h-0.399v-0.098c-0.298-0.034-0.597-0.067-0.896-0.101v-0.1
		h-0.596v-0.1h-0.697v-0.099h-0.698v-0.101c-0.863-0.032-1.726-0.065-2.589-0.098v-0.101h-0.2v-0.099
		c-0.2-0.066-0.399-0.133-0.598-0.199c-0.033-0.067-0.066-0.133-0.1-0.199h-0.498c-0.195-0.034-0.302-0.048-0.407-0.048
		c-0.122,0-0.24,0.019-0.49,0.048c0.014,0.559,0.028,1.176-0.298,1.395C103.958,35.91,104.388,36.497,104.667,36.655z"/>
	<path fill="#FFFFFF" d="M73.198,43.529c0.381,0.37,2.03,0.41,2.69,0.2v-0.1h0.596v-0.1h0.399v-0.1h0.399V43.33h0.297v-0.101h0.3
		V43.13h0.297v-0.1h0.3v-0.1h0.299v-0.1c0.199-0.032,0.398-0.066,0.598-0.1v-0.099c0.134-0.034,0.265-0.067,0.397-0.101v-0.099
		h0.398v-0.1c0.134-0.034,0.267-0.066,0.4-0.1v-0.099h0.297V42.03h0.3v-0.099h0.298v-0.1h0.3v-0.1h0.397
		c0.034-0.067,0.066-0.133,0.1-0.199h0.2v-0.099c0.1-0.034,0.2-0.068,0.3-0.102c0.059-0.198-0.014-0.084,0.098-0.198V40.84H82.76
		c-0.091-0.067,0.035-0.14-0.1-0.099v0.099h-0.3v0.099c-0.234,0.033-0.464,0.067-0.697,0.1v0.1c-0.234,0.032-0.464,0.065-0.698,0.1
		v0.098h-0.2v0.102h-0.398v0.099H79.97v0.1h-0.498v0.1h-0.499v0.1h-0.697h-0.101v0.1c-0.311,0.09-1.144,0.034-1.293-0.1
		c-0.379,0.003-0.753-0.009-0.995-0.1c-0.034-0.166-0.066-0.332-0.101-0.498h-0.1v-0.4h0.1v-0.498h0.101v-0.2h0.1
		c0.032-0.132,0.065-0.266,0.099-0.398c0.065-0.033,0.133-0.066,0.198-0.1v-0.298h0.1c0.032-0.135,0.064-0.268,0.099-0.399h0.101
		v-0.298h0.099c-0.065-0.3-0.132-0.6-0.2-0.897h-0.099c-0.032-0.2-0.066-0.399-0.1-0.597c-0.133-0.034-0.265-0.066-0.397-0.1
		c-0.034,0.066-0.066,0.132-0.101,0.2c-0.133,0.032-0.267,0.065-0.398,0.098c-0.099,0.266-0.199,0.531-0.299,0.799h-0.1v0.297H74.89
		v0.2h-0.098v0.2c-0.067,0.03-0.134,0.064-0.199,0.098v0.199c-0.066,0.033-0.134,0.065-0.2,0.099v0.2
		c-0.191,0.271-0.348,0.092-0.398,0.599h-0.2c-0.034,0.098-0.066,0.197-0.1,0.298h-0.1v0.298c-0.067,0.033-0.134,0.067-0.198,0.101
		v0.198h-0.1c-0.034,0.134-0.066,0.266-0.1,0.398h-0.1v0.3h-0.1v0.397h-0.1c-0.153,0.509,0.153,1.08,0.2,1.495H73.198z"/>
	<path fill="#FFFFFF" d="M62.243,44.126c0.124,0.472,0.352,1.01,0.399,1.595c0.331,0.034,0.662,0.064,0.994,0.098
		c0.034-0.098,0.066-0.197,0.101-0.297c0.177-0.183,0.417-0.062,0.597,0c0.569-1.235,1.386-2.831,1.194-4.481H65.33
		c-0.084-0.289-0.1-0.269-0.167-0.25c-0.043,0.013-0.109,0.025-0.23-0.048c-0.067-0.101-0.133-0.2-0.2-0.299h-0.199v-0.1h-0.299
		v-0.101h-0.299v-0.099h-0.199v-0.098c-1.029-0.2-2.059-0.399-3.086-0.599h-1.395v-0.098h-0.3v-0.102h-0.198v-0.099h-0.199
		c-0.221-0.103-0.324-0.142-0.458-0.142c-0.086,0-0.186,0.016-0.339,0.042c-0.034,0.364-0.068,0.729-0.099,1.095
		c0.265,0.3,0.53,0.599,0.797,0.897c0.132,0.034,0.265,0.066,0.398,0.1v0.1h0.198v0.098h0.2c0.034,0.068,0.065,0.134,0.1,0.2h0.298
		v0.1h0.2v0.1h0.299v0.1h0.398v0.1h0.299v0.099h0.298v0.102h0.3v0.099h0.398v0.1c0.165,0.033,0.33,0.066,0.496,0.1
		c0.042,0.228,0.198,0.559,0.101,0.897C62.395,43.495,62.167,43.833,62.243,44.126z"/>
	<path fill="#FFFFFF" d="M59.653,56.678v-0.102h0.3v-0.098h0.2c0.032-0.067,0.066-0.133,0.1-0.201h0.198
		c0.1-0.131,0.2-0.266,0.3-0.398c0.066-0.031,0.132-0.066,0.2-0.098v-0.2c0.064-0.034,0.13-0.067,0.198-0.101v-0.198h0.1
		c0.033-0.134,0.066-0.267,0.101-0.398h0.1v-0.399h0.099c0.211-0.693-0.163-1.776-0.299-2.189c-0.033-0.23-0.067-0.465-0.1-0.697
		c-1.01-2.377-3.025-3.586-6.417-3.586c-0.084,0-0.169,0-0.255,0.002c-0.158,0.174-0.187,0.09-0.398,0.197v0.1h-0.299
		c-0.067,0.101-0.132,0.199-0.198,0.299c-0.167,0.134-0.333,0.266-0.5,0.399c-0.033,0.132-0.067,0.267-0.098,0.399h-0.1v0.298h-0.1
		v0.397h-0.1v0.599h0.1V51.3h0.1v0.3h0.1c0.065,0.199,0.131,0.398,0.199,0.596h0.1v0.201c0.066,0.031,0.132,0.065,0.2,0.1v0.199
		c0.498,0.529,0.995,1.062,1.493,1.593h0.199c0.1,0.132,0.201,0.265,0.3,0.397h0.198c0.132,0.166,0.266,0.332,0.4,0.498h0.199
		c0.031,0.066,0.064,0.133,0.098,0.199h0.2c0.064,0.1,0.132,0.2,0.2,0.299h0.198c0.065,0.102,0.131,0.199,0.198,0.301h0.2
		c0.065,0.098,0.132,0.197,0.199,0.297h0.199v0.1c0.199,0.066,0.398,0.135,0.597,0.199v0.102
		C58.639,56.791,59.366,56.779,59.653,56.678z"/>
	<path fill="#FFFFFF" d="M102.575,52.096v0.299h0.1c0.068,0.197,0.134,0.398,0.2,0.599h0.1c0.033,0.132,0.067,0.264,0.1,0.399h0.1
		c0.166,0.205,0.314,0.299,0.398,0.596c0.222,0.063,0.25,0.082,0.396,0.199v0.101h0.2c0.034,0.065,0.068,0.132,0.102,0.198
		c0.132,0.033,0.267,0.066,0.396,0.102c0.033,0.066,0.067,0.133,0.1,0.198h0.2v0.1h0.198c0.034,0.067,0.067,0.132,0.1,0.2
		c0.1,0.032,0.199,0.066,0.299,0.098v0.102c0.134,0.033,0.267,0.066,0.398,0.099v0.101c0.15,0.115,0.174,0.143,0.399,0.199
		c0.061,0.198-0.013,0.086,0.1,0.198c-0.033,0.103-0.066,0.2-0.1,0.3h-0.1c-0.032,0.1-0.066,0.198-0.1,0.299
		c-0.066,0.035-0.133,0.066-0.2,0.099v0.2c-0.1,0.066-0.198,0.133-0.298,0.199c-0.432,0.463-0.863,0.93-1.295,1.396h-0.2v0.2h-0.2
		c-0.101,0.359-0.381,0.54-0.596,0.795h-0.1c-0.322,0.451-0.772,1.273-0.796,1.992c0.712-0.014,1.108-0.271,1.394-0.697v-0.198
		c0.067-0.034,0.132-0.067,0.199-0.101v-0.199c0.167-0.133,0.332-0.266,0.498-0.396c0.232-0.269,0.465-0.533,0.696-0.797h0.199
		c0.1-0.135,0.2-0.267,0.3-0.398c0.198-0.068,0.398-0.135,0.598-0.2v-0.101h0.198v-0.1h0.3v-0.1h0.796v0.1h0.299v0.1h0.199v0.101
		h0.199c0.034,0.065,0.067,0.132,0.1,0.2h0.199c0.299,0.33,0.598,0.662,0.897,0.994c0.568,0.402,1.656,0.652,2.588,0.697
		c0.461,0.023,0.921,0.192,1.395,0v-0.1h0.298v-0.1c0.411-0.109,0.402-0.399,0.698-0.599c0.037-0.47,0.225-0.981-0.099-1.294
		c-0.066-0.1-0.132-0.199-0.199-0.298h-0.199c-0.032-0.067-0.066-0.134-0.1-0.2c-0.224-0.14-0.523-0.101-0.798-0.199v-0.1h-0.697
		v-0.1h-1.193v-0.1h-0.995c-0.464-0.134-0.929-0.267-1.395-0.398v-0.1h-0.1c-0.063-0.19,0.335-0.681,0.397-0.798v-0.198
		c0.212-0.396,1.001-1.656,0.6-2.291c-0.066-0.033-0.132-0.066-0.2-0.101c-0.2-0.211-0.438-0.456-0.698-0.597h-0.199v-0.103h-0.199
		v-0.098h-0.299v-0.101h-0.199v-0.1h-0.299v-0.1h-0.199v-0.1c-0.166-0.031-0.331-0.066-0.499-0.099v-0.101
		c-0.199-0.032-0.399-0.066-0.597-0.1c-0.033-0.066-0.066-0.134-0.1-0.199c-0.132-0.035-0.266-0.068-0.399-0.101
		c-0.031-0.065-0.064-0.134-0.098-0.199c-0.2-0.067-0.399-0.134-0.599-0.198c-0.031-0.068-0.064-0.133-0.099-0.201h-0.2
		c-0.199-0.233-0.396-0.465-0.596-0.697c-0.166-0.151-0.25-0.081-0.399-0.299h-0.398v0.1h-0.2c-0.031,0.066-0.064,0.132-0.098,0.199
		h-0.2c-0.262,0.191-0.705,1.244-0.498,1.893h0.099V52.096z"/>
	<path fill="#FFFFFF" d="M75.389,58.171v0.101h0.398v0.1c0.498,0.033,0.994,0.064,1.495,0.098v-0.098h0.496v-0.1
		c0.166-0.032,0.333-0.066,0.499-0.101l0.1-0.2h0.2c0.133-0.166,0.264-0.332,0.398-0.496c0.066-0.035,0.133-0.068,0.199-0.101
		v-0.198c0.065-0.033,0.134-0.066,0.2-0.102c0.034-0.133,0.066-0.264,0.1-0.396h0.099c0.033-0.232,0.066-0.466,0.1-0.697h0.1
		c-0.046-1.211-0.867-1.647-1.693-2.092v-0.102c-0.199-0.064-0.398-0.133-0.599-0.198v-0.1c-0.396-0.068-0.795-0.134-1.194-0.2v-0.1
		c-0.123-0.037-0.307-0.049-0.514-0.049c-0.515,0-1.171,0.088-1.378,0.148c-0.298,0.034-0.598,0.066-0.898,0.102
		c-0.53,0.229-1.061,0.463-1.592,0.695c-0.034,0.066-0.067,0.135-0.101,0.2h-0.199c-0.034,0.065-0.068,0.132-0.099,0.198h-0.2
		c-0.066,0.102-0.133,0.199-0.2,0.3c-0.199,0.167-0.398,0.332-0.597,0.498v0.198c-0.067,0.033-0.132,0.066-0.199,0.101
		c-0.034,0.132-0.068,0.267-0.099,0.399h-0.098v0.696c0.064,0.031,0.129,0.065,0.197,0.099v0.201
		c0.199,0.064,0.398,0.131,0.598,0.198v0.099h0.498v0.101h0.298v0.101h0.399v0.1H72.5v0.1h0.498v0.1h0.399v0.101
		C74.061,57.973,74.725,58.07,75.389,58.171z"/>
	<path fill="#FFFFFF" d="M70.011,58.869V58.57h-0.099v-0.399h-0.101v-0.298h-0.099v-0.2h-0.1v-0.299h-0.1v-0.3h-0.098
		c-0.066-0.198-0.133-0.396-0.199-0.596h-0.101v-0.201h-0.1c-0.067-0.199-0.133-0.398-0.198-0.598
		c-0.066-0.031-0.134-0.064-0.2-0.099c-0.067-0.2-0.134-0.399-0.2-0.597c-0.068-0.033-0.134-0.067-0.199-0.101v-0.198h-0.1
		c-0.034-0.1-0.067-0.201-0.1-0.299h-0.2c-0.091-0.373-0.471-0.66-0.897-0.697v-0.101c-0.198,0.032-0.397,0.065-0.597,0.101v0.098
		c-0.918,0.271-0.232,1.65-0.498,2.59h-0.1v2.393h-0.1v1.693h-0.101c-0.032,0.928-0.065,1.859-0.098,2.789
		c0,0.768,0.002,2.246,0.397,2.59c0.12,0.475,0.325,0.398,0.698,0.596v0.103h0.2v0.099h0.598v0.1c0.264-0.033,0.531-0.066,0.797-0.1
		c0.171-0.199,0.23-0.084,0.398-0.199c0.1-0.133,0.199-0.266,0.3-0.398c0.064-0.032,0.13-0.066,0.198-0.1v-0.2
		c0.066-0.033,0.132-0.065,0.2-0.099v-0.199h0.1v-0.2h0.1v-0.298h0.098v-0.299h0.1v-0.198h0.1v-0.3
		c0.476-1.19,0.836-3.168,0.399-4.683v-0.597H70.011L70.011,58.869z"/>
	<path fill="#FFFFFF" d="M132.055,63.55c0.045,0.062,0.039,0.062,0.039,0.062s0.008,0,0.061,0.039c0.1-0.42,0.326-0.674,0.498-0.996
		c0.033-0.133,0.068-0.264,0.1-0.397c0.066-0.032,0.135-0.065,0.199-0.101v-0.299c0.066-0.032,0.132-0.066,0.199-0.101v-0.298
		c0.066-0.034,0.133-0.068,0.201-0.1V61.16h0.099v-0.199h0.1v-0.2h0.099v-0.2h0.099v-0.199h0.101v-0.198h0.101v-0.198h0.099v-0.199
		h0.1v-0.201h0.103v-0.199h0.097c0.033-0.133,0.067-0.266,0.1-0.397c0.068-0.032,0.134-0.067,0.199-0.1
		c0.035-0.132,0.067-0.265,0.103-0.4h0.099V58.27h0.098V58.07h0.101v-0.198h0.101v-0.2h0.101v-0.199h0.099
		c0.033-0.133,0.067-0.266,0.1-0.399c0.195-0.359,1.148-1.835,0.898-2.19c-0.033-0.563-0.291-0.64-0.5-0.996
		c-0.257-0.05-0.438-0.101-0.797-0.101c-0.225,0.256-0.705,0.392-0.996,0.6c-0.099,0.132-0.199,0.267-0.299,0.398
		c-0.297,0.266-0.596,0.53-0.896,0.797v0.2c-0.065,0.031-0.131,0.066-0.199,0.098v0.2c-0.066,0.034-0.133,0.067-0.2,0.101
		c-0.031,0.133-0.065,0.266-0.099,0.396h-0.098v0.199h-0.102c-0.066,0.201-0.133,0.399-0.2,0.599h-0.099
		c-0.101,0.433-0.198,0.864-0.301,1.295h-0.098v0.498h-0.102v0.996h-0.098v0.498h0.098v0.997
		C131.508,62.18,131.699,63.247,132.055,63.55z"/>
	<path fill="#FFFFFF" d="M127.174,66.838c-0.033-0.133-0.066-0.264-0.1-0.398c-0.066-0.032-0.131-0.064-0.198-0.099v-0.2h-0.099
		c-0.034-0.166-0.067-0.332-0.102-0.498c-0.066-0.033-0.133-0.065-0.199-0.1v-0.2h-0.1v-0.198h-0.1v-0.199h-0.1v-0.199h-0.1v-0.2
		h-0.1v-0.198h-0.101v-0.199h-0.101c-0.063-0.198-0.131-0.398-0.197-0.599h-0.1v-0.298h-0.101v-0.199h-0.101
		c-0.131-0.307-0.461-1.973-0.297-2.492h0.1v-0.297h0.1v-0.201h0.1v-0.297c0.125-0.273,0.302-0.287,0.398-0.697h0.198v-0.2
		c0.269-0.231,0.532-0.466,0.798-0.698v-0.199h0.102c-0.008-0.875-0.204-0.701-0.5-1.195c-0.166-0.033-0.332-0.068-0.5-0.1v-0.102
		h-0.795c-0.032,0.068-0.066,0.132-0.101,0.199h-0.198c-0.031,0.067-0.065,0.134-0.1,0.201h-0.199
		c-0.199,0.23-0.398,0.463-0.598,0.696h-0.199c-0.031,0.065-0.066,0.132-0.099,0.2h-0.101v0.197c-0.304,0.076-0.428,0.19-0.498,0.5
		c-0.322,0.082-0.761,0.572-0.998,0.796v0.1c-0.131,0.067-0.264,0.134-0.397,0.2c-0.033,0.1-0.065,0.197-0.101,0.3
		c-0.33,0.298-0.664,0.597-0.998,0.896v0.199c-0.164,0.133-0.33,0.267-0.496,0.398v0.199c-0.101,0.066-0.2,0.132-0.299,0.199v0.199
		c-0.1,0.066-0.199,0.133-0.299,0.2v0.197l-0.199,0.101c-0.033,0.1-0.065,0.199-0.099,0.299h-0.101
		c-0.031,0.131-0.064,0.267-0.1,0.399c-0.065,0.033-0.132,0.065-0.199,0.099c-0.031,0.131-0.065,0.268-0.1,0.399h-0.099
		c-0.066,0.2-0.132,0.397-0.199,0.597h-0.099v0.301h-0.1v0.199h-0.1v0.299h-0.102c-0.031,0.232-0.064,0.465-0.099,0.698
		c-0.163,0.495-0.565,2.229-0.099,2.688c0.133,0.234,0.296,0.428,0.597,0.498v0.101c0.397,0.034,0.797,0.065,1.196,0.099V69.13
		c0.584-0.149,0.878-0.88,1.094-1.396v-0.299c0.068-0.031,0.134-0.065,0.2-0.1v-0.298c0.067-0.034,0.133-0.067,0.2-0.101v-0.199H121
		V66.54h0.1v-0.2h0.098v-0.199h0.101v-0.199c0.068-0.032,0.134-0.065,0.2-0.099c0.365-0.663,0.73-1.329,1.095-1.995
		c0.067-0.031,0.134-0.063,0.199-0.098c0.167,0.332,0.332,0.664,0.499,0.996c0.066,0.298,0.133,0.597,0.2,0.896h0.099v0.2h0.1
		c0.1,0.298,0.199,0.597,0.299,0.896c0.1,0.066,0.197,0.134,0.299,0.199v0.199c0.068,0.034,0.132,0.066,0.197,0.102v0.099h0.199
		c0.034,0.067,0.067,0.134,0.102,0.199h0.197c0.067,0.099,0.134,0.2,0.199,0.298h0.199c0.034,0.068,0.068,0.134,0.1,0.199h0.199
		c0.035,0.066,0.068,0.134,0.1,0.201c0.199,0.033,0.398,0.065,0.598,0.098v0.102c0.559-0.027,0.721-0.226,1.096-0.399
		c0.071-0.435,0.139-0.716-0.1-1.095C127.307,66.906,127.241,66.872,127.174,66.838z"/>
	<path fill="#FFFFFF" d="M88.036,66.838c0.066-0.033,0.133-0.066,0.2-0.1c0.118-0.178,0-0.223,0.199-0.397
		c-0.051-0.813-0.32-0.661-0.796-0.998c-0.101-0.132-0.201-0.265-0.3-0.397H87.14c-0.266-0.299-0.53-0.598-0.797-0.896
		c-0.133-0.098-0.264-0.199-0.398-0.298v-0.2c-0.066-0.033-0.134-0.068-0.199-0.1v-0.198c-0.067-0.034-0.134-0.067-0.2-0.101v-0.299
		h-0.101v-0.199h-0.098v-0.297h-0.1c-0.112-0.35,0.037-0.998,0.1-1.196c0.034-0.233,0.067-0.468,0.098-0.697h0.101
		c0.033-0.132,0.065-0.269,0.1-0.399h0.1v-0.199c0.065-0.032,0.133-0.065,0.199-0.098v-0.201c0.134-0.101,0.265-0.199,0.398-0.297
		V59.07c0.1-0.066,0.2-0.133,0.299-0.2c0.165-0.199,0.332-0.4,0.498-0.599c-0.009-1.021-0.353-1.011-0.697-1.592
		c-0.394,0.012-0.646,0.033-0.896,0.198c-0.066,0.101-0.132,0.198-0.199,0.299c-0.1,0.032-0.199,0.066-0.299,0.099
		c-0.067,0.101-0.132,0.201-0.199,0.3h-0.2c-0.1,0.132-0.2,0.266-0.299,0.397h-0.2c-0.099,0.133-0.197,0.268-0.298,0.399h-0.199
		c-0.064,0.098-0.132,0.2-0.2,0.298h-0.197c-0.1,0.133-0.199,0.268-0.299,0.398c-0.1,0.033-0.198,0.066-0.298,0.1
		c-0.034,0.066-0.067,0.133-0.1,0.199h-0.2c-0.101,0.132-0.2,0.268-0.298,0.4h-0.199c-0.034,0.065-0.066,0.131-0.1,0.199h-0.2
		c-0.1,0.133-0.198,0.264-0.297,0.396l-0.3,0.101c-0.034,0.065-0.066,0.132-0.1,0.198h-0.198c-0.134,0.167-0.266,0.333-0.399,0.499
		c-0.486,0.351-1.087,0.675-1.395,1.196h-0.198v0.199h-0.2c-0.133,0.166-0.266,0.332-0.398,0.498
		c-0.398,0.366-0.795,0.731-1.195,1.096v0.199c-0.166,0.133-0.332,0.267-0.498,0.398v0.199c-0.1,0.066-0.2,0.133-0.298,0.199v0.198
		c-0.099,0.066-0.199,0.134-0.299,0.2v0.198c-0.066,0.032-0.133,0.067-0.2,0.102c-0.033,0.099-0.067,0.198-0.098,0.298h-0.1
		c-0.034,0.133-0.066,0.267-0.099,0.399c-0.067,0.034-0.134,0.065-0.2,0.099v0.199c-0.066,0.034-0.134,0.068-0.2,0.1v0.199
		c-0.067,0.034-0.132,0.066-0.198,0.102v0.199h-0.1c-0.178,0.32-0.473,1.276-0.3,1.892h0.101v0.598
		c0.166,0.233,0.332,0.466,0.497,0.698c0.2,0.033,0.4,0.066,0.599,0.1v0.1h0.498v-0.1c0.165-0.033,0.331-0.066,0.496-0.1
		c0.166-0.2,0.332-0.398,0.498-0.598V69.73h0.102v-0.199c0.064-0.032,0.132-0.065,0.199-0.1v-0.199c0.132-0.1,0.263-0.2,0.397-0.299
		c0.032-0.065,0.066-0.133,0.099-0.199h0.2c0.099-0.133,0.198-0.265,0.298-0.4h0.199c0.033-0.064,0.066-0.132,0.1-0.199
		c0.297-0.264,0.597-0.529,0.896-0.796v-0.198h0.198v-0.199c0.1-0.032,0.2-0.066,0.3-0.101c0.132-0.166,0.264-0.332,0.397-0.498h0.2
		c0.033-0.065,0.065-0.132,0.1-0.2h0.198v-0.1h0.2v-0.1h0.299v-0.099h0.198v-0.102c0.433,0.032,0.865,0.067,1.295,0.102v0.099h0.3
		v0.1h0.198c0.034,0.066,0.064,0.133,0.099,0.2h0.2c0.033,0.065,0.067,0.134,0.101,0.198h0.199c0.065,0.102,0.133,0.199,0.197,0.299
		c0.397,0.389,0.664,0.533,1.196,0.797v0.099h0.298v0.101c0.165,0.035,0.333,0.067,0.498,0.1c0.149,0.064,0.399,0.34,0.798,0.199
		c0.232-0.165,0.465-0.331,0.697-0.498v-0.199c0.133-0.1,0.267-0.199,0.397-0.298L88.036,66.838L88.036,66.838z"/>
	<path fill="#FFFFFF" d="M95.008,59.466v-0.397c-0.066-0.033-0.132-0.065-0.2-0.1V58.77h-0.2c-0.033-0.066-0.064-0.134-0.098-0.199
		c-0.231,0.035-0.465,0.065-0.697,0.1v0.199c-0.066,0.033-0.132,0.066-0.199,0.1v1.893h-0.1v0.199
		c-0.025,0.043-0.139,0.088-0.199,0.198c-0.349,0.079-1.728,0.543-2.091,0.2c-0.1-0.034-0.2-0.068-0.3-0.1
		c-0.1-0.332-0.198-0.666-0.296-0.998v-0.695h-0.101v-1.294c-0.087-0.304-0.188-0.819-0.2-1.195h-0.2v-0.198
		c-0.186-0.021-0.326-0.06-0.452-0.06c-0.119,0-0.225,0.035-0.343,0.157c-0.731,0.422-0.415,1.017-0.2,1.695v0.498h0.1v6.076
		c0.165-0.133,0.332-0.266,0.498-0.398v-0.199h0.1c0.033-0.068,0.065-0.132,0.1-0.2h0.197c0.101-0.132,0.2-0.264,0.301-0.397h0.2
		c0.031-0.066,0.064-0.133,0.098-0.198h0.198V63.85h0.398v-0.1h0.598c0.278,0.085,0.488,0.314,0.796,0.398
		c0.034,0.134,0.068,0.266,0.101,0.397h0.1c0.103,0.333-0.328,1.076-0.398,1.297c-0.033,0.331-0.066,0.663-0.1,0.995
		c-0.167,0.034-0.332,0.068-0.499,0.1v0.101h-0.299c-0.032,0.065-0.066,0.132-0.1,0.198h-0.298v0.1
		c-0.2,0.068-0.399,0.135-0.596,0.199v0.099c-0.301,0.067-0.598,0.136-0.897,0.199c-0.034,0.067-0.066,0.134-0.1,0.199h-0.298
		c-0.034,0.067-0.066,0.134-0.1,0.2h-0.2c-0.032,0.066-0.066,0.131-0.1,0.201h-0.2v0.098c-0.132,0.101-0.264,0.199-0.397,0.3v0.198
		c-0.066,0.033-0.132,0.066-0.2,0.101v0.198h-0.1v0.199h-0.098v0.301h-0.1v0.596h-0.1c0.034,0.2,0.067,0.399,0.1,0.6
		c0.111,0.27,0.441,0.362,0.598,0.596c0.234,0.033,0.466,0.066,0.697,0.1v0.1c0.595,0.178,1.183-0.146,1.495-0.299
		c0.132-0.033,0.265-0.065,0.396-0.1c0.167-0.199,0.332-0.398,0.498-0.598c0.1-0.033,0.2-0.065,0.3-0.1v-0.199
		c0.065-0.033,0.133-0.067,0.198-0.102v-0.099c0.134-0.099,0.266-0.2,0.4-0.3c0.033-0.164,0.067-0.332,0.1-0.498h0.099v-0.199
		c0.199-0.164,0.398-0.332,0.598-0.497c0.115-0.167,0.002-0.226,0.198-0.397c0.017-0.695,0.017-1.33-0.398-1.595
		c0.1-0.298,0.2-0.599,0.299-0.897c0.067-0.031,0.133-0.064,0.199-0.098c0.1-0.3,0.199-0.6,0.299-0.898h0.1
		c0.034-0.131,0.067-0.267,0.1-0.398h0.099c0.265-0.896,0.531-1.792,0.797-2.688v-0.6c0.094-0.32,0.34-1.318,0.2-1.793
		L95.008,59.466L95.008,59.466z M91.92,69.129c-0.261,0.148-0.551,0.436-0.697,0.698c-0.015,0-0.029,0-0.043,0
		c-1.205,0-0.892-1.06-0.257-1.396V68.33c0.19-0.066,0.292,0.145,0.398,0.199v0.201c0.199,0.033,0.399,0.066,0.598,0.1L91.92,69.129
		L91.92,69.129z"/>
	<path fill="#FFFFFF" d="M62.642,60.563c0.305-0.264,0.488-0.848,0.1-1.195c-0.131-0.481-0.257-0.284-0.597-0.497
		c-0.034-0.065-0.067-0.132-0.1-0.199h-0.3v-0.099h-0.298v-0.102h-0.3v-0.099H60.75v-0.101h-0.3v-0.1h-0.298v-0.1h-0.399
		c-1.517-0.502-3.874-0.848-6.119-0.848c-1.4,0-2.758,0.135-3.841,0.45h-0.597v0.099h-0.397v0.102
		c-0.233,0.033-0.466,0.066-0.697,0.098v0.101h-0.2v0.1h-0.298v0.101c-0.133,0.033-0.267,0.065-0.399,0.1
		c-0.034,0.064-0.067,0.132-0.099,0.2h-0.2c-0.034,0.099-0.067,0.198-0.099,0.298c-0.1,0.066-0.2,0.133-0.3,0.199v0.199H46.41
		c-0.221,0.483-0.106,1.431,0.198,1.693c0.13,0.473,0.42,0.482,0.797,0.697v0.099h0.199v0.101h0.198v0.1h0.201v0.1h0.199v0.1H48.5
		v0.101h0.2v0.101c0.199,0.065,0.397,0.132,0.595,0.199v0.1h0.301v0.1h0.994v-0.1h0.399v-0.1c0.131-0.035,0.265-0.067,0.398-0.102
		v-0.098c0.2-0.034,0.398-0.067,0.598-0.101v-0.101h0.2v-0.1c0.298-0.065,0.598-0.132,0.895-0.199
		c1.549-0.607,3.181-0.896,5.379-0.896v0.298c-0.276,0.06-0.48,0.155-0.698,0.3c-0.034,0.065-0.068,0.133-0.099,0.198h-0.2
		c-0.067,0.101-0.133,0.2-0.2,0.3h-0.199c-0.068,0.1-0.132,0.2-0.198,0.299h-0.199c-0.067,0.099-0.133,0.199-0.2,0.299
		c-0.231,0.199-0.464,0.398-0.696,0.598v0.198c-0.133,0.1-0.266,0.198-0.397,0.3v0.2c-0.068,0.032-0.134,0.063-0.201,0.098v0.2
		c-0.067,0.033-0.133,0.064-0.199,0.098v0.199c-0.067,0.034-0.132,0.068-0.198,0.102c-0.034,0.133-0.067,0.265-0.099,0.396
		c-0.068,0.034-0.134,0.066-0.2,0.102v0.297h-0.099v0.201h-0.099c-0.034,0.131-0.068,0.266-0.101,0.396h-0.1
		c-0.034,0.2-0.067,0.398-0.099,0.598c-0.164,0.413-0.623,1.172-0.398,1.893h0.1c0.031,0.199,0.065,0.398,0.099,0.599h0.1
		c0.032,0.099,0.066,0.198,0.101,0.297c0.23,0.064,0.236,0.091,0.398,0.2v0.1h0.398v0.102c0.299,0.086,1.711-0.391,1.892-0.5
		c0.033-0.064,0.067-0.133,0.101-0.198c0.13-0.034,0.263-0.067,0.396-0.101v-0.1c0.1-0.033,0.2-0.064,0.299-0.099
		c0.033-0.065,0.066-0.133,0.1-0.199h0.199c0.132-0.165,0.266-0.332,0.398-0.499c0.265-0.23,0.53-0.465,0.795-0.695
		c0.689-0.97,1.095-2.237,1.495-3.485v-0.5c0.085-0.269,0.331-0.718,0.2-1.194h-0.1v-0.797h0.1c0.132-0.339-0.075-0.174,0.199-0.398
		v-0.1c0.598-0.1,1.196-0.199,1.793-0.3L62.642,60.563L62.642,60.563z M57.86,66.041c-0.067,0.034-0.133,0.066-0.198,0.1
		c-0.133,0.166-0.267,0.332-0.399,0.498h-0.199v0.1c-0.124,0.095-0.193,0.072-0.296,0.199c-0.521-0.01-0.391-0.035-0.697-0.199
		c0.014-1.248,0.672-1.668,1.293-2.29c0.199-0.233,0.398-0.466,0.597-0.698c0.108-0.102,0.192-0.073,0.299-0.2
		c0.065,0.034,0.131,0.068,0.199,0.099C58.438,64.441,58.188,65.555,57.86,66.041z"/>
	<path fill="#FFFFFF" d="M117.514,61.061c0.199-0.033,0.399-0.066,0.6-0.1v-0.1c0.191-0.123,0.246-0.229,0.297-0.5
		c-2.535,0.046-4.586,0.756-6.572,1.396c-0.696,0.068-1.393,0.136-2.09,0.2v0.1h-0.499v0.1h-0.498v0.101h-0.398v0.101h-0.498v0.098
		h-0.299v0.102h-0.398v0.1h-0.299v0.1h-0.398v0.1h-0.399v0.101h-0.398v0.101h-0.399v0.098h-0.598
		c-1.213,0.356-2.771,0.199-3.784-0.198c-0.424-0.167-0.832-0.187-1.095-0.5h-0.797c-0.033,0.067-0.066,0.134-0.1,0.201
		c-0.1,0.032-0.2,0.065-0.3,0.1v0.199c-0.098,0.065-0.198,0.132-0.298,0.198c-0.032,0.168-0.066,0.332-0.1,0.498h-0.1v0.697h0.1
		c0.212,0.771,1.417,0.969,2.192,1.196h0.796v0.101c0.634,0.177,2.542-0.073,2.986-0.201h0.697v-0.1h0.498v-0.101h0.498v-0.099
		h0.399v-0.101h0.498v-0.099c0.233-0.033,0.466-0.067,0.697-0.1v-0.1h0.299v-0.1h0.298v-0.102h0.399
		c0.466-0.166,0.891-0.464,1.493-0.498c-0.01,1.258-0.152,2.113-0.498,2.989c-0.032,0.198-0.066,0.397-0.1,0.596h-0.1
		c-0.033,0.136-0.067,0.267-0.101,0.398h-0.098c-0.1,0.298-0.2,0.599-0.299,0.897c-0.065,0.033-0.132,0.065-0.2,0.098v0.201h-0.099
		c-0.032,0.099-0.066,0.198-0.1,0.299c-0.066,0.033-0.132,0.065-0.199,0.1v0.2c-0.067,0.032-0.133,0.065-0.199,0.098v0.101
		c-0.064,0.033-0.132,0.066-0.199,0.1v0.2c-0.132,0.099-0.267,0.2-0.4,0.299v0.199c-0.164,0.132-0.33,0.266-0.497,0.399
		c-0.3,0.332-0.598,0.664-0.897,0.994c-0.285,0.206-0.4,0.155-0.598,0.499h-0.2c-0.074,0.259-0.155,0.32-0.298,0.498h-0.1
		c-0.032,0.134-0.066,0.267-0.1,0.397c-0.064,0.035-0.13,0.068-0.197,0.101c-0.034,0.134-0.068,0.267-0.102,0.397h-0.098v0.201
		h-0.102c-0.064,0.198-0.132,0.397-0.2,0.596h-0.098v0.302h-0.098c-0.123,0.368,0.059,1.06,0.196,1.194
		c0.098,0.392,0.695,0.906,1.097,0.996c0.168,0.156,1.264,0.326,1.693,0.197v-0.1h0.398v-0.1h0.198v-0.099h0.299v-0.103h0.2v-0.098
		h0.199c0.033-0.067,0.067-0.134,0.1-0.199h0.199c0.034-0.065,0.067-0.133,0.1-0.199h0.199c0.167-0.199,0.333-0.399,0.497-0.6
		c0.134-0.1,0.268-0.199,0.4-0.299v-0.199c0.133-0.099,0.267-0.196,0.397-0.297v-0.199c0.068-0.033,0.134-0.065,0.2-0.101
		c0.033-0.103,0.067-0.2,0.1-0.299h0.1c0.068-0.199,0.134-0.397,0.198-0.599c0.068-0.033,0.132-0.065,0.2-0.1v-0.197h0.098v-0.201
		h0.102v-0.2h0.098V73.21h0.102v-0.2h0.098v-0.197h0.099c0.067-0.2,0.133-0.398,0.2-0.599h0.1v-0.299h0.1v-0.199h0.1
		c0.034-0.198,0.067-0.397,0.098-0.598h0.1v-0.2h0.1v-0.396h0.1v-0.399h0.1v-0.399h0.098v-0.397h0.1
		c0.034-0.597,0.068-1.195,0.1-1.792h0.1v-0.697h0.1v-0.398h0.1v-0.498h0.1v-0.299h0.098v-0.3h0.101v-0.299h0.1v-0.198h0.1v-0.3h0.1
		v-0.198h0.099v-0.199c0.068-0.032,0.134-0.066,0.199-0.101v-0.2c0.068-0.031,0.134-0.063,0.2-0.098v-0.2
		c0.067-0.032,0.132-0.067,0.199-0.1V63.25c0.133-0.102,0.267-0.199,0.398-0.299c0.233-0.266,0.466-0.531,0.698-0.797h0.199
		c0.067-0.1,0.133-0.199,0.199-0.299c0.132-0.032,0.266-0.066,0.398-0.101v-0.099h0.2v-0.1c0.199-0.065,0.399-0.134,0.598-0.199
		v-0.101h0.396V61.16h0.2v-0.1H117.514z M108.053,75.105c-0.164,0.033-0.331,0.065-0.498,0.101v0.099
		c-0.241-0.063-0.218-0.104-0.398-0.199c-0.005-1.109,0.431-1.867,1.096-2.291h0.199v-0.1h0.199v-0.1
		c0.167-0.033,0.333-0.066,0.497-0.1v-0.099c0.301,0.067,0.379,0.181,0.6,0.298C109.697,73.991,108.873,74.6,108.053,75.105z"/>
	<path fill="#FFFFFF" d="M129.066,72.417h0.201v0.099h0.197v0.1c0.2,0.033,0.396,0.064,0.598,0.1v0.1h0.599
		c0.198-0.332,0.397-0.664,0.597-0.996V71.52h0.1v-0.297h0.101V70.92h0.099c0.278-0.818,0.125-2.197,0.102-3.186
		c-0.012-0.407-0.284-1.453,0-1.793v-0.498c-0.092-0.189-0.666-0.397-0.996-0.399c-0.174,0.197-0.232,0.084-0.4,0.199
		c-0.099,0.134-0.197,0.267-0.298,0.399h-0.101v0.2c-0.096,0.066-0.197,0.132-0.297,0.198v0.2c-0.066,0.034-0.133,0.065-0.198,0.1
		c-0.034,0.099-0.068,0.2-0.101,0.298h-0.1v0.199h-0.102c-0.03,0.1-0.063,0.2-0.099,0.298c-0.1,0.066-0.198,0.134-0.299,0.199
		c-0.065,0.199-0.133,0.399-0.2,0.597c-0.066,0.035-0.131,0.067-0.197,0.101c-0.033,0.167-0.066,0.331-0.101,0.497h-0.099v0.201
		h-0.1v0.498h-0.101v0.696h-0.101c-0.057,0.205,0.139,1.257,0.201,1.396h0.1v0.199c0.066,0.034,0.133,0.066,0.199,0.1v0.199
		C128.536,72.018,128.803,72.216,129.066,72.417z"/>
	<path fill="#FFFFFF" d="M134.543,72.814c0.034-0.101,0.066-0.2,0.1-0.301c0.067-0.031,0.133-0.063,0.201-0.098v-0.2
		c0.098-0.065,0.197-0.132,0.299-0.2v-0.199c0.131-0.099,0.265-0.198,0.396-0.297v-0.201c0.1-0.064,0.199-0.133,0.298-0.198v-0.2
		c0.134-0.1,0.267-0.197,0.399-0.297v-0.2c0.102-0.065,0.199-0.132,0.298-0.198v-0.199c0.067-0.032,0.133-0.066,0.2-0.101v-0.2
		c0.066-0.031,0.134-0.065,0.201-0.099v-0.2c0.066-0.033,0.131-0.064,0.196-0.1v-0.198c0.067-0.034,0.134-0.067,0.201-0.101
		c0.032-0.133,0.065-0.264,0.099-0.397c0.099-0.067,0.199-0.133,0.299-0.198v-0.199c0.098-0.066,0.197-0.133,0.297-0.201
		c0.383-0.387,0.779-0.855,0.897-1.492h-0.1c-0.035-0.166-0.068-0.332-0.099-0.5c-0.068-0.032-0.135-0.066-0.201-0.1v-0.2
		c-0.232-0.165-0.465-0.332-0.698-0.498c-0.163-0.073-0.837-0.144-1.358-0.144c-0.224,0-0.419,0.012-0.531,0.045v0.098h-0.5v0.1
		h-0.299v0.102h-0.396v0.1h-0.401c-0.692,0.227-1.198,0.355-1.493,0.997h-0.1v0.099h3.189c-0.058,0.498-0.315,0.654-0.5,0.995
		c-0.033,0.136-0.066,0.267-0.101,0.398c-0.065,0.034-0.132,0.067-0.198,0.1c-0.068,0.199-0.133,0.398-0.201,0.599
		c-0.064,0.035-0.131,0.067-0.196,0.101c-0.068,0.198-0.134,0.397-0.202,0.597h-0.1c-0.032,0.102-0.066,0.2-0.1,0.299
		c-0.066,0.033-0.131,0.067-0.199,0.103v0.198h-0.1c-0.032,0.1-0.066,0.199-0.1,0.299c-0.067,0.033-0.133,0.066-0.2,0.099v0.2
		c-0.099,0.066-0.197,0.133-0.298,0.199v0.199c-0.133,0.1-0.267,0.199-0.399,0.299v0.199c-0.229,0.199-0.464,0.398-0.696,0.598
		c-0.098,0.134-0.199,0.267-0.299,0.398h-0.197c-0.035,0.066-0.068,0.133-0.102,0.199c-0.098,0.034-0.2,0.067-0.297,0.1v0.101h-0.2
		c-0.034,0.065-0.067,0.131-0.103,0.2c-0.131,0.033-0.262,0.066-0.396,0.099c-0.032,0.067-0.065,0.134-0.099,0.199h-0.301
		c-0.031,0.067-0.065,0.134-0.101,0.2c-0.13,0.033-0.264,0.066-0.397,0.1v0.102h-0.197v0.098h-0.2v0.1h-0.198v0.1h-0.3v0.1h-0.198
		v0.102c-0.101,0.033-0.201,0.065-0.3,0.099c-0.032,0.2-0.067,0.397-0.101,0.599h0.101c0.063,0.242,0.106,0.221,0.2,0.399
		c2.003,0.36,4.805,0.655,6.672,0c0.332-0.067,0.665-0.136,0.998-0.199v-0.101c0.197-0.065,0.396-0.133,0.598-0.201v-0.1h0.196
		V74.71c0.134-0.032,0.267-0.065,0.397-0.101c0.067-0.1,0.135-0.199,0.201-0.299c0.412-0.289,0.944-0.443,1.096-0.996
		c-0.232-0.032-0.467-0.066-0.697-0.101v-0.099c-0.326-0.09-0.799,0.142-0.997,0.197h-2.987c0.072-0.256,0.154-0.322,0.297-0.498
		H134.543L134.543,72.814z"/>
	<path fill="#FFFFFF" d="M72.202,68.83c-0.034-0.066-0.067-0.133-0.1-0.199h-0.199v-0.102c-0.2-0.063-0.398-0.131-0.598-0.199
		v-0.098c-0.2-0.034-0.398-0.066-0.598-0.102v-0.1h-0.398v-0.1c-0.231-0.031-0.464-0.064-0.696-0.1
		c-0.833-0.281-1.625-0.405-2.69-0.498c-0.332-0.033-0.665-0.064-0.995-0.1v0.1h-1.095c-0.578,0.166-1.3,0.329-1.894,0.498h-0.696
		v0.1h-0.298v0.1c-0.099,0.033-0.2,0.066-0.298,0.1c-0.061,0.199,0.014,0.086-0.1,0.199v0.896h0.1v0.199h0.099
		c0.032,0.135,0.066,0.268,0.101,0.4c0.065,0.033,0.132,0.064,0.199,0.098c0.066,0.1,0.13,0.199,0.198,0.301
		c0.318,0.225,1.382,0.618,2.091,0.397v-0.099h0.299v-0.103h0.498v-0.099h0.498v-0.1h0.597v-0.101h0.797v-0.101h0.597v-0.1
		c0.327-0.093,1.399-0.098,1.695,0v0.1h0.298v0.101h0.198v0.101c0.101,0.066,0.2,0.133,0.301,0.198c0.064,0.419,0.138,0.776,0,1.195
		v0.397h-0.101v0.2h-0.099c-0.067,0.332-0.135,0.665-0.2,0.996h-0.1c-0.034,0.133-0.066,0.267-0.1,0.397h-0.098v0.201h-0.1
		c-0.034,0.198-0.067,0.396-0.1,0.597h-0.101c0.032,0.2,0.066,0.397,0.101,0.599h0.1c0.201,0.251,0.673,0.708,1.292,0.498v-0.1
		c0.134-0.033,0.265-0.066,0.398-0.101v-0.198h0.2c0.033-0.101,0.065-0.201,0.099-0.301h0.1v-0.197h0.101v-0.2
		c0.064-0.032,0.131-0.064,0.198-0.099v-0.201h0.1V73.91h0.101v-0.2h0.099v-0.199h0.1v-0.198h0.1v-0.198h0.099v-0.2H72.4
		c0.458-0.859,0.627-1.839,0.598-3.188c-0.2-0.3-0.398-0.597-0.598-0.896H72.202z"/>
	<path fill="#FFFFFF" d="M157.949,44.326c0.429-0.02,0.785-0.135,1.094-0.297v-0.101h0.2v-0.099c0.131-0.033,0.265-0.068,0.397-0.1
		c0.032-0.066,0.065-0.134,0.101-0.2h0.198v-0.1h0.199V43.33h0.199v-0.101h0.199V43.13c0.531-0.233,1.063-0.465,1.595-0.697
		c0.031-0.067,0.063-0.133,0.099-0.199c0.133-0.034,0.266-0.067,0.399-0.099c0.034-0.068,0.063-0.136,0.099-0.2h0.201
		c0.064-0.1,0.133-0.199,0.199-0.299h0.2c0.097-0.133,0.198-0.266,0.297-0.398h0.201c0.233-0.267,0.464-0.532,0.696-0.797
		c0.297-0.266,0.596-0.533,0.896-0.797v-0.2c0.133-0.098,0.266-0.2,0.396-0.298v-0.199c0.065-0.034,0.134-0.068,0.197-0.098
		c0.034-0.136,0.068-0.268,0.103-0.4c0.065-0.034,0.132-0.067,0.198-0.1c0.033-0.133,0.065-0.266,0.1-0.397h0.1
		c0.066-0.2,0.135-0.4,0.198-0.6h0.101v-0.298h0.1v-0.2h0.1c0.032-0.233,0.064-0.464,0.1-0.697h0.1
		c0.133-0.664,0.264-1.328,0.398-1.992c0.031-0.667,0.017-1.478-0.299-1.793c-0.25-0.441-0.653-0.6-1.336-0.6
		c-0.052,0-0.104,0.001-0.158,0.003v0.1c-0.166,0.032-0.332,0.065-0.498,0.099v0.1h-0.2v0.099h-0.199v0.1h-0.198v0.1
		c-0.1,0.034-0.199,0.067-0.299,0.101c-0.033,0.066-0.066,0.132-0.1,0.199h-0.2v0.099c-0.099,0.033-0.198,0.066-0.297,0.1
		c-0.035,0.066-0.066,0.132-0.101,0.199h-0.201c-0.101,0.132-0.197,0.265-0.297,0.398h-0.201c-0.033,0.066-0.067,0.132-0.1,0.199
		h-0.199c-0.134,0.166-0.266,0.332-0.398,0.498h-0.198c-0.267,0.298-0.532,0.598-0.797,0.896c-0.333,0.3-0.664,0.598-0.997,0.896
		v0.199c-0.133,0.1-0.264,0.2-0.398,0.299v0.198c-0.065,0.034-0.133,0.067-0.199,0.102v0.198c-0.1,0.066-0.2,0.134-0.301,0.2v0.198
		c-0.066,0.034-0.131,0.068-0.197,0.102c-0.067,0.198-0.133,0.397-0.2,0.595h-0.101v0.2h-0.098
		c-0.068,0.199-0.133,0.399-0.199,0.599h-0.099v0.297h-0.103v0.2h-0.099v0.298c-0.37,0.852-0.637,1.917-0.698,3.087
		c-0.016,0.332-0.25,0.91,0,1.195C157.747,44.27,157.777,44.113,157.949,44.326z"/>
	<path fill="#FFFFFF" d="M148.885,58.171h0.399V58.07h0.2v-0.1c0.297-0.064,0.597-0.131,0.896-0.199v-0.099h0.199v-0.1h0.299v-0.101
		c0.198-0.068,0.397-0.133,0.597-0.199v-0.1h0.199v-0.102h0.299v-0.098c0.196-0.067,0.396-0.134,0.598-0.201v-0.099h0.199v-0.102
		h0.198v-0.099c0.134-0.033,0.265-0.066,0.399-0.101v-0.099c0.164-0.033,0.33-0.067,0.498-0.101c0.033-0.065,0.066-0.132,0.1-0.198
		c0.133-0.033,0.266-0.066,0.398-0.102v-0.098h0.199v-0.102h0.201v-0.099h0.197v-0.101h0.2v-0.1h0.2
		c0.029-0.066,0.063-0.132,0.098-0.2c0.134-0.032,0.266-0.065,0.398-0.098v-0.101h0.201v-0.1h0.197v-0.1h0.2v-0.1h0.2
		c0.033-0.068,0.066-0.134,0.101-0.201h0.198v-0.098h0.199v-0.1h0.199v-0.1h0.198v-0.101h0.2c0.034-0.065,0.066-0.132,0.1-0.199h0.2
		v-0.101h0.197v-0.098h0.2v-0.101h0.199v-0.101h0.199v-0.099h0.198v-0.101h0.2v-0.1h0.197V53.09h0.201v-0.098
		c0.133-0.035,0.266-0.068,0.398-0.1v-0.101c0.133-0.034,0.266-0.067,0.398-0.099v-0.103h0.199v-0.098h0.299v-0.101h0.199
		c0.266-0.14,0.346-0.289,0.797-0.3c0.039,0.388,0.315,0.919,0.498,1.195c0.065,0.034,0.133,0.067,0.199,0.101v0.198
		c0.1,0.065,0.2,0.132,0.299,0.198v0.199c0.166,0.134,0.332,0.269,0.496,0.4c0.035,0.098,0.067,0.2,0.102,0.299h0.1
		c0.034,0.066,0.066,0.131,0.102,0.198h0.199c0.197,0.232,0.396,0.466,0.596,0.697h0.201c0.064,0.099,0.131,0.2,0.197,0.298h0.199
		c0.033,0.068,0.068,0.135,0.102,0.2c0.199,0.067,0.396,0.132,0.596,0.2c0.033,0.066,0.065,0.132,0.101,0.199
		c0.132,0.035,0.265,0.066,0.397,0.099v0.102c0.134,0.031,0.266,0.065,0.397,0.099v0.101c0.433,0.101,0.863,0.198,1.296,0.299v0.099
		h1.793c0.266-0.133,0.531-0.264,0.797-0.397c0.059-0.199-0.016-0.086,0.098-0.199c-0.014-1.079-0.838-1.735-1.395-2.29
		c-0.265-0.301-0.531-0.601-0.796-0.897c-1.307-0.927-3.333-1.831-5.577-1.794c0.144-1.189,1.529-1.448,1.793-2.489h0.098
		c0.101-0.161,0.072-1,0-1.194h-0.098v-0.301h-0.1v-0.199c-0.066-0.031-0.134-0.066-0.2-0.1c-0.034-0.132-0.065-0.266-0.1-0.396
		c-0.066-0.033-0.134-0.067-0.2-0.101v-0.2c-0.1-0.066-0.198-0.131-0.297-0.199v-0.199h-0.1c-0.102-0.133-0.201-0.266-0.302-0.397
		h-0.196c-0.101-0.134-0.201-0.267-0.299-0.397h-0.201v-0.1c-0.197-0.068-0.397-0.134-0.596-0.199v-0.101h-0.299v-0.101h-0.199v-0.1
		c-0.598-0.033-1.195-0.066-1.793-0.1v-0.1h-0.598v0.1h-1.493v0.1h-0.797v0.1h-0.599v0.101h-0.297v0.101
		c-0.299,0.031-0.6,0.065-0.897,0.098c-0.797,0.267-1.595,0.533-2.39,0.8v0.098c-0.201,0.066-0.4,0.134-0.602,0.2v0.098h-0.197
		v0.103h-0.199v0.098h-0.199v0.101h-0.197v0.1h-0.199v0.1h-0.201c-0.033,0.066-0.067,0.133-0.099,0.198
		c-0.133,0.033-0.267,0.067-0.399,0.101c-0.033,0.066-0.067,0.133-0.1,0.199h-0.197v0.1h-0.199v0.1h-0.201v0.1h-0.2
		c-0.034,0.064-0.067,0.133-0.099,0.201h-0.199v0.098c-0.1,0.065-0.199,0.132-0.299,0.199c-0.061,0.199,0.013,0.086-0.101,0.199
		c-0.021,0.858,0.228,1.441,0.896,1.594c0.215,0.195,0.574,0.094,0.898,0.199c1.057,0.342,2.105,0.074,3.086-0.199
		c0.889-0.25,1.528,0.283,2.092,0.397c-0.104,0.386-0.226,0.3-0.498,0.5c-0.1,0.131-0.199,0.265-0.299,0.397h-0.199
		c-0.065,0.1-0.133,0.199-0.199,0.299h-0.199c-0.035,0.064-0.066,0.133-0.102,0.199h-0.197c-0.066,0.101-0.135,0.199-0.2,0.299
		h-0.198c-0.035,0.066-0.068,0.133-0.101,0.199h-0.199c-0.032,0.066-0.067,0.131-0.101,0.197l-0.299,0.102
		c-0.065,0.1-0.133,0.199-0.201,0.3h-0.196c-0.067,0.098-0.134,0.198-0.201,0.298h-0.2c-0.068,0.102-0.132,0.2-0.197,0.299h-0.198
		c-0.068,0.1-0.136,0.198-0.2,0.299h-0.199c-0.133,0.168-0.266,0.334-0.398,0.5h-0.198c-0.133,0.164-0.267,0.332-0.399,0.498
		c-0.312,0.225-0.471,0.151-0.597,0.598h-0.202c-0.133,0.166-0.263,0.332-0.396,0.498h-0.1v0.199
		c-0.234,0.198-0.466,0.396-0.697,0.598v0.199c-0.101,0.065-0.201,0.133-0.301,0.199v0.198c-0.098,0.065-0.199,0.134-0.297,0.2
		v0.197h-0.1c-0.176,0.299-0.249,0.584-0.498,0.8v0.098h0.002C147.883,58.604,148.417,58.343,148.885,58.171z"/>
	<path fill="#FFFFFF" d="M182.746,61.757c0.033-0.065,0.066-0.133,0.1-0.198h0.199c0.066-0.1,0.135-0.199,0.199-0.3h0.199
		c0.065-0.099,0.133-0.198,0.199-0.298h0.197c0.102-0.132,0.2-0.268,0.301-0.398h0.199c0.1-0.133,0.198-0.266,0.297-0.398h0.201
		c0.1-0.133,0.199-0.266,0.299-0.396h0.198c0.099-0.133,0.199-0.269,0.298-0.4h0.199c0.133-0.166,0.268-0.331,0.4-0.497h0.199V58.77
		c0.1-0.065,0.197-0.133,0.297-0.197c0.033-0.068,0.066-0.135,0.101-0.2h0.2c0.166-0.2,0.332-0.399,0.498-0.599h0.199
		c0.063-0.1,0.131-0.198,0.199-0.299c0.198-0.166,0.397-0.332,0.596-0.498h0.101c-0.021,0.782-0.206,1.475-0.397,2.092
		c-0.033,0.332-0.066,0.664-0.101,0.996h-0.101v0.597c-0.178,0.592-0.317,1.401-0.498,1.993c-0.033,0.363-0.065,0.73-0.1,1.096
		c-0.352,1.145-0.438,2.547-0.797,3.686v0.498c-0.191,0.611-0.304,1.479-0.498,2.092c-0.113,0.367,0.02,0.744-0.199,0.998v0.498
		h0.101c0.062-0.223,0.082-0.25,0.2-0.399h0.098c0.034-0.099,0.066-0.2,0.102-0.299c0.065-0.033,0.133-0.065,0.197-0.101v-0.197
		c0.1-0.068,0.199-0.135,0.299-0.2v-0.2c0.066-0.033,0.135-0.066,0.198-0.1v-0.198c0.101-0.068,0.2-0.134,0.3-0.2v-0.2
		c0.066-0.032,0.133-0.065,0.199-0.1c0.034-0.132,0.064-0.267,0.1-0.397c0.064-0.033,0.133-0.065,0.199-0.1v-0.199
		c0.064-0.033,0.133-0.066,0.199-0.101v-0.2c0.066-0.032,0.133-0.064,0.199-0.098v-0.201h0.101v-0.199
		c0.063-0.032,0.132-0.064,0.198-0.1c0.034-0.131,0.066-0.265,0.1-0.398c0.066-0.033,0.133-0.064,0.201-0.1
		c0.064-0.198,0.133-0.398,0.199-0.598c0.064-0.033,0.132-0.064,0.199-0.099v-0.2h0.1v-0.197h0.1v-0.199h0.101v-0.2h0.101v-0.198
		h0.1v-0.2h0.098v-0.198h0.1v-0.199h0.101v-0.199h0.101v-0.2h0.101v-0.198h0.1c0.033-0.133,0.066-0.266,0.101-0.396h0.098v-0.2h0.1
		v-0.3h0.101c0.032-0.133,0.065-0.266,0.1-0.396h0.101v-0.3h0.099v-0.198h0.101v-0.299h0.098v-0.201h0.102
		c0.034-0.197,0.067-0.396,0.1-0.597h0.102v-0.2h0.1c0.034-0.199,0.064-0.398,0.098-0.598h0.101v-0.299h0.101v-0.299h0.101v-0.297
		h0.099v-0.301h0.1v-0.298h0.102c0.264-1.128,0.531-2.258,0.795-3.386h0.1v-0.2c0.164-0.231,0.332-0.465,0.498-0.696
		c0.078-0.059,0.117-0.059,0.146-0.059c0.041,0,0.066,0,0.152-0.143h1.395v0.101c0.234,0.032,0.465,0.065,0.697,0.101v0.1h0.298v0.1
		h0.3v0.098h0.598v0.102h0.496v0.099h1.594v0.101c0.162,0.037,0.183-0.098,0.199-0.101c0.024-0.004,0.074,0.023,0.142,0.05
		c0.067,0.027,0.155,0.056,0.257,0.051c0.201-0.01,0.2-0.101,0.2-0.101h1.294v-0.099c0.531-0.067,1.063-0.133,1.594-0.199v-0.1
		h0.398v-0.1h0.298v-0.101h0.301v-0.101h0.298v-0.099c0.233-0.034,0.467-0.067,0.696-0.103v-0.098
		c0.2-0.066,0.399-0.132,0.601-0.199v-0.101c0.131-0.032,0.264-0.065,0.396-0.101c0.033-0.064,0.067-0.131,0.103-0.199h0.195
		c0.033-0.064,0.066-0.132,0.102-0.198h0.197c0.035-0.065,0.068-0.134,0.102-0.198c0.133-0.101,0.266-0.199,0.398-0.301v-0.197
		c0.065-0.033,0.133-0.066,0.198-0.101c0.033-0.132,0.067-0.267,0.101-0.397h0.1v-0.201h0.1v-0.299h0.1v-0.697h0.1
		c-0.033-0.397-0.066-0.795-0.1-1.195h-0.1v-0.298h-0.1v-0.199h-0.1v-0.2c-0.101-0.065-0.199-0.132-0.299-0.199
		c-0.033-0.099-0.068-0.198-0.102-0.297h-0.198c-0.032-0.067-0.065-0.134-0.101-0.201h-0.199V48.51h-0.199v-0.099h-0.195v-0.101
		h-0.201v-0.1h-0.198c-0.032-0.066-0.065-0.132-0.099-0.197h-0.301c-0.031-0.068-0.064-0.137-0.1-0.201h-0.2v-0.1h-0.198v-0.1
		h-0.298v-0.1h-0.2v-0.101h-0.397v-0.099c-1.035-0.317-2.099,0.664-2.589,0.996c-0.035,0.065-0.066,0.131-0.102,0.198h-0.195v0.099
		h-0.203v0.102h-0.299v0.1h-0.297v0.1h-0.199v0.1c-0.2,0.034-0.4,0.064-0.598,0.098v0.103h-0.301v0.099h-0.297v0.102h-0.299v0.099
		h-0.301v0.101h-0.397v0.1h-0.3v0.098c-0.385,0.152-2.248,0.508-2.887,0.301v-0.101h-0.299v-0.099h-0.199v-0.102
		c-0.131-0.033-0.266-0.063-0.398-0.098c-0.064-0.1-0.132-0.199-0.199-0.298h-0.199c-0.101-0.134-0.199-0.267-0.299-0.399h-0.099
		v-0.199c-0.065-0.033-0.134-0.066-0.198-0.1c-0.033-0.135-0.068-0.268-0.102-0.398c-0.065-0.033-0.133-0.067-0.2-0.101v-0.198
		h-0.099v-0.199h-0.099v-0.299c-0.299-0.199-0.599-0.398-0.897-0.599c-0.065-0.101-0.133-0.2-0.199-0.298h-0.199
		c-0.238-0.139-0.779-0.527-1.271-0.527c-0.076,0-0.149,0.01-0.222,0.03v0.099h-0.399v0.1h-0.297
		c-0.035,0.065-0.066,0.132-0.101,0.197h-0.2v0.103c-0.134,0.098-0.265,0.198-0.398,0.298c0.014,0.5,0.027,0.771,0.201,1.098h0.097
		v0.197h0.101v0.2h0.1v0.198h0.101c0.033,0.365,0.065,0.73,0.101,1.097c0.227,0.761,0.508,2.756,0.199,3.687h-0.1
		c-0.034,0.198-0.066,0.396-0.1,0.597h-0.101c-0.065,0.2-0.132,0.399-0.2,0.6c-0.101,0.066-0.197,0.132-0.298,0.198v0.2
		c-0.198,0.165-0.397,0.331-0.597,0.497c-0.1,0.134-0.199,0.266-0.299,0.397h-0.199c-0.102,0.134-0.199,0.269-0.299,0.399h-0.199
		c-0.066,0.099-0.135,0.199-0.198,0.297h-0.2c-0.033,0.068-0.065,0.132-0.097,0.199h-0.201c-0.032,0.068-0.067,0.134-0.101,0.201
		c-0.133,0.033-0.264,0.064-0.396,0.098c-0.033,0.066-0.068,0.134-0.102,0.199c-0.133,0.035-0.264,0.068-0.396,0.101
		c-0.066,0.101-0.134,0.2-0.199,0.299h-0.201v0.099h-0.198v0.102h-0.2v0.098h-0.199c-0.033,0.068-0.064,0.133-0.099,0.2h-0.2v0.101
		h-0.199v0.1h-0.199v0.098h-0.199v0.103h-0.2v0.099h-0.198v0.1h-0.199v0.101h-0.199v0.101c-0.199,0.065-0.4,0.131-0.598,0.197v0.102
		h-0.301v0.098h-0.199v0.1h-0.298v0.102c-0.133,0.033-0.264,0.066-0.399,0.1v0.1h-0.297v0.099h-0.201v0.103h-0.297v0.098
		c-0.201,0.033-0.397,0.068-0.599,0.1v0.1h-0.198v0.1c-0.664,0.199-1.328,0.398-1.99,0.599c0.014-1.446,0.379-2.393,0.697-3.485
		c0.144-0.492-0.104-1.207-0.201-1.493V55.59h-0.098c-0.066-0.199-0.134-0.398-0.199-0.597h-0.101
		c-0.034-0.134-0.067-0.267-0.101-0.397c-0.066-0.035-0.133-0.068-0.199-0.103v-0.198c-0.098-0.066-0.2-0.134-0.299-0.199v-0.199
		h-0.099c-0.1-0.133-0.2-0.268-0.3-0.398c-0.164-0.116-0.227-0.003-0.398-0.2c-0.332,0.034-0.664,0.067-0.996,0.101
		c-0.035,0.064-0.064,0.133-0.099,0.199h-0.2c-0.065,0.1-0.133,0.197-0.199,0.299h-0.1v0.199c-0.164,0.133-0.333,0.266-0.496,0.397
		v0.2c-0.068,0.033-0.135,0.066-0.199,0.1v0.2c-0.067,0.032-0.135,0.065-0.199,0.1c-0.066,0.199-0.133,0.398-0.199,0.597
		c-0.066,0.033-0.135,0.066-0.2,0.102c-0.034,0.132-0.065,0.266-0.098,0.396h-0.103v0.199h-0.099
		c-0.063,0.199-0.132,0.399-0.199,0.6h-0.099v0.298h-0.102c-0.035,0.131-0.064,0.268-0.1,0.399h-0.098v0.297h-0.102v0.201h-0.099
		c-0.034,0.199-0.065,0.399-0.101,0.598h-0.1v0.299h-0.1v0.199h-0.1v0.298h-0.1v0.297h-0.1v0.3H171v0.301h-0.1v0.297H170.8v0.299
		h-0.101c-0.033,0.166-0.064,0.332-0.098,0.5h-0.101c-0.034,0.132-0.065,0.266-0.101,0.396h-0.1c-0.148,0.327-0.047,0.463-0.3,0.698
		v0.101H169.9c-0.067-0.101-0.135-0.199-0.2-0.301h-0.2c-0.034-0.064-0.064-0.131-0.1-0.197H169.3
		c-0.032-0.065-0.067-0.134-0.098-0.201h-0.2c-0.034-0.064-0.066-0.131-0.1-0.197h-0.198c-0.034-0.067-0.065-0.133-0.101-0.2h-0.199
		c-0.034-0.067-0.065-0.132-0.098-0.199c-0.135-0.034-0.267-0.067-0.398-0.1v-0.101h-0.201V61.16
		c-0.2-0.067-0.398-0.133-0.598-0.199v-0.1h-0.299v-0.101h-0.299v-0.1c-0.232-0.032-0.465-0.065-0.697-0.101v-0.098h-0.697v-0.102
		h-0.696v-0.098h-0.797v-0.101h-0.896v-0.101h-1.293c-0.863-0.174-3.5-0.219-4.681,0c-0.149,0.028-0.2-0.098-0.2-0.098
		c-0.209-0.027-0.199,0.098-0.199,0.098h-1.295v0.101h-0.896v0.101h-0.897c-0.563,0.166-1.43,0.232-1.99,0.396h-0.698v0.1h-0.498
		v0.1c-0.3,0.035-0.597,0.066-0.897,0.101v0.099h-0.397v0.102h-0.599v0.099h-0.297v0.101c-0.299,0.031-0.599,0.065-0.898,0.1v0.1
		h-0.297v0.1h-0.299v0.099c-0.367,0.068-0.731,0.136-1.097,0.2v0.1H144.9v0.1c-0.23,0.033-0.463,0.068-0.693,0.101v0.101
		c-0.2,0.033-0.4,0.065-0.598,0.098v0.102c-0.135,0.032-0.268,0.065-0.399,0.1c-0.034,0.066-0.067,0.132-0.101,0.199
		c-0.1,0.066-0.201,0.133-0.297,0.199v0.199h-0.101c-0.123,0.32,0.088,0.879,0.196,0.996c0.214,0.784,1.871,1.339,2.689,1.594h0.6
		v0.098h0.396v0.101c0.299,0.034,0.598,0.065,0.897,0.099v0.102h0.495v0.1c0.566,0.034,1.129,0.066,1.693,0.098v0.103
		c0.965,0.034,1.926,0.065,2.889,0.099V66.54h1.395v-0.103h0.996h0.1V66.34h0.599v-0.1h0.597v-0.1h0.5v-0.1h0.398v-0.1h0.396v-0.099
		h0.399v-0.102h0.397c1.01-0.337,2.182-0.804,3.187-0.099c0.034,0.065,0.065,0.131,0.1,0.2c0.166,0.132,0.333,0.265,0.499,0.397
		v0.197c0.064,0.035,0.131,0.067,0.198,0.103c0.065,0.198,0.133,0.397,0.2,0.596h0.099v0.199h0.099
		c0.067,0.199,0.135,0.399,0.201,0.597h0.1c0.065,0.301,0.133,0.598,0.199,0.898h0.101v0.597h0.097v0.698h-0.097v0.499h-0.101
		c-0.066,0.199-0.133,0.399-0.199,0.599h-0.1v0.198c-0.234,0.198-0.465,0.397-0.699,0.597c-0.098,0.135-0.199,0.268-0.297,0.4
		h-0.199c-0.067,0.098-0.133,0.198-0.2,0.298h-0.198c-0.232,0.265-0.466,0.531-0.697,0.796c-0.135,0.1-0.267,0.199-0.4,0.301v0.197
		c-0.1,0.066-0.198,0.133-0.297,0.198v0.2c-0.066,0.033-0.135,0.066-0.199,0.101v0.199c-0.068,0.034-0.135,0.065-0.201,0.099
		c-0.033,0.168-0.066,0.334-0.1,0.5h-0.099v0.198c-0.067,0.034-0.134,0.065-0.2,0.099v0.299h-0.1v0.301h-0.1
		c-0.035,0.332-0.064,0.664-0.099,0.995h-0.099v0.797h0.099v0.599h0.099v0.199h0.1c0.033,0.132,0.066,0.266,0.1,0.398
		c0.231,0.201,0.465,0.396,0.698,0.597h0.199v0.101h0.397v0.1c0.783,0.236,2.15-0.225,2.59-0.398
		c0.201-0.033,0.397-0.064,0.598-0.099v-0.099c0.134-0.033,0.266-0.067,0.398-0.102v-0.102c0.199-0.066,0.398-0.133,0.599-0.199
		c0.032-0.067,0.065-0.133,0.101-0.199h0.197v-0.1c0.102-0.033,0.199-0.067,0.301-0.101c0.034-0.065,0.064-0.133,0.098-0.2h0.201
		c0.131-0.166,0.265-0.332,0.397-0.498c0.233-0.197,0.463-0.397,0.696-0.596v-0.199c0.1-0.067,0.199-0.134,0.3-0.199v-0.199
		c0.065-0.034,0.132-0.066,0.198-0.1V76.4c0.066-0.033,0.135-0.067,0.201-0.102V76.1h0.098V75.9h0.1
		c0.066-0.33,0.133-0.664,0.2-0.996h0.101c0.226-0.754-0.391-2.063-0.598-2.488h-0.1v-0.3h-0.1v-0.199h-0.1
		c-0.034-0.199-0.066-0.397-0.1-0.599h-0.101v-0.297h-0.099v-0.2h-0.1v-0.399h-0.101v-0.298h-0.101v-0.297h-0.1v-0.3h-0.098
		c-0.033-0.2-0.067-0.398-0.102-0.598h-0.099V68.73h-0.101v-0.299h-0.099c-0.067-0.199-0.136-0.399-0.2-0.6h-0.098v-0.199h-0.102
		c-0.064-0.197-0.133-0.396-0.201-0.596c-0.066-0.034-0.131-0.068-0.198-0.1v-0.201c-0.101-0.065-0.198-0.133-0.297-0.197v-0.2
		c-0.067-0.034-0.134-0.065-0.2-0.1c-0.266-0.3-0.531-0.597-0.797-0.897h-0.2v-0.197c0.853-0.094,1.699-0.363,2.392-0.6h0.498
		v-0.098h0.397v-0.102h0.399v-0.098h0.397v-0.102h0.3v-0.1h0.498V63.95h0.398v-0.103h0.697V63.75
		c0.213-0.063,0.467-0.059,0.705-0.055c0.226,0.003,0.437,0.006,0.588-0.045c0.134,0.433,0.266,0.863,0.398,1.295h0.1
		c0.033,0.133,0.066,0.266,0.101,0.397h0.099c0.034,0.134,0.066,0.267,0.1,0.398c0.066,0.032,0.134,0.067,0.201,0.102
		c0.166,0.198,0.332,0.397,0.498,0.597c0.166,0.033,0.332,0.066,0.498,0.102v0.098h1.393V66.54h0.499
		c0.698-0.233,1.396-0.466,2.092-0.697v-0.102c0.198-0.065,0.397-0.132,0.597-0.198v-0.1c0.135-0.034,0.266-0.066,0.399-0.102
		c0.032-0.064,0.065-0.132,0.101-0.197h0.197c0.034-0.067,0.066-0.135,0.1-0.201c0.135-0.032,0.267-0.066,0.399-0.1v-0.099
		c0.101-0.034,0.198-0.068,0.297-0.101c0.034-0.066,0.067-0.133,0.101-0.199h0.201c0.064-0.1,0.131-0.198,0.199-0.299
		c0.1-0.032,0.197-0.066,0.297-0.101c0.032-0.065,0.065-0.132,0.1-0.2h0.197c0.035-0.063,0.068-0.131,0.103-0.199
		c0.099-0.03,0.198-0.064,0.298-0.099v-0.1h0.2c0.034-0.065,0.065-0.132,0.099-0.198h0.2c0.065-0.102,0.134-0.199,0.199-0.299h0.2
		c0.064-0.1,0.132-0.199,0.197-0.299h0.2c0.066-0.1,0.134-0.201,0.2-0.299h0.197c0.035-0.066,0.068-0.131,0.102-0.199h0.2
		c0.099-0.133,0.198-0.264,0.298-0.399h0.197V61.757z M163.925,72.216c0.722-0.008,0.688,0.063,1.095,0.298
		c0.06,0.2-0.014,0.088,0.099,0.2v1.097c-0.067,0.033-0.132,0.066-0.199,0.099v0.198c-0.101,0.068-0.198,0.133-0.297,0.201v0.198
		c-0.067,0.034-0.134,0.065-0.2,0.101v0.197c-0.133,0.1-0.266,0.2-0.398,0.301c-0.852,1.186-2.078,2.381-3.785,2.689
		c0.035-0.676,0.287-1.212,0.498-1.695v-0.299h0.099c0.034-0.131,0.065-0.264,0.101-0.396h0.101v-0.299
		c0.065-0.033,0.133-0.065,0.198-0.101c0.033-0.132,0.065-0.265,0.101-0.397h0.101c0.033-0.101,0.064-0.2,0.098-0.299
		c0.066-0.033,0.132-0.067,0.199-0.102v-0.198c0.266-0.231,0.531-0.464,0.799-0.696c0.099-0.133,0.197-0.268,0.299-0.398
		C163.167,72.671,163.666,72.527,163.925,72.216z"/>
	<path fill="#FFFFFF" d="M220.789,60.463h0.298v-0.102h0.2v-0.098c0.197-0.068,0.396-0.133,0.598-0.201
		c0.032-0.066,0.066-0.131,0.1-0.199c0.134-0.032,0.267-0.065,0.398-0.098c0.133-0.166,0.266-0.332,0.396-0.498h0.201
		c0.1-0.134,0.197-0.267,0.299-0.399c0.478-0.478,0.799-0.703,1.096-1.396h-0.1v-0.199c-0.068-0.033-0.135-0.066-0.2-0.1v-0.199
		h-0.101v-0.199c-0.065-0.033-0.132-0.068-0.199-0.1c-0.314-0.468-0.471-0.83-1.192-0.896c-0.2,0.175-0.538,0.087-0.799,0.201v0.098
		h-0.199v0.1h-0.198c-0.033,0.067-0.066,0.133-0.1,0.199h-0.2c-0.101,0.135-0.198,0.268-0.298,0.398
		c-0.066,0.035-0.133,0.067-0.201,0.101v0.198c-0.064,0.033-0.132,0.066-0.199,0.102v0.198c-0.063,0.032-0.13,0.065-0.197,0.101
		c-0.031,0.131-0.065,0.265-0.1,0.398h-0.099v0.197h-0.101c-0.067,0.201-0.133,0.398-0.197,0.6h-0.102v0.299h-0.099v0.198h-0.101
		v0.399h-0.1C219.331,60.412,219.984,60.751,220.789,60.463z M220.789,58.07c0.066-0.031,0.131-0.065,0.197-0.1v-0.199h0.101
		c0.032-0.099,0.065-0.197,0.101-0.297c0.231-0.058,0.371-0.144,0.496-0.299c0.821-0.011,0.721,0.023,1.196,0.299
		c-0.065,0.724-0.735,1.463-1.396,1.594c-0.153,0.146-0.664,0.201-1.02,0.201c-0.025,0-0.053,0-0.076-0.002
		C220.521,58.869,220.656,58.469,220.789,58.07z"/>
	<path fill="#FFFFFF" d="M202.764,58.07c-0.199,0.181-0.632,0.084-0.896,0.201v0.1h-0.2c-0.196,0.165-0.397,0.332-0.597,0.498v0.298
		h-0.1c0.002,1.24,0.74,2.756,1.692,2.987c0.276,0.256,1.269,0.25,1.694,0.102v-0.102c0.197-0.032,0.396-0.066,0.596-0.1v-0.099
		c0.136-0.032,0.266-0.065,0.398-0.099v-0.102h0.399v-0.099h0.396v-0.099h0.598c0.148-0.045,0.597-0.186,0.896-0.101v0.101h0.699
		v0.099h0.398v0.099c0.297,0.068,0.596,0.135,0.893,0.2v0.099c0.137,0.033,0.27,0.067,0.401,0.1v0.102h0.198
		c0.033,0.066,0.063,0.133,0.099,0.197c0.134,0.033,0.267,0.066,0.397,0.102c0.068,0.1,0.135,0.198,0.201,0.299h0.199
		c0.266,0.297,0.531,0.597,0.796,0.896c-0.019,0.604-0.239,1.124-0.498,1.493c-0.1,0.066-0.198,0.134-0.298,0.199v0.201
		c-0.133,0.098-0.266,0.199-0.4,0.297v0.199c-0.131,0.102-0.265,0.201-0.397,0.299v0.199c-0.099,0.067-0.198,0.135-0.297,0.2
		c-0.033,0.131-0.067,0.265-0.101,0.399c-0.066,0.033-0.135,0.064-0.199,0.099c-0.033,0.134-0.067,0.267-0.103,0.399
		c-0.098,0.066-0.196,0.133-0.297,0.197v0.2c-0.133,0.101-0.265,0.199-0.399,0.302c-0.031,0.098-0.064,0.197-0.099,0.297h-0.099
		v0.101c0.672-0.021,1.416-0.245,1.891-0.5v-0.099c0.135-0.033,0.268-0.065,0.396-0.101c0.104-0.133,0.203-0.264,0.302-0.397
		c0.1-0.032,0.198-0.066,0.299-0.101v-0.198c0.099-0.065,0.198-0.133,0.299-0.199v-0.198c0.067-0.034,0.134-0.067,0.199-0.101
		v-0.199c0.067-0.033,0.133-0.066,0.198-0.1c0.068-0.199,0.134-0.397,0.201-0.598h0.099v-0.198h0.101
		c0.032-0.2,0.063-0.399,0.098-0.6h0.102v-0.199h0.1v-0.298h0.099v-0.298h0.103v-0.399h0.098c0.135-0.435-0.079-1.613-0.199-1.893
		h-0.1c-0.033-0.133-0.066-0.264-0.099-0.399h-0.103c-0.032-0.133-0.063-0.264-0.098-0.397c-0.1-0.066-0.197-0.133-0.301-0.199
		c-0.297-0.332-0.597-0.665-0.895-0.997h-0.199c-0.033-0.065-0.066-0.134-0.1-0.198h-0.201c-0.03-0.066-0.063-0.134-0.098-0.199
		c-0.201-0.067-0.4-0.133-0.6-0.201c-1.816-1.143-3.953-1.5-6.874-1.5C203.23,58.064,202.999,58.066,202.764,58.07z"/>
	<path fill="#FFFFFF" d="M219.195,65.243h0.398v-0.099h0.398v-0.101h0.299v-0.099h0.497c0.44-0.141,1.045-0.348,1.491-0.497h0.4
		v-0.101h0.398v-0.099h0.398v-0.101c0.317-0.106,0.578,0.004,0.797-0.198c0.426,0.022,0.336,0.062,0.595,0.198
		c0.046,0.3,0.127,0.603,0,0.996h-0.097v0.398h-0.102v0.398h-0.1c-0.033,0.299-0.067,0.599-0.1,0.896h-0.1v0.398h-0.1v0.397h-0.1
		v0.498h-0.102v0.398h-0.1v0.497h-0.1v0.5h-0.102c-0.199,0.929-0.396,1.859-0.598,2.789c0.364-0.033,0.73-0.065,1.098-0.101v-0.1
		h0.197c0.032-0.065,0.066-0.134,0.102-0.199h0.199c0.096-0.132,0.197-0.267,0.299-0.397c0.064-0.033,0.131-0.066,0.197-0.101
		v-0.198c0.103-0.068,0.201-0.134,0.301-0.199v-0.2c0.064-0.033,0.131-0.065,0.196-0.101c0.067-0.197,0.134-0.397,0.201-0.598
		c0.065-0.033,0.134-0.066,0.2-0.1v-0.198h0.098c0.064-0.2,0.133-0.4,0.2-0.599h0.099c0.066-0.299,0.133-0.598,0.199-0.897h0.098
		v-0.597h0.103c0.099-0.34-0.044-0.908-0.103-1.096v-0.496c-0.174-0.529-0.715-1.687-1.094-1.992v-0.101
		c0.719-0.124,1.774-0.118,2.488,0c0.445,0.073,0.998-0.003,1.197-0.2c0.369-0.098,0.269-0.205,0.496-0.397
		c0.004-0.377-0.008-0.752-0.101-0.997c-0.282-0.057-0.549-0.225-0.797-0.299h-1.192v-0.1c-0.158-0.043-0.359-0.06-0.576-0.06
		c-0.496,0-1.064,0.089-1.315,0.159c-0.532,0.035-1.063,0.068-1.594,0.102c-1.582,0.459-3.328,0.623-4.88,1.096h-0.497v0.099h-0.599
		v0.1H217.7v0.099c-0.248,0.072-0.495,0.052-0.729,0.031c-0.328-0.027-0.628-0.056-0.863,0.168c-0.186,0.121-0.213,0.279-0.397,0.4
		c0.054,0.916,0.592,0.837,1.296,1.094v0.102h0.498v0.1h0.598v-0.1h0.698v-0.102h0.396V65.243L219.195,65.243z"/>
	<path fill="#FFFFFF" d="M217.9,71.718c-0.022-0.038-0.139-0.094-0.2-0.198h-1.194v0.099h-0.197v0.1
		c-0.201,0.034-0.398,0.067-0.6,0.099v0.101h-0.197v0.099h-0.301v0.101h-0.299v0.1h-0.299v0.101h-0.396v0.101h-0.199v0.099h-0.397
		v0.1h-0.302v0.1h-0.198v0.1h-0.3v0.101c-0.229,0.034-0.461,0.065-0.694,0.099c-2.054,0.813-4.36,1.465-7.271,1.396
		c0.14-0.453,0.144-0.164,0.397-0.398c0.3-0.331,0.599-0.663,0.896-0.997c0.168-0.132,0.332-0.264,0.498-0.397v-0.198
		c0.168-0.133,0.332-0.266,0.498-0.4v-0.199h0.101c0.032-0.099,0.065-0.198,0.101-0.297c0.1-0.066,0.198-0.133,0.299-0.201
		c0.033-0.133,0.063-0.264,0.099-0.398h0.1c0.066-0.197,0.134-0.396,0.2-0.596h0.1v-0.299h0.103v-0.498h0.101V68.73h-0.101v-0.498
		h-0.103v-0.301h-0.1v-0.199h-0.102c-0.032-0.131-0.065-0.265-0.1-0.398c-0.066-0.033-0.134-0.064-0.197-0.1v-0.198
		c-0.065-0.034-0.133-0.068-0.199-0.101c-0.17-0.248-0.268-0.51-0.498-0.696v-0.099h-0.1v0.101c-0.342,0.202-0.203,0.294-0.4,0.598
		c-0.063,0.034-0.129,0.068-0.195,0.101v0.199h-0.102c-0.035,0.133-0.065,0.266-0.1,0.397h-0.102
		c-0.064,0.298-0.131,0.597-0.196,0.897h-0.103v0.397h-0.098v0.497h-0.101v0.598h-0.101v0.6h-0.1v0.697h-0.102v0.496h-0.098v0.398
		h-0.102c-0.03,0.134-0.064,0.267-0.1,0.398h-0.1c-0.032,0.133-0.064,0.267-0.1,0.398c-0.066,0.034-0.135,0.066-0.2,0.1v0.199
		h-0.099c-0.1,0.133-0.199,0.268-0.3,0.398h-0.2c-0.064,0.1-0.129,0.201-0.197,0.299c-0.862,0.033-1.729,0.066-2.59,0.1
		c-0.664-0.197-1.33-0.398-1.994-0.598v0.1h-0.396c-0.032,0.066-0.065,0.135-0.101,0.199h-0.2c-0.075,0.309-0.28,0.456-0.397,0.697
		v0.3h-0.1c0.01,0.479,0.09,0.81,0.3,1.095c0.067,0.033,0.134,0.067,0.197,0.1v0.101h0.2v0.101h0.199
		c0.033,0.065,0.064,0.133,0.101,0.198c0.63,0.388,2.724,0.572,3.685,0.3h0.696c0.662-0.194,1.552-0.3,2.19-0.498h0.496
		c2.104-0.717,4.457-1.203,6.576-1.894h0.496v-0.099h0.399v-0.1h0.397v-0.101c0.364-0.032,0.729-0.065,1.094-0.099V73.71h0.699
		v-0.101c0.431-0.032,0.861-0.064,1.293-0.1v-0.1h0.299v-0.1h0.199v-0.1h0.201v-0.1c0.131-0.1,0.266-0.199,0.397-0.299v-0.896
		h-0.101v-0.198H217.9z"/>
	<path fill="#FFFFFF" d="M202.663,70.822c0.101,0.132,0.2,0.266,0.299,0.398h0.498c0.246-0.121,0.849-1.642,0.698-2.193
		c-0.27-0.979-0.805-2.055-1.596-2.487c-0.176,0.866-0.504,1.442-0.498,2.589v0.596h0.101c0.099,0.276,0.062,0.574,0.198,0.799
		c0.066,0.035,0.136,0.066,0.199,0.1v0.199H202.663z"/>
	<path fill="#FFFFFF" d="M231.943,79.786h-0.101c-0.032-0.464-0.067-0.929-0.101-1.396h-0.102c-0.065-0.298-0.131-0.596-0.195-0.896
		h-0.1c-0.035-0.134-0.068-0.267-0.101-0.397h-0.103c-0.065-0.199-0.132-0.397-0.197-0.598c-0.102-0.064-0.197-0.133-0.297-0.2
		c-0.201-0.229-0.398-0.465-0.6-0.698h-0.201c-0.031-0.063-0.066-0.131-0.098-0.195h-0.199v-0.102c-0.199-0.066-0.4-0.133-0.6-0.199
		v-0.1c-0.197-0.033-0.397-0.066-0.598-0.102v-0.1c-0.432-0.063-0.865-0.132-1.295-0.197v-0.101
		c-1.027-0.067-2.059-0.133-3.086-0.198c-0.367,0-0.992-0.082-1.195,0.099c-0.355,0.003-0.674-0.015-0.896-0.099
		c0.027-0.691,0.287-0.705,0.301-1.396c-0.226,0.03-0.266,0.009-0.4,0.099v0.102h-0.199c-0.032,0.066-0.064,0.132-0.1,0.197h-0.199
		c-0.066,0.1-0.133,0.199-0.199,0.299h-0.198v0.101c-0.133,0.033-0.267,0.067-0.397,0.101v0.099h-0.398v0.1
		c-0.199,0.066-0.396,0.134-0.596,0.198v0.102c-0.168,0.131-0.333,0.265-0.498,0.397c-0.105,0.485-0.334,1.114-0.102,1.694h0.102
		v0.298h0.098c0.143,0.247,0.229,0.362,0.6,0.397v0.1c0.396-0.133,0.795-0.264,1.193-0.397v-0.1h0.198
		c0.032-0.066,0.065-0.134,0.101-0.199h0.199V76.4c0.297-0.068,0.598-0.135,0.895-0.2V76.1c0.234-0.031,0.468-0.064,0.701-0.101
		c1.117-0.376,2.418-0.416,3.981-0.399c0.299,0.344,0.758,0.373,0.896,0.898c0.443,0.48,0.056,2.139-0.101,2.689v0.795h-0.099v1.695
		c0,1.363,0.006,2.639,0.398,3.586v0.299c0.064,0.033,0.129,0.065,0.196,0.101v0.196h0.101c0.067,0.103,0.133,0.201,0.199,0.301
		c0.553,0.131,0.934,0.418,1.594,0.199h0.399v-0.101c0.506-0.067,0.545-0.39,0.896-0.597c0.031-0.168,0.065-0.334,0.098-0.5h0.1
		c0.034-0.497,0.068-0.995,0.102-1.492h0.101v-1.097c0.068-0.241,0.154-1.251,0.156-2.011v-0.061
		C231.999,80.191,231.982,79.927,231.943,79.786z"/>
	<path fill="#FFFFFF" d="M196.089,75.393c-0.112,0.074-0.215,0.148-0.327,0.225c-0.037,0.104-0.072,0.213-0.109,0.326
		c-0.151,0.035-0.299,0.072-0.439,0.109v0.112c-0.111,0.03-0.225,0.065-0.334,0.103c-0.038,0.075-0.066,0.149-0.105,0.224h-0.221
		c-0.037,0.075-0.076,0.149-0.113,0.222c-0.265,0.182-0.563,0.202-0.762,0.438c-0.727-0.012-0.677-0.191-1.101-0.438
		c-0.101-0.576-0.101-1.081,0.104-1.646h0.111v-0.443h0.111v-1.202c0.09-0.305,0.459-1.069,0.324-1.546h-0.101v-0.547h-0.112v-0.438
		h-0.111v-0.218h-0.111V70.45h-0.111c-0.141-0.185-0.289-0.364-0.438-0.55c-0.338-0.068-0.868-0.289-1.398-0.289
		c-0.156,0-0.312,0.019-0.463,0.066c-1.677,0.527-3.111,2.04-3.74,3.631c-0.104,1.209-0.218,2.41-0.328,3.621
		c-0.424-0.244-0.395-0.507-0.658-0.877c-0.151-0.109-0.293-0.224-0.439-0.334v-0.215c-0.111-0.072-0.224-0.146-0.328-0.222v-0.218
		c-0.107-0.072-0.222-0.146-0.33-0.222V74.62c-0.078-0.039-0.148-0.073-0.225-0.104v-0.224c-0.104-0.074-0.216-0.149-0.324-0.224
		v-0.215c-0.113-0.035-0.216-0.071-0.328-0.111c-0.041-0.073-0.074-0.148-0.111-0.223h-0.223v-0.103
		c-0.179,0.03-0.365,0.065-0.551,0.103c-0.037,0.149-0.072,0.299-0.109,0.447h-0.104v0.764h-0.112
		c-0.125,0.433,0.135,1.156,0.217,1.434v0.438h0.109v0.326h0.113c0.072,0.223,0.148,0.438,0.22,0.661
		c0.106,0.073,0.218,0.146,0.328,0.222v0.215c0.149,0.113,0.296,0.225,0.438,0.334c0.037,0.067,0.072,0.143,0.113,0.217h0.219
		c0.104,0.15,0.217,0.296,0.328,0.438h0.224v0.111h0.213c0.04,0.074,0.075,0.148,0.112,0.223c0.186,0.039,0.363,0.074,0.551,0.111
		v0.104c0.986-0.016,1.082-0.342,1.432-0.987h0.104v-0.216h0.109v-0.658h0.111V77.15H187.3c-0.019-0.08-0.01-0.07,0.015-0.062
		c0.021,0.007,0.059,0.017,0.097-0.049v-0.112H187.3v-0.764h-0.11v-0.661c-0.06-0.194-0.356-0.496-0.215-0.883h0.112
		c0.028-0.142,0.065-0.29,0.103-0.438c0.274-0.431,0.744-0.748,1.099-1.099c0.075-0.112,0.147-0.215,0.224-0.326h0.223
		c0.029-0.075,0.068-0.147,0.104-0.224c0.112-0.036,0.222-0.073,0.333-0.111v-0.104h0.217c0.039-0.073,0.074-0.148,0.11-0.223
		c0.147-0.037,0.299-0.074,0.44-0.111c0.035-0.075,0.07-0.149,0.109-0.223c0.271-0.179,0.49-0.289,0.883-0.326
		c0.06,0.305,0.252,0.526,0.326,0.771v1.974h-0.109c-0.037,0.4-0.076,0.811-0.112,1.209h-0.104v0.438h-0.111v0.438h-0.111v0.549
		h-0.111v0.662h-0.111c0.037,0.332,0.074,0.66,0.111,0.985c0.2,0.171,0.258,0.476,0.438,0.661c0.185,0.186,0.489,0.246,0.659,0.438
		c1.691,0.022,1.932-0.72,2.746-1.537c0.373-0.325,0.736-0.66,1.099-0.985v-0.224c0.112-0.073,0.222-0.142,0.334-0.215V76.49
		c0.103-0.036,0.215-0.073,0.328-0.11c0.034-0.073,0.071-0.149,0.11-0.215h0.213c0.039-0.076,0.074-0.149,0.113-0.224
		c0.452-0.431,0.731-0.676,0.771-1.535C196.727,74.555,196.498,74.979,196.089,75.393z"/>
</g>
</svg>
