<?xml version="1.0" encoding="utf-8"?>
<!-- Generator: Adobe Illustrator 16.0.0, SVG Export Plug-In . SVG Version: 6.00 Build 0)  -->
<!DOCTYPE svg PUBLIC "-//W3C//DTD SVG 1.1//EN" "http://www.w3.org/Graphics/SVG/1.1/DTD/svg11.dtd">
<svg version="1.1" id="Layer_1" xmlns="http://www.w3.org/2000/svg" xmlns:xlink="http://www.w3.org/1999/xlink" x="0px" y="0px"
	 width="270px" height="40px" viewBox="0 0 270 40" enable-background="new 0 0 270 40" xml:space="preserve">
<g>
	<path d="M63.183,17.931v1.38c1.813,0.107,3.137,0.464,3.97,1.07c0.833,0.606,1.25,1.277,1.25,2.01c0,0.88-0.563,1.623-1.69,2.23
		c-1.127,0.607-2.797,0.91-5.01,0.91s-3.894-0.303-5.04-0.91c-1.147-0.607-1.72-1.35-1.72-2.23c0-0.786,0.433-1.466,1.3-2.04
		c0.867-0.573,2.187-0.92,3.96-1.04v-1.38h-6.86v-1.979h16.72v1.979H63.183z M63.843,11.792c0.653,0.56,1.466,0.94,2.44,1.14
		c0.973,0.2,1.926,0.354,2.86,0.46c-0.227,0.293-0.48,0.613-0.76,0.96c-0.28,0.347-0.5,0.626-0.66,0.839
		c-1.053-0.105-2.184-0.363-3.39-0.77s-2.083-0.896-2.63-1.47c-0.613,0.574-1.48,1.06-2.6,1.46c-1.12,0.4-2.293,0.66-3.52,0.779
		c-0.2-0.252-0.437-0.56-0.71-0.919s-0.523-0.66-0.75-0.9c1.067-0.067,2.133-0.253,3.2-0.56c1.066-0.307,1.82-0.646,2.26-1.02h-4.56
		v-1.88h13.26v1.88H63.843z M58.813,23.322c0.687,0.205,1.65,0.309,2.89,0.309c1.2,0,2.153-0.104,2.86-0.309
		c0.707-0.207,1.06-0.511,1.06-0.911c0-0.427-0.354-0.743-1.06-0.95s-1.66-0.31-2.86-0.31c-1.24,0-2.204,0.1-2.89,0.3
		s-1.03,0.513-1.03,0.939C57.783,22.804,58.126,23.115,58.813,23.322z M58.063,8.892v-1.86h7.22v1.86H58.063z"/>
	<path d="M78.463,12.231c0.213,0.88,0.746,1.647,1.6,2.3c0.854,0.654,1.747,1.081,2.68,1.28c-0.239,0.294-0.493,0.607-0.76,0.94
		s-0.507,0.634-0.72,0.9c-0.813-0.267-1.573-0.667-2.28-1.2s-1.293-1.087-1.76-1.66c-0.4,0.693-0.994,1.356-1.78,1.99
		c-0.787,0.633-1.634,1.123-2.54,1.47c-0.213-0.267-0.477-0.576-0.79-0.93c-0.313-0.354-0.624-0.663-0.93-0.931
		c0.987-0.267,1.957-0.767,2.91-1.5c0.953-0.733,1.517-1.62,1.69-2.66h-3.32v-2.04h9.319v2.04H78.463z M75.823,24.531
		c-1.12-0.652-1.68-1.494-1.68-2.52c0-1.026,0.56-1.863,1.68-2.51s2.747-0.97,4.88-0.97c2.146,0,3.77,0.323,4.869,0.97
		c1.101,0.646,1.65,1.483,1.65,2.51c0,1.026-0.55,1.868-1.65,2.52c-1.1,0.652-2.723,0.98-4.869,0.98
		C78.569,25.512,76.943,25.184,75.823,24.531z M74.403,9.151v-1.92h5.56v1.92H74.403z M77.903,23.182
		c0.693,0.26,1.633,0.391,2.82,0.391c1.16,0,2.073-0.131,2.74-0.391c0.666-0.26,1-0.644,1-1.15c0-0.507-0.334-0.894-1-1.16
		c-0.667-0.267-1.58-0.4-2.74-0.4c-1.187,0-2.127,0.134-2.82,0.4c-0.694,0.267-1.04,0.653-1.04,1.16
		C76.863,22.538,77.209,22.921,77.903,23.182z M84.603,18.532v-3.94h-2.34v-2.06h2.34v-5.2h2.48v11.2H84.603z"/>
	<path d="M98.923,18.032v1.38h5.1v5.92h-2.6v-3.741h-10.24v-2.18h5.12v-1.36h-6.96v-2.2h16.72v2.181H98.923z M91.282,7.451h2.44
		v1.62h7.92v-1.62h2.48v7.26H91.282V7.451z M101.643,11.131h-7.92v1.44h7.92V11.131z"/>
	<path d="M107.343,23.451v-2.2h7.06v-3.98h-5v-9.24h12.7v2.18h-10.2v4.88h10.36v2.18h-5.28v3.98h7.08v2.2H107.343z"/>
	<path d="M125.343,23.432v-2.18h3.26v-6.16h2.521v6.16h1.899v-6.16h2.54v6.16h6.5v2.18H125.343z M140.362,8.271
		c-0.053,1.693-0.156,3.497-0.31,5.41c-0.153,1.914-0.37,3.684-0.65,5.311l-2.52,0.02c0.227-1.387,0.413-2.847,0.56-4.38
		s0.233-2.927,0.261-4.18h-10.7v-2.18H140.362z"/>
	<path d="M156.021,17.731v1.761h2.021v5.86h-2.601v-3.68h-10.359v-2.18h2.279v-1.761h-4.02v-2.159h16.72v2.159H156.021z
		 M146.802,13.602c-1.214-0.673-1.82-1.563-1.82-2.67c0-1.026,0.606-1.893,1.82-2.6c1.213-0.707,2.84-1.06,4.88-1.06
		c2.066,0,3.696,0.354,4.89,1.06s1.79,1.58,1.79,2.62c0,1.094-0.597,1.977-1.79,2.65s-2.823,1.01-4.89,1.01
		C149.642,14.611,148.015,14.275,146.802,13.602z M148.882,12.191c0.68,0.333,1.613,0.5,2.8,0.5c1.173,0,2.1-0.167,2.78-0.5
		c0.68-0.333,1.02-0.747,1.02-1.24c0-0.546-0.354-0.977-1.06-1.29c-0.707-0.313-1.627-0.47-2.76-0.47c-1.094,0-2,0.164-2.721,0.49
		c-0.72,0.327-1.08,0.75-1.08,1.27C147.861,11.445,148.202,11.858,148.882,12.191z M153.562,17.731h-3.74v1.761h3.74V17.731z"/>
	<path d="M168.462,12.231c0.213,0.88,0.746,1.647,1.6,2.3c0.854,0.654,1.747,1.081,2.68,1.28c-0.239,0.294-0.493,0.607-0.76,0.94
		s-0.507,0.634-0.72,0.9c-0.813-0.267-1.573-0.667-2.28-1.2s-1.293-1.087-1.76-1.66c-0.4,0.693-0.993,1.356-1.78,1.99
		c-0.786,0.633-1.633,1.123-2.54,1.47c-0.213-0.267-0.477-0.576-0.79-0.93s-0.623-0.663-0.93-0.931
		c0.986-0.267,1.957-0.767,2.91-1.5c0.953-0.733,1.517-1.62,1.689-2.66h-3.319v-2.04h9.319v2.04H168.462z M165.821,24.531
		c-1.119-0.652-1.68-1.494-1.68-2.52c0-1.026,0.561-1.863,1.68-2.51c1.12-0.646,2.747-0.97,4.881-0.97
		c2.146,0,3.77,0.323,4.869,0.97c1.101,0.646,1.65,1.483,1.65,2.51c0,1.026-0.55,1.868-1.65,2.52c-1.1,0.652-2.723,0.98-4.869,0.98
		C168.568,25.512,166.941,25.184,165.821,24.531z M164.401,9.151v-1.92h5.561v1.92H164.401z M167.901,23.182
		c0.693,0.26,1.634,0.391,2.82,0.391c1.16,0,2.073-0.131,2.74-0.391c0.666-0.26,1-0.644,1-1.15c0-0.507-0.334-0.894-1-1.16
		c-0.667-0.267-1.58-0.4-2.74-0.4c-1.187,0-2.127,0.134-2.82,0.4s-1.04,0.653-1.04,1.16
		C166.861,22.538,167.208,22.921,167.901,23.182z M174.602,18.532v-3.94h-2.34v-2.06h2.34v-5.2h2.48v11.2H174.602z"/>
	<path d="M179.342,18.471v-2.02h7.06v-1.3h-5.02V7.611h12.66v1.84h-10.061v1.04h9.96v1.72h-9.96v1.04h10.24v1.88h-5.1v1.3h6.939
		v2.04H179.342z M182.662,20.032c1.119-0.601,2.779-0.9,4.979-0.9c2.213,0,3.89,0.3,5.03,0.9c1.14,0.6,1.71,1.366,1.71,2.3
		c0,0.92-0.567,1.68-1.7,2.28c-1.134,0.6-2.807,0.9-5.02,0.9c-2.2,0-3.864-0.301-4.99-0.9c-1.127-0.6-1.69-1.359-1.69-2.28
		C180.981,21.398,181.542,20.631,182.662,20.032z M184.832,23.23c0.687,0.188,1.63,0.281,2.83,0.281c1.187,0,2.133-0.094,2.84-0.281
		c0.706-0.186,1.06-0.479,1.06-0.879c0-0.439-0.354-0.76-1.06-0.96c-0.707-0.2-1.653-0.3-2.84-0.3c-1.214,0-2.16,0.1-2.841,0.3
		c-0.68,0.2-1.02,0.521-1.02,0.96C183.802,22.751,184.145,23.045,184.832,23.23z"/>
	<path d="M197.962,11.771v-1.84h10.56v1.84H197.962z M199.771,13.111c0.927-0.506,2.09-0.76,3.49-0.76c1.467,0,2.633,0.25,3.5,0.75
		c0.866,0.5,1.3,1.123,1.3,1.87c0,0.76-0.437,1.4-1.31,1.92c-0.874,0.521-2.05,0.78-3.53,0.78c-1.373,0-2.523-0.263-3.45-0.79
		c-0.927-0.526-1.39-1.156-1.39-1.89C198.382,14.245,198.845,13.618,199.771,13.111z M200.361,25.092v-6.64h2.46v1.359h7.04v-1.359
		h2.46v6.64H200.361z M200.401,9.071v-1.84h5.62v1.84H200.401z M201.602,15.742c0.4,0.153,0.946,0.229,1.64,0.229
		c0.707,0,1.254-0.08,1.641-0.24c0.387-0.159,0.58-0.413,0.58-0.76c0-0.333-0.193-0.58-0.58-0.74s-0.934-0.24-1.641-0.24
		c-0.693,0-1.239,0.08-1.64,0.24c-0.399,0.16-0.6,0.414-0.6,0.76S201.202,15.588,201.602,15.742z M209.861,21.711h-7.04v1.4h7.04
		V21.711z M212.321,13.852v3.879h-2.46V7.332h2.46v4.36h2.28v2.16H212.321z"/>
	<path d="M215.342,23.451v-2.2h7.06v-3.98h-5v-9.24h12.7v2.18h-10.2v4.88h10.36v2.18h-5.28v3.98h7.08v2.2H215.342z"/>
	<path d="M240.222,12.231c0,1.934,0.437,3.523,1.31,4.77c0.874,1.247,1.937,2.257,3.19,3.03c-0.36,0.293-0.707,0.587-1.04,0.88
		s-0.606,0.553-0.82,0.779c-0.573-0.386-1.27-0.992-2.09-1.819c-0.819-0.827-1.43-1.673-1.83-2.54
		c-0.279,0.867-0.859,1.767-1.739,2.7c-0.881,0.933-1.634,1.606-2.261,2.02c-0.239-0.227-0.55-0.493-0.93-0.8
		s-0.757-0.587-1.13-0.84c0.826-0.48,1.547-1.033,2.16-1.66s1.126-1.326,1.54-2.1c0.333-0.641,0.586-1.327,0.76-2.061
		c0.173-0.733,0.26-1.52,0.26-2.36v-4.2h2.62V12.231z M246.342,25.23V14.751h-3.521v-2.34h3.521v-5.08h2.52V25.23H246.342z"/>
	<path d="M263.162,17.452c-0.787,0.106-2.047,0.227-3.78,0.359c-1.733,0.134-3.533,0.2-5.4,0.2h-2.42v-2.22h3v-3.56h2.44v3.56
		c0.586,0,1.576-0.05,2.97-0.15c1.394-0.1,2.457-0.21,3.19-0.33V17.452z M261.981,7.872c-0.014,1.133-0.097,2.303-0.25,3.51
		c-0.153,1.207-0.303,2.177-0.45,2.91l-2.54-0.02c0.134-0.653,0.24-1.336,0.32-2.05c0.08-0.713,0.146-1.437,0.2-2.17h-6.76v-2.18
		H261.981z M254.302,24.912v-5.42h2.479v3.22h10.021v2.201H254.302z M266.302,14.611v5.7h-2.46v-13h2.46v5.1h2.28v2.2H266.302z"/>
</g>
<g>
	<path fill-rule="evenodd" clip-rule="evenodd" fill="#273B8B" d="M38.352,8.817c0.714,0.144,4.505,0.635,5.936,1.635
		c1.431,1,2.687,2.322,2.759,4.007c0.072,1.683-1.621,4.314-5.197,5.313c-3.577,1.004-6.246,2.051-6.246,1.774
		c0-0.131,0.052,1.303,0.29,2.781c0.267,1.677,0.73,3.493,0.881,4.635c0.288,2.144,1.577,8.438,1.006,9.869
		c-0.572,1.433-5.723,1.145-6.581,1.145c-0.858,0-13.66-0.504-14.803-0.362c-1.145,0.143-6.863,0.075-6.509,0.075
		c0.353,0-2.939,0-1.082-4.434c0.67-1.593,1.214-2.799,1.821-4.139c1.078-2.389,1.549-4.444,1.549-4.444l0.356-4.507
		c0,0,1.359-0.787-3.219-1.787c-4.577-1.002-8.058-2.05-8.298-4.579c-0.238-2.529,2.387-4.05,3.961-4.624
		c1.572-0.572,7.486-1.095,7.486-1.095s2.234-1.093,1.665-2.379c-0.235-0.523-0.882-1.053-1.054-1.851
		c-0.249-1.167-0.148-2.412,0.362-3.09c0.859-1.146,0.898-1.835,2.614-1.835c1.717,0,2.581,1.201,2.434,1.731l-0.638,2.275
		l-0.602,1.787L15.75,8.22c0,0-0.573,1.861,0.86,1.861c0.401,0,0.894,0.256,1.411,0.169c1.184-0.193,2.206-0.832,3.391-1.161
		c1.043-0.287,2.248-0.264,3.351-0.441c0,0,1.065-1.104,0.143-1.572c-0.924-0.47-0.891-3.463-0.954-3.733
		c-0.063-0.271-0.02-2.963,2.32-3.272c2.339-0.311,2.459,0.429,2.64,1.571c0.045,0.282,0.162,0.758,0.15,1.317
		c-0.027,1.073-0.29,2.19-0.325,2.259L28.25,6.124l-0.834,0.864c0,0-0.738,1.321,0.262,1.607c0.291,0.082,0.743,0.14,1.238,0.181
		c0.498,0.044,1.039,0.069,1.505,0.081c0.256,0.009,0.491-0.015,0.683-0.012c0.319,0.007,0.524,0.033,0.524,0.033
		c0.204,0.06,0.278,0.08,0.351,0.154c0.202,0.2,0.273,0.437,0.469,0.546c1.108,0.61,2.118-0.075,2.827-0.269
		c0,0,0.259,0.083,0.445-0.056c0.305-0.232,0.266-0.787,0.249-1.195c-0.005-0.15,0.129-0.42-0.049-0.521
		c-0.36-0.205-0.199-0.297-0.598-0.731c-0.183-0.198-0.611-0.568-0.877-1.051c-0.32-0.571-0.306-1.87-0.218-2.542
		c0.287-2.144,2.566-2.63,3.283-2.201c0.715,0.431,1.661,1.153,1.493,2.654c-0.167,1.503-0.477,2.678-0.514,2.56
		c0,0-0.11,0.613-0.686,1.147C37.492,7.663,38.083,8.763,38.352,8.817L38.352,8.817z"/>
	<path fill-rule="evenodd" clip-rule="evenodd" fill="#FFFFFF" d="M40.57,12.019c-0.859,0.107-0.174,0.707-0.628,1.88
		c-0.154,0.391-0.458,0.687-0.907,1.299c-1.7,2.329-2.398,3.927-2.398,3.927s0.542-0.044,1.338-0.245
		c0.793-0.204,1.672-0.512,2.671-1.154c0.673-0.433,1.399-0.602,1.97-0.907c1.126-0.604,1.979-1.307,1.6-2.16
		C43.646,13.37,41.713,11.876,40.57,12.019L40.57,12.019z"/>
	<path fill-rule="evenodd" clip-rule="evenodd" fill="#FCEE23" d="M32.127,14.341c0.656-0.497,1.278-1.229,1.863-1.732
		c0.456-0.395,0.888-0.607,1.326-0.671c1.001-0.142,2.104,0.582,1.304,1.72c-0.805,1.135-2.337,3.146-2.45,3.257
		c-0.11,0.109-1.795,1.693-1.795,2.98c0,0.477-1.216,0.36-2.433,0.309c-1.215-0.054-2.264,0.065-2.264,0.065
		s0.372-0.376,0.745-1.012c0.292-0.496,0.529-1.173,0.955-1.773C30.35,16.109,31.567,14.768,32.127,14.341L32.127,14.341z"/>
	<path fill-rule="evenodd" clip-rule="evenodd" fill="#FD882F" d="M24.982,11.888l3.786,0.05c0,0,1.227-0.014-0.578,1.86
		c-0.323,0.336-0.526,0.86-1.033,1.382c-0.427,0.436-0.684,0.938-0.945,1.389c-0.261,0.454-0.591,0.821-0.732,1.173
		c-1.367,3.352-1.435,2.036-1.435,2.036s-1.656-2.459-2.372-5.321C20.958,11.597,24.694,11.883,24.982,11.888L24.982,11.888z"/>
	<path fill-rule="evenodd" clip-rule="evenodd" fill="#1D9432" d="M13.892,15.37c-0.269-0.803-0.066-1.514,0.462-1.955
		c0.319-0.265,0.688-0.6,1.331-0.331c1.719,0.715,2.523,2.354,2.784,3.289c0.26,0.938,0.857,3.148,0.857,3.148s-2.433,0.143-3.718,0
		C14.32,19.377,14.32,16.661,13.892,15.37L13.892,15.37z"/>
	<path fill-rule="evenodd" clip-rule="evenodd" fill="#FCEE23" d="M26.669,24.431c0.738-0.604,1.852-0.859,2.476-1.119
		c0.711-0.293,1.307-0.655,1.911-0.704c1.026-0.081,0.435,1.358,0.537,2.208c0.05,0.397,0.073,1.335,0.186,1.829
		c0.128,0.56,0.35,0.7,0.439,1.538c0.101,0.96,0.235,1.948,0.301,2.888c0.077,1.064,0.032,2.449,0.1,3.276
		c0.102,1.289,0.032,1.851-0.459,1.851c-0.263,0-1.076,0.02-2.024,0.111c-1.219,0.121-2.681,0.325-3.672,0.385
		c-0.745,0.042-0.656-1.017-0.656-0.661c0,4.241,0.051-3.192,0.045-5.487c-0.001-1.296-0.128-2.595,0.051-3.691
		C26.086,25.727,26.173,24.839,26.669,24.431L26.669,24.431z"/>
	<path fill-rule="evenodd" clip-rule="evenodd" fill="#1D9432" d="M21.187,25.958c-0.032,0.258-0.061,0.84,0.05,1.422
		c0.065,0.352,0.291,0.633,0.291,1.049c-0.001,0.463-0.281,1.097-0.319,1.588c-0.124,1.603-0.154,3.062-0.363,3.693
		c-0.229,0.684-0.019,1.358-0.145,2.001c-0.111,0.566-0.258,0.915-0.571,0.918l-5.44,0.057c-0.402,0.004-0.237-1.035,0.291-2.172
		c0.225-0.483,0.073-1.145,0.226-1.547c0.288-0.761,0.634-1.801,1.048-2.919c0.302-0.817,0.627-1.666,0.581-2.45
		c-0.115-1.86-0.341-3.072-0.341-3.072l-0.118-2.346c0,0,0.556,0.14,1.448,0.387c0.537,0.146,1.133,0.241,1.67,0.615
		C20.926,24.182,21.33,24.813,21.187,25.958L21.187,25.958z"/>
	<path fill-rule="evenodd" clip-rule="evenodd" fill="#FFFFFF" d="M8.378,12.639c1.059-0.261,0.91,0.417,0.869,1.189
		c-0.035,0.684-0.04,1.088-0.042,1.108c-0.058,0.447,0.083,0.949,0.233,1.139c0.728,0.925,0.701,0.787,1.216,1.466
		c0.302,0.399,0.376,0.468,0.505,0.721c0.348,0.665-0.402,0.677-3.127-0.273c-0.541-0.187-1.727-0.538-2.57-1.114
		c-0.901-0.609-1.43-1.462-1.087-2.239C4.947,13.348,7.257,12.912,8.378,12.639L8.378,12.639z"/>
</g>
<g>
	<path opacity="0.5" fill="#010101" d="M58.411,35.417l0.758,0.191c-0.159,0.622-0.444,1.097-0.857,1.424s-0.917,0.49-1.514,0.49
		c-0.617,0-1.119-0.126-1.506-0.377s-0.681-0.615-0.883-1.092s-0.303-0.988-0.303-1.535c0-0.597,0.114-1.116,0.342-1.561
		s0.552-0.781,0.973-1.012s0.884-0.346,1.389-0.346c0.573,0,1.055,0.146,1.445,0.438s0.663,0.702,0.816,1.23l-0.746,0.176
		c-0.133-0.417-0.325-0.72-0.578-0.91s-0.57-0.285-0.953-0.285c-0.44,0-0.808,0.105-1.104,0.316s-0.503,0.494-0.623,0.85
		s-0.18,0.722-0.18,1.1c0,0.487,0.071,0.912,0.213,1.275s0.362,0.635,0.662,0.814s0.624,0.27,0.973,0.27
		c0.425,0,0.784-0.122,1.078-0.367S58.307,35.898,58.411,35.417z"/>
	<path opacity="0.5" fill="#010101" d="M59.726,37.425v-5.727h0.758v2.352h2.977v-2.352h0.758v5.727H63.46v-2.699h-2.977v2.699
		H59.726z"/>
	<path opacity="0.5" fill="#010101" d="M68.838,31.698h0.758v3.309c0,0.575-0.065,1.032-0.195,1.371s-0.365,0.614-0.705,0.826
		s-0.786,0.318-1.338,0.318c-0.536,0-0.976-0.093-1.316-0.277s-0.585-0.452-0.73-0.803s-0.219-0.829-0.219-1.436v-3.309h0.758v3.305
		c0,0.497,0.046,0.864,0.139,1.1s0.251,0.417,0.477,0.545s0.501,0.191,0.826,0.191c0.558,0,0.954-0.126,1.191-0.379
		s0.355-0.738,0.355-1.457V31.698z"/>
	<path opacity="0.5" fill="#010101" d="M70.449,37.425v-5.727h0.777l3.008,4.496v-4.496h0.727v5.727h-0.777l-3.008-4.5v4.5H70.449z"
		/>
	<path opacity="0.5" fill="#010101" d="M78.515,35.179v-0.672l2.426-0.004v2.125c-0.372,0.297-0.757,0.521-1.152,0.67
		s-0.802,0.225-1.219,0.225c-0.563,0-1.073-0.12-1.533-0.361s-0.807-0.589-1.041-1.045s-0.352-0.965-0.352-1.527
		c0-0.558,0.116-1.077,0.35-1.561s0.568-0.842,1.006-1.076s0.941-0.352,1.512-0.352c0.414,0,0.788,0.067,1.123,0.201
		s0.597,0.321,0.787,0.561s0.335,0.552,0.434,0.938l-0.684,0.188c-0.086-0.292-0.192-0.521-0.32-0.688s-0.31-0.3-0.547-0.4
		s-0.5-0.15-0.789-0.15c-0.347,0-0.646,0.053-0.898,0.158s-0.456,0.244-0.611,0.416s-0.275,0.36-0.361,0.566
		c-0.146,0.354-0.219,0.738-0.219,1.152c0,0.511,0.088,0.938,0.264,1.281s0.432,0.599,0.768,0.766s0.692,0.25,1.07,0.25
		c0.328,0,0.648-0.063,0.961-0.189s0.55-0.261,0.711-0.404v-1.066H78.515z"/>
	<path opacity="0.5" fill="#010101" d="M85.743,35.417l0.758,0.191c-0.159,0.622-0.444,1.097-0.857,1.424s-0.917,0.49-1.514,0.49
		c-0.617,0-1.119-0.126-1.506-0.377s-0.681-0.615-0.883-1.092s-0.303-0.988-0.303-1.535c0-0.597,0.114-1.116,0.342-1.561
		s0.552-0.781,0.973-1.012s0.884-0.346,1.389-0.346c0.573,0,1.055,0.146,1.445,0.438s0.663,0.702,0.816,1.23l-0.746,0.176
		c-0.133-0.417-0.325-0.72-0.578-0.91s-0.57-0.285-0.953-0.285c-0.44,0-0.808,0.105-1.104,0.316s-0.503,0.494-0.623,0.85
		s-0.18,0.722-0.18,1.1c0,0.487,0.071,0.912,0.213,1.275s0.362,0.635,0.662,0.814s0.624,0.27,0.973,0.27
		c0.425,0,0.784-0.122,1.078-0.367S85.639,35.898,85.743,35.417z"/>
	<path opacity="0.5" fill="#010101" d="M87.058,37.425v-5.727h0.758v2.352h2.977v-2.352h0.758v5.727h-0.758v-2.699h-2.977v2.699
		H87.058z"/>
	<path opacity="0.5" fill="#010101" d="M92.428,37.425v-5.727h4.141v0.676h-3.383v1.754h3.168V34.8h-3.168v1.949h3.516v0.676H92.428
		z"/>
	<path opacity="0.5" fill="#010101" d="M97.117,34.636c0-0.95,0.255-1.694,0.766-2.232s1.169-0.807,1.977-0.807
		c0.528,0,1.005,0.126,1.43,0.379s0.748,0.604,0.971,1.057s0.334,0.964,0.334,1.537c0,0.581-0.117,1.101-0.352,1.559
		s-0.566,0.806-0.996,1.041s-0.894,0.354-1.391,0.354c-0.539,0-1.021-0.13-1.445-0.391s-0.746-0.616-0.965-1.066
		S97.117,35.139,97.117,34.636z M97.898,34.647c0,0.69,0.186,1.233,0.557,1.631s0.837,0.596,1.396,0.596
		c0.57,0,1.04-0.2,1.408-0.602s0.553-0.97,0.553-1.707c0-0.466-0.079-0.873-0.236-1.221s-0.388-0.617-0.691-0.809
		s-0.644-0.287-1.021-0.287c-0.536,0-0.998,0.185-1.385,0.553S97.898,33.785,97.898,34.647z"/>
	<path opacity="0.5" fill="#010101" d="M103.163,37.425v-5.727h0.777l3.008,4.496v-4.496h0.727v5.727h-0.777l-3.008-4.5v4.5H103.163
		z"/>
	<path opacity="0.5" fill="#010101" d="M111.228,35.179v-0.672l2.426-0.004v2.125c-0.372,0.297-0.757,0.521-1.152,0.67
		s-0.802,0.225-1.219,0.225c-0.563,0-1.073-0.12-1.533-0.361s-0.807-0.589-1.041-1.045s-0.352-0.965-0.352-1.527
		c0-0.558,0.116-1.077,0.35-1.561s0.568-0.842,1.006-1.076s0.941-0.352,1.512-0.352c0.414,0,0.788,0.067,1.123,0.201
		s0.597,0.321,0.787,0.561s0.335,0.552,0.434,0.938l-0.684,0.188c-0.086-0.292-0.192-0.521-0.32-0.688s-0.31-0.3-0.547-0.4
		s-0.5-0.15-0.789-0.15c-0.347,0-0.646,0.053-0.898,0.158s-0.456,0.244-0.611,0.416s-0.275,0.36-0.361,0.566
		c-0.146,0.354-0.219,0.738-0.219,1.152c0,0.511,0.088,0.938,0.264,1.281s0.432,0.599,0.768,0.766s0.692,0.25,1.07,0.25
		c0.328,0,0.648-0.063,0.961-0.189s0.55-0.261,0.711-0.404v-1.066H111.228z"/>
	<path opacity="0.5" fill="#010101" d="M114.339,37.425v-5.727h2.148c0.438,0,0.788,0.058,1.053,0.174s0.472,0.294,0.621,0.535
		s0.225,0.493,0.225,0.756c0,0.245-0.066,0.476-0.199,0.691s-0.333,0.391-0.602,0.523c0.347,0.102,0.612,0.274,0.799,0.52
		s0.279,0.534,0.279,0.867c0,0.269-0.057,0.518-0.17,0.748s-0.253,0.408-0.42,0.533s-0.376,0.22-0.627,0.283
		s-0.56,0.096-0.924,0.096H114.339z M115.097,34.104h1.238c0.336,0,0.577-0.022,0.723-0.066c0.192-0.058,0.338-0.152,0.436-0.285
		s0.146-0.3,0.146-0.5c0-0.19-0.046-0.357-0.137-0.502s-0.222-0.243-0.391-0.297s-0.46-0.08-0.871-0.08h-1.145V34.104z
		 M115.097,36.749h1.426c0.245,0,0.417-0.009,0.516-0.027c0.175-0.031,0.32-0.083,0.438-0.156s0.214-0.179,0.289-0.318
		s0.113-0.3,0.113-0.482c0-0.214-0.055-0.399-0.164-0.557s-0.261-0.269-0.455-0.332s-0.474-0.096-0.838-0.096h-1.324V36.749z"/>
	<path opacity="0.5" fill="#010101" d="M123.064,31.698h0.758v3.309c0,0.575-0.065,1.032-0.195,1.371s-0.365,0.614-0.705,0.826
		s-0.786,0.318-1.338,0.318c-0.536,0-0.976-0.093-1.316-0.277s-0.585-0.452-0.73-0.803s-0.219-0.829-0.219-1.436v-3.309h0.758v3.305
		c0,0.497,0.046,0.864,0.139,1.1s0.251,0.417,0.477,0.545s0.501,0.191,0.826,0.191c0.558,0,0.954-0.126,1.191-0.379
		s0.355-0.738,0.355-1.457V31.698z"/>
	<path opacity="0.5" fill="#010101" d="M124.652,37.425v-5.727h0.758v2.84l2.844-2.84h1.027l-2.402,2.32l2.508,3.406h-1
		l-2.039-2.898l-0.938,0.914v1.984H124.652z"/>
	<path opacity="0.5" fill="#010101" d="M129.257,35.706v-0.707h2.16v0.707H129.257z"/>
	<path opacity="0.5" fill="#010101" d="M131.884,37.425v-5.727h1.973c0.445,0,0.785,0.027,1.02,0.082
		c0.328,0.075,0.608,0.212,0.84,0.41c0.302,0.255,0.528,0.581,0.678,0.979s0.225,0.851,0.225,1.361c0,0.435-0.051,0.82-0.152,1.156
		s-0.231,0.614-0.391,0.834s-0.333,0.394-0.521,0.52s-0.417,0.222-0.684,0.287s-0.573,0.098-0.92,0.098H131.884z M132.642,36.749
		h1.223c0.378,0,0.674-0.035,0.889-0.105s0.386-0.169,0.514-0.297c0.18-0.18,0.319-0.421,0.42-0.725s0.15-0.671,0.15-1.104
		c0-0.599-0.099-1.06-0.295-1.381s-0.436-0.537-0.717-0.646c-0.203-0.078-0.53-0.117-0.98-0.117h-1.203V36.749z"/>
	<path opacity="0.5" fill="#010101" d="M137.03,34.636c0-0.95,0.255-1.694,0.766-2.232s1.169-0.807,1.977-0.807
		c0.528,0,1.005,0.126,1.43,0.379s0.748,0.604,0.971,1.057s0.334,0.964,0.334,1.537c0,0.581-0.117,1.101-0.352,1.559
		s-0.566,0.806-0.996,1.041s-0.894,0.354-1.391,0.354c-0.539,0-1.021-0.13-1.445-0.391s-0.746-0.616-0.965-1.066
		S137.03,35.139,137.03,34.636z M137.812,34.647c0,0.69,0.186,1.233,0.557,1.631s0.837,0.596,1.396,0.596
		c0.57,0,1.04-0.2,1.408-0.602s0.553-0.97,0.553-1.707c0-0.466-0.079-0.873-0.236-1.221s-0.388-0.617-0.691-0.809
		s-0.644-0.287-1.021-0.287c-0.536,0-0.998,0.185-1.385,0.553S137.812,33.785,137.812,34.647z"/>
	<path opacity="0.5" fill="#010101" d="M144.906,37.425v-5.727h2.16c0.38,0,0.671,0.019,0.871,0.055
		c0.281,0.047,0.517,0.136,0.707,0.268s0.343,0.315,0.459,0.553s0.174,0.497,0.174,0.781c0,0.487-0.155,0.899-0.465,1.236
		s-0.87,0.506-1.68,0.506h-1.469v2.328H144.906z M145.664,34.421h1.48c0.489,0,0.837-0.091,1.043-0.273s0.309-0.438,0.309-0.77
		c0-0.239-0.061-0.444-0.182-0.615s-0.28-0.283-0.479-0.338c-0.128-0.034-0.363-0.051-0.707-0.051h-1.465V34.421z"/>
	<path opacity="0.5" fill="#010101" d="M153.601,31.698h0.758v3.309c0,0.575-0.065,1.032-0.195,1.371s-0.365,0.614-0.705,0.826
		s-0.786,0.318-1.338,0.318c-0.536,0-0.976-0.093-1.316-0.277s-0.585-0.452-0.73-0.803s-0.219-0.829-0.219-1.436v-3.309h0.758v3.305
		c0,0.497,0.046,0.864,0.139,1.1s0.251,0.417,0.477,0.545s0.501,0.191,0.826,0.191c0.558,0,0.954-0.126,1.191-0.379
		s0.355-0.738,0.355-1.457V31.698z"/>
	<path opacity="0.5" fill="#010101" d="M155.188,37.425v-5.727h2.148c0.438,0,0.788,0.058,1.053,0.174s0.472,0.294,0.621,0.535
		s0.225,0.493,0.225,0.756c0,0.245-0.066,0.476-0.199,0.691s-0.333,0.391-0.602,0.523c0.347,0.102,0.612,0.274,0.799,0.52
		s0.279,0.534,0.279,0.867c0,0.269-0.057,0.518-0.17,0.748s-0.253,0.408-0.42,0.533s-0.376,0.22-0.627,0.283
		s-0.56,0.096-0.924,0.096H155.188z M155.946,34.104h1.238c0.336,0,0.577-0.022,0.723-0.066c0.192-0.058,0.338-0.152,0.436-0.285
		s0.146-0.3,0.146-0.5c0-0.19-0.046-0.357-0.137-0.502s-0.222-0.243-0.391-0.297s-0.46-0.08-0.871-0.08h-1.145V34.104z
		 M155.946,36.749h1.426c0.245,0,0.417-0.009,0.516-0.027c0.175-0.031,0.32-0.083,0.438-0.156s0.214-0.179,0.289-0.318
		s0.113-0.3,0.113-0.482c0-0.214-0.055-0.399-0.164-0.557s-0.261-0.269-0.455-0.332s-0.474-0.096-0.838-0.096h-1.324V36.749z"/>
	<path opacity="0.5" fill="#010101" d="M160.124,37.425v-5.727h0.758v5.051h2.82v0.676H160.124z"/>
	<path opacity="0.5" fill="#010101" d="M164.334,37.425v-5.727h0.758v5.727H164.334z"/>
	<path opacity="0.5" fill="#010101" d="M170.113,35.417l0.758,0.191c-0.159,0.622-0.444,1.097-0.857,1.424s-0.917,0.49-1.514,0.49
		c-0.617,0-1.119-0.126-1.506-0.377s-0.681-0.615-0.883-1.092s-0.303-0.988-0.303-1.535c0-0.597,0.114-1.116,0.342-1.561
		s0.552-0.781,0.973-1.012s0.884-0.346,1.389-0.346c0.573,0,1.055,0.146,1.445,0.438s0.663,0.702,0.816,1.23l-0.746,0.176
		c-0.133-0.417-0.325-0.72-0.578-0.91s-0.57-0.285-0.953-0.285c-0.44,0-0.808,0.105-1.104,0.316s-0.503,0.494-0.623,0.85
		s-0.18,0.722-0.18,1.1c0,0.487,0.071,0.912,0.213,1.275s0.362,0.635,0.662,0.814s0.624,0.27,0.973,0.27
		c0.425,0,0.784-0.122,1.078-0.367S170.009,35.898,170.113,35.417z"/>
	<path opacity="0.5" fill="#010101" d="M173.196,37.425v-5.727h0.758v5.051h2.82v0.676H173.196z"/>
	<path opacity="0.5" fill="#010101" d="M177.405,37.425v-5.727h0.758v5.727H177.405z"/>
	<path opacity="0.5" fill="#010101" d="M179.068,37.425v-5.727h2.148c0.438,0,0.788,0.058,1.053,0.174s0.472,0.294,0.621,0.535
		s0.225,0.493,0.225,0.756c0,0.245-0.066,0.476-0.199,0.691s-0.333,0.391-0.602,0.523c0.347,0.102,0.612,0.274,0.799,0.52
		s0.279,0.534,0.279,0.867c0,0.269-0.057,0.518-0.17,0.748s-0.253,0.408-0.42,0.533s-0.376,0.22-0.627,0.283
		s-0.56,0.096-0.924,0.096H179.068z M179.826,34.104h1.238c0.336,0,0.577-0.022,0.723-0.066c0.192-0.058,0.338-0.152,0.436-0.285
		s0.146-0.3,0.146-0.5c0-0.19-0.046-0.357-0.137-0.502s-0.222-0.243-0.391-0.297s-0.46-0.08-0.871-0.08h-1.145V34.104z
		 M179.826,36.749h1.426c0.245,0,0.417-0.009,0.516-0.027c0.175-0.031,0.32-0.083,0.438-0.156s0.214-0.179,0.289-0.318
		s0.113-0.3,0.113-0.482c0-0.214-0.055-0.399-0.164-0.557s-0.261-0.269-0.455-0.332s-0.474-0.096-0.838-0.096h-1.324V36.749z"/>
	<path opacity="0.5" fill="#010101" d="M184.047,37.425v-5.727h2.539c0.511,0,0.898,0.052,1.164,0.154s0.478,0.284,0.637,0.545
		s0.238,0.548,0.238,0.863c0,0.406-0.132,0.749-0.395,1.027s-0.669,0.456-1.219,0.531c0.2,0.097,0.353,0.191,0.457,0.285
		c0.222,0.203,0.431,0.457,0.629,0.762l0.996,1.559h-0.953l-0.758-1.191c-0.222-0.344-0.403-0.606-0.547-0.789
		s-0.271-0.31-0.385-0.383s-0.229-0.124-0.346-0.152c-0.086-0.019-0.227-0.027-0.422-0.027h-0.879v2.543H184.047z M184.805,34.226
		h1.629c0.347,0,0.617-0.036,0.813-0.107s0.344-0.187,0.445-0.344s0.152-0.329,0.152-0.514c0-0.271-0.099-0.493-0.295-0.668
		s-0.507-0.262-0.932-0.262h-1.813V34.226z"/>
	<path opacity="0.5" fill="#010101" d="M188.784,37.425l2.199-5.727h0.816l2.344,5.727h-0.863l-0.668-1.734h-2.395l-0.629,1.734
		H188.784z M190.437,35.073h1.941l-0.598-1.586c-0.183-0.481-0.317-0.878-0.406-1.188c-0.073,0.367-0.176,0.731-0.309,1.094
		L190.437,35.073z"/>
	<path opacity="0.5" fill="#010101" d="M194.36,37.425v-5.727h2.539c0.511,0,0.898,0.052,1.164,0.154s0.478,0.284,0.637,0.545
		s0.238,0.548,0.238,0.863c0,0.406-0.132,0.749-0.395,1.027s-0.669,0.456-1.219,0.531c0.2,0.097,0.353,0.191,0.457,0.285
		c0.222,0.203,0.431,0.457,0.629,0.762l0.996,1.559h-0.953l-0.758-1.191c-0.222-0.344-0.403-0.606-0.547-0.789
		s-0.271-0.31-0.385-0.383s-0.229-0.124-0.346-0.152c-0.086-0.019-0.227-0.027-0.422-0.027h-0.879v2.543H194.36z M195.118,34.226
		h1.629c0.347,0,0.617-0.036,0.813-0.107s0.344-0.187,0.445-0.344s0.152-0.329,0.152-0.514c0-0.271-0.099-0.493-0.295-0.668
		s-0.507-0.262-0.932-0.262h-1.813V34.226z"/>
	<path opacity="0.5" fill="#010101" d="M201.194,37.425v-2.426l-2.207-3.301h0.922l1.129,1.727c0.208,0.323,0.402,0.646,0.582,0.969
		c0.172-0.3,0.38-0.637,0.625-1.012l1.109-1.684h0.883l-2.285,3.301v2.426H201.194z"/>
</g>
</svg>
