<?xml version="1.0" encoding="utf-8"?>
<!-- Generator: Adobe Illustrator 15.0.0, SVG Export Plug-In . SVG Version: 6.00 Build 0)  -->
<!DOCTYPE svg PUBLIC "-//W3C//DTD SVG 1.1//EN" "http://www.w3.org/Graphics/SVG/1.1/DTD/svg11.dtd">
<svg version="1.1" id="Layer_1" xmlns="http://www.w3.org/2000/svg" xmlns:xlink="http://www.w3.org/1999/xlink" x="0px" y="0px"
	 width="20px" height="40px" viewBox="0 0 20 40" enable-background="new 0 0 20 40" xml:space="preserve">
<path fill="#989898" d="M10,38c-2.135,0-4.144-0.811-5.657-2.283C2.833,34.242,2,32.283,2,30.2v-7.796h16V30.2
	c0,2.083-0.833,4.042-2.346,5.517C14.146,37.189,12.138,38,10,38z M3.201,23.574V30.2c0,1.771,0.708,3.436,1.991,4.689
	c1.285,1.251,2.993,1.939,4.808,1.939c1.816,0,3.525-0.688,4.805-1.939c1.287-1.255,1.995-2.919,1.995-4.689v-6.626H3.201z"/>
<path fill="#989898" d="M10.6,23.574H2V18.66c0-0.93,0.373-1.802,1.046-2.455c0.671-0.654,1.565-1.016,2.514-1.016h5.04V23.574z
	 M3.201,22.404h6.198V16.36H5.56c-0.628,0-1.219,0.239-1.667,0.675c-0.447,0.433-0.693,1.01-0.693,1.625V22.404z"/>
<path fill="#989898" d="M18,23.574H9.399v-8.385h5.039c0.951,0,1.843,0.361,2.517,1.018C17.628,16.861,18,17.732,18,18.66V23.574z
	 M10.6,22.404h6.2V18.66c0-0.613-0.246-1.19-0.693-1.623c-0.446-0.438-1.039-0.677-1.669-0.677H10.6V22.404z"/>
<path fill="#989898" d="M10.6,15.775H9.399v-1.847c0-0.647,0.26-1.258,0.73-1.72c0.46-0.453,1.104-0.713,1.767-0.713h3.608
	c0.35,0,0.671-0.131,0.909-0.367c0.248-0.24,0.387-0.564,0.387-0.895c0-0.334-0.135-0.651-0.383-0.892
	c-0.242-0.241-0.565-0.372-0.913-0.372H4.495c-0.664,0-1.291-0.252-1.764-0.709C2.26,7.805,2,7.193,2,6.539
	c0-0.648,0.259-1.258,0.728-1.717c0.473-0.461,1.1-0.713,1.767-0.713h3.608c0.343,0,0.676-0.135,0.914-0.367
	c0.247-0.241,0.382-0.559,0.382-0.896V1H10.6v1.847c0,0.649-0.26,1.26-0.732,1.722C9.407,5.02,8.763,5.279,8.104,5.279H4.495
	c-0.347,0-0.673,0.131-0.917,0.369C3.335,5.887,3.201,6.203,3.201,6.539c0,0.34,0.134,0.656,0.377,0.891
	c0.246,0.239,0.572,0.371,0.917,0.371h11.009c0.671,0,1.299,0.255,1.767,0.718C17.74,8.977,18,9.587,18,10.234
	c0,0.639-0.267,1.266-0.733,1.719c-0.461,0.458-1.088,0.713-1.763,0.713h-3.608c-0.343,0-0.677,0.135-0.914,0.367
	c-0.247,0.242-0.382,0.561-0.382,0.896V15.775z"/>
</svg>
