<?xml version="1.0" encoding="utf-8"?>
<!-- Generator: Adobe Illustrator 16.0.0, SVG Export Plug-In . SVG Version: 6.00 Build 0)  -->
<!DOCTYPE svg PUBLIC "-//W3C//DTD SVG 1.1//EN" "http://www.w3.org/Graphics/SVG/1.1/DTD/svg11.dtd">
<svg version="1.1" xmlns="http://www.w3.org/2000/svg" xmlns:xlink="http://www.w3.org/1999/xlink" x="0px" y="0px" width="114px"
	 height="114px" viewBox="0 0 114 114" enable-background="new 0 0 114 114" xml:space="preserve">
<g id="Layer_2">
	<path display="inline" d="M57.749,33.807H55.25v-2.051h2.498V33.807z"/>
	<path display="inline" d="M60.746,83.242h-8.493v-2.051h8.493V83.242z"/>
	<path display="inline" d="M71.775,86.998H41.227c-3.433,0-6.227-2.84-6.227-6.332V34.341C35,30.844,37.793,28,41.227,28h30.549
		C75.207,28,78,30.844,78,34.341v46.325C78,84.158,75.207,86.998,71.775,86.998z M41.227,30.05c-2.323,0-4.213,1.925-4.213,4.292
		v46.325c0,2.361,1.891,4.282,4.213,4.282h30.549c2.322,0,4.211-1.921,4.211-4.282V34.341c0-2.367-1.889-4.292-4.211-4.292H41.227z"
		/>
	<path display="inline" d="M73.492,79.485H39.508V35.513h33.984V79.485z M41.521,77.437h29.958V37.563H41.521V77.437z"/>
	<path display="inline" d="M56.5,68.32c-5.858,0-10.625-4.854-10.625-10.82S50.642,46.679,56.5,46.679
		c5.859,0,10.625,4.854,10.625,10.821S62.359,68.32,56.5,68.32z M56.5,48.729c-4.748,0-8.612,3.934-8.612,8.771
		c0,4.835,3.864,8.77,8.612,8.77c4.749,0,8.612-3.935,8.612-8.77C65.112,52.663,61.249,48.729,56.5,48.729z"/>
	<path display="inline" d="M55.264,62.139l-4.502-4.587l1.423-1.45l3.079,3.137l5.552-5.653l1.423,1.45L55.264,62.139z"/>
</g>
</svg>
