<?xml version="1.0" encoding="utf-8"?>
<!-- Generator: Adobe Illustrator 16.0.0, SVG Export Plug-In . SVG Version: 6.00 Build 0)  -->
<!DOCTYPE svg PUBLIC "-//W3C//DTD SVG 1.1//EN" "http://www.w3.org/Graphics/SVG/1.1/DTD/svg11.dtd">
<svg version="1.1" id="Layer_1" xmlns="http://www.w3.org/2000/svg" xmlns:xlink="http://www.w3.org/1999/xlink" x="0px" y="0px"
	 width="50px" height="50px" viewBox="0 0 50 50" enable-background="new 0 0 50 50" xml:space="preserve">
<g>
	<path fill="#121212" d="M36.895,20.124v-9.341c0-5.937-4.885-10.767-10.891-10.767c-6.004,0-10.89,4.83-10.89,10.767v9.341H7.507
		v29.892h36.995V20.124H36.895z M17.601,10.782c0-4.582,3.77-8.309,8.403-8.309c4.635,0,8.404,3.728,8.404,8.309v9.341H17.601
		V10.782z M42.017,47.558H9.993V22.582h32.024V47.558z"/>
	<path fill="#121212" d="M24.761,37.019v3.804h2.487v-3.804c1.61-0.521,2.785-2.004,2.785-3.768c0-2.196-1.808-3.982-4.029-3.982
		c-2.22,0-4.027,1.786-4.027,3.982C21.977,35.015,23.151,36.497,24.761,37.019z M26.004,31.727c0.851,0,1.543,0.684,1.543,1.524
		c0,0.84-0.692,1.524-1.543,1.524c-0.85,0-1.541-0.685-1.541-1.524C24.463,32.41,25.154,31.727,26.004,31.727z"/>
</g>
</svg>
