<?xml version="1.0" encoding="utf-8"?>
<!-- Generator: Adobe Illustrator 16.0.0, SVG Export Plug-In . SVG Version: 6.00 Build 0)  -->
<!DOCTYPE svg PUBLIC "-//W3C//DTD SVG 1.1//EN" "http://www.w3.org/Graphics/SVG/1.1/DTD/svg11.dtd">
<svg version="1.1" id="Layer_1" xmlns="http://www.w3.org/2000/svg" xmlns:xlink="http://www.w3.org/1999/xlink" x="0px" y="0px"
	 width="50px" height="50px" viewBox="0 0 50 50" enable-background="new 0 0 50 50" xml:space="preserve">
<path fill="#121212" d="M39.854,30.435c1.58-1.176,1.555-3.038,1.555-5.081c0-3.504-2.874-7.346-6.407-7.354
	c-3.488-0.009-6.585,2.722-6.762,6.731c-1-0.95-2.257-1.773-3.959-2.579c2.37-1.764,3.832-4.557,3.832-7.622
	c0-5.255-4.312-9.53-9.611-9.53C13.2,5,8.887,9.275,8.887,14.53c0,3.065,1.463,5.858,3.834,7.622C8.111,24.333,5,29.025,5,34.247
	v8.493C5,43.436,5.568,44,6.27,44c0.702,0,1.271-0.564,1.271-1.26v-8.493c0-5.084,3.633-9.551,8.638-10.621
	c0.562-0.12,0.972-0.598,1.001-1.166s-0.329-1.086-0.875-1.263c-2.917-0.944-4.877-3.623-4.877-6.667
	c0-3.866,3.174-7.012,7.074-7.012c3.899,0,7.071,3.146,7.071,7.012c0,3.044-1.959,5.724-4.875,6.667
	c-0.546,0.177-0.904,0.694-0.875,1.263s0.439,1.046,1.001,1.166c4.855,1.038,7.659,3.054,8.543,7.248
	C26.734,32.46,25,35.325,25,38.498v5.662c0,0.464,1.379,0.84,1.847,0.84s0.847-0.376,0.847-0.84v-5.662
	c0-3.39,2.422-6.367,5.759-7.081c0.374-0.08,0.647-0.398,0.667-0.777s-0.22-0.724-0.583-0.842c-1.944-0.629-3.251-2.415-3.251-4.444
	c0-2.577,2.115-4.675,4.716-4.675c2.6,0,3.714,2.098,3.714,4.675c0,2.029-0.306,3.815-2.25,4.444
	c-0.364,0.118-0.603,0.463-0.583,0.842s0.293,0.697,0.667,0.777c3.336,0.714,5.758,3.691,5.758,7.081v5.662
	c0,0.464,0.379,0.84,0.847,0.84S45,44.624,45,44.16v-5.662C45,35.017,42.926,31.889,39.854,30.435z M29.46,30.74
	c0,0.025,0.013,0.048,0.015,0.073c-0.005,0.003-0.01,0.006-0.015,0.009V30.74z"/>
</svg>
