<?xml version="1.0" encoding="utf-8"?>
<!-- Generator: Adobe Illustrator 21.0.0, SVG Export Plug-In . SVG Version: 6.00 Build 0)  -->
<svg version="1.1" id="Layer_1" xmlns="http://www.w3.org/2000/svg" xmlns:xlink="http://www.w3.org/1999/xlink" x="0px" y="0px"
	 viewBox="0 0 50 50" style="enable-background:new 0 0 50 50;" xml:space="preserve" width="50px" height="50px">
<style type="text/css">
	.st0{fill:#666666;}
	.st1{fill:#FFFFFF;}
	.st2{fill:#333333;}
	.st3{fill:#DFDFDE;}
</style>
<g>
	<path class="st0" d="M35,37.7H4.2c-2.3,0-4.2-1.9-4.2-4.2V11.2C0,8.9,1.9,7,4.2,7H35c2.3,0,4.2,1.9,4.2,4.2v22.4
		C39.2,35.8,37.3,37.7,35,37.7z"/>
	<g>
		<path class="st1" d="M6.6,11.8h2.4c1.5,0,2.7,0.4,2.7,1.8c0,0.7-0.4,1.4-1,1.6v0.1c0.8,0.2,1.4,0.8,1.4,1.8c0,1.5-1.2,2.2-2.9,2.2
			H6.6V11.8z M8.9,14.8c0.9,0,1.4-0.4,1.4-1c0-0.6-0.4-0.9-1.3-0.9H8.1v1.9H8.9z M9.1,18.1c1,0,1.6-0.4,1.6-1.1c0-0.7-0.5-1-1.6-1
			h-1v2.1L9.1,18.1L9.1,18.1z"/>
		<path class="st1" d="M13,15.5c0-2.4,1.4-3.8,3.3-3.8c2,0,3.3,1.4,3.3,3.8c0,2.4-1.4,3.9-3.3,3.9C14.4,19.4,13,17.9,13,15.5z
			 M18.1,15.5c0-1.6-0.7-2.5-1.8-2.5s-1.8,0.9-1.8,2.5c0,1.6,0.7,2.6,1.8,2.6S18.1,17.1,18.1,15.5z"/>
		<path class="st1" d="M20.7,15.5c0-2.4,1.4-3.8,3.3-3.8s3.3,1.4,3.3,3.8c0,2.4-1.4,3.9-3.3,3.9S20.7,17.9,20.7,15.5z M25.9,15.5
			c0-1.6-0.7-2.5-1.8-2.5c-1.1,0-1.8,0.9-1.8,2.5c0,1.6,0.7,2.6,1.8,2.6C25.1,18.1,25.9,17.1,25.9,15.5z"/>
		<path class="st1" d="M28.8,11.8h1.5v3.2h0l2.5-3.2h1.6l-2.3,2.9l2.7,4.5h-1.6l-1.9-3.3l-1,1.2v2.1h-1.5L28.8,11.8L28.8,11.8z"/>
	</g>
	<g>
		<path class="st2" d="M49.2,38.2C49.2,38.1,49.2,38.1,49.2,38.2l-0.1,2.3c-5.8-5.7-21.7,0.8-21.7,0.8H24
			c-10.4-6.7-21.5-0.8-21.5-0.8V38l-0.8,1.7V43h1.9c12.6-6,19.7,0,19.7,0h4c13.8-6.1,21,0,21,0H50v-2.6L49.2,38.2z"/>
		<path class="st3" d="M49.1,38c0-0.1-0.1-0.1-0.1-0.2c-0.3-0.3-1-0.8-2.2-1.6c-2.6-1.2-6-1.3-6-1.3C35.2,35,30.6,36.7,28,38
			c-1.5,0.7-2.3,1.3-2.3,1.3l-1-0.6c-0.4-0.2-0.9-0.5-1.3-0.7c-3.6-1.8-8-2.8-8-2.8C8.6,34,2.8,37,2.8,37l0.1-0.1
			c-0.1,0.1-0.2,0.2-0.3,0.3V38v2.5c0,0,11.1-5.8,21.5,0.8h3.5c0,0,15.8-6.5,21.7-0.8L49.1,38C49.1,38,49.1,38,49.1,38z"/>
		<path class="st1" d="M44,26.9c0,0-3.3-5-9.2-4.7c0,0-6.3-0.4-9.2,4.6c0,0-3.1-4-8.8-3.9c0,0-6.7-1-9.7,4.9l-4.4,9.2L2.8,37
			c0,0,5.8-3.1,12.6-1.8c0,0,4.4,1,8,2.8c0.4,0.2,0.9,0.5,1.3,0.7l1,0.6c0,0,0.8-0.6,2.3-1.3c2.6-1.2,7.2-3,12.8-3.1
			c0,0,3.4,0.1,6,1.3c0.8,0.4,1.6,0.9,2.2,1.6c0.1,0.1,0.2,0.2,0.2,0.2l0.1,0.2c0,0,0.1,0.1,0.1,0.1L44,26.9z"/>
	</g>
</g>
</svg>
