<?xml version="1.0" encoding="utf-8"?>
<!-- Generator: Adobe Illustrator 16.0.0, SVG Export Plug-In . SVG Version: 6.00 Build 0)  -->
<!DOCTYPE svg PUBLIC "-//W3C//DTD SVG 1.1//EN" "http://www.w3.org/Graphics/SVG/1.1/DTD/svg11.dtd">
<svg version="1.1" xmlns="http://www.w3.org/2000/svg" xmlns:xlink="http://www.w3.org/1999/xlink" x="0px" y="0px" width="114px"
	 height="114px" viewBox="0 0 114 114" enable-background="new 0 0 114 114" xml:space="preserve">
<g id="Layer_1">
	<path display="inline" d="M65.63,83.705H48.37V78h1.952v3.758h13.357V78h1.951V83.705z"/>
	<path display="inline" d="M69.022,83.705H44.978v-1.947h24.045V83.705z"/>
	<path display="inline" d="M84,69.128H30V34.806c0-0.747,0.292-1.451,0.821-1.982C31.357,32.291,32.063,32,32.814,32h48.374
		c0.752,0,1.459,0.292,1.988,0.823C83.707,33.355,84,34.06,84,34.806V69.128z M31.952,67.181h50.095V34.806
		c0-0.228-0.09-0.444-0.254-0.609c-0.16-0.161-0.376-0.25-0.605-0.25H32.814c-0.23,0-0.448,0.09-0.611,0.252
		c-0.161,0.161-0.251,0.378-0.251,0.606V67.181z"/>
	<path display="inline" d="M80.53,65.666H33.47V35.462H80.53V65.666z M35.422,63.719h43.156v-26.31H35.422V63.719z"/>
	<path display="inline" d="M81.188,75.236H32.813c-0.757,0-1.464-0.293-1.992-0.824C30.294,73.888,30,73.183,30,72.431v-5.25h54
		v5.25c0,0.751-0.294,1.456-0.826,1.985C82.649,74.943,81.942,75.236,81.188,75.236z M31.952,69.128v3.303
		c0,0.229,0.089,0.445,0.252,0.606c0.162,0.163,0.377,0.251,0.609,0.251h48.375c0.231,0,0.446-0.088,0.604-0.247
		c0.166-0.165,0.255-0.381,0.255-0.61v-3.303H31.952z"/>
	<g display="inline">
		<path d="M44.513,45.63h1.391v8.827h-1.391V45.63z"/>
		<path d="M47.379,50.56h3.166v1.02h-3.166V50.56z"/>
		<path d="M52.022,45.63h2.674c1.966,0,3.37,0.671,3.37,2.663c0,1.931-1.404,2.818-3.322,2.818h-1.331v3.346h-1.391V45.63z
			 M54.612,49.996c1.415,0,2.086-0.54,2.086-1.703c0-1.164-0.731-1.547-2.134-1.547h-1.151v3.25H54.612z"/>
		<path d="M59.544,45.63h1.392v8.827h-1.392V45.63z"/>
		<path d="M63.012,45.63h1.427l2.926,5.181l0.923,1.871h0.06c-0.071-0.912-0.179-1.979-0.179-2.938V45.63h1.318v8.827h-1.426
			l-2.927-5.205l-0.924-1.847h-0.06c0.072,0.912,0.18,1.931,0.18,2.891v4.162h-1.318V45.63z"/>
	</g>
</g>
</svg>
