<?xml version="1.0" encoding="utf-8"?>
<!-- Generator: Adobe Illustrator 16.0.0, SVG Export Plug-In . SVG Version: 6.00 Build 0)  -->
<!DOCTYPE svg PUBLIC "-//W3C//DTD SVG 1.1//EN" "http://www.w3.org/Graphics/SVG/1.1/DTD/svg11.dtd">
<svg version="1.1" id="Layer_1" xmlns="http://www.w3.org/2000/svg" xmlns:xlink="http://www.w3.org/1999/xlink" x="0px" y="0px"
	 width="50px" height="50px" viewBox="0 0 50 50" enable-background="new 0 0 50 50" xml:space="preserve">
<g>
	<rect x="23.734" y="3.18" fill="#121212" width="1.784" height="1.778"/>
	<rect x="20.951" y="45.042" fill="#121212" width="7.351" height="1.777"/>
	<path fill="#121212" d="M41.471,44.616c0,1.989-1.626,3.606-3.623,3.606H11.409c-2,0-3.626-1.617-3.626-3.606V33.552H5.999v11.064
		c0,2.97,2.426,5.384,5.41,5.384h26.438c2.98,0,5.407-2.414,5.407-5.384V33.552h-1.784V44.616z"/>
	<path fill="#121212" d="M37.848,0H11.409c-2.984,0-5.41,2.417-5.41,5.389v11.066h1.784V5.389c0-1.991,1.627-3.612,3.626-3.612
		h26.438c1.997,0,3.623,1.621,3.623,3.612v11.066h1.784V5.389C43.255,2.417,40.828,0,37.848,0z"/>
	<path fill="#121212" d="M9.9,43.64h29.454V6.362H9.9V43.64z M11.684,8.139h25.885v33.723H11.684V8.139z"/>
	<path fill="#121212" d="M24.627,18.954c-2.204,0-3.997,1.788-3.997,3.983c0,2.196,1.793,3.984,3.997,3.984s3.998-1.788,3.998-3.984
		C28.625,20.742,26.831,18.954,24.627,18.954z M24.627,25.143c-1.22,0-2.213-0.989-2.213-2.206c0-1.216,0.993-2.205,2.213-2.205
		c1.219,0,2.213,0.989,2.213,2.205C26.84,24.154,25.846,25.143,24.627,25.143z"/>
	<path fill="#121212" d="M24.627,14.829c-5.629,0-10.208,4.563-10.208,10.171s4.58,10.171,10.208,10.171S34.835,30.608,34.835,25
		S30.256,14.829,24.627,14.829z M21.411,32.755c0.075-0.739,0.385-1.428,0.92-1.96c0.613-0.611,1.428-0.947,2.296-0.947
		c0.868,0,1.683,0.337,2.298,0.947c0.534,0.532,0.844,1.221,0.919,1.96c-0.992,0.41-2.078,0.64-3.217,0.64
		C23.488,33.395,22.403,33.165,21.411,32.755z M29.485,31.846c-0.219-0.864-0.651-1.661-1.299-2.308
		c-0.953-0.947-2.216-1.469-3.56-1.469c-1.344,0-2.608,0.521-3.558,1.469c-0.649,0.646-1.081,1.443-1.301,2.308
		c-2.153-1.522-3.565-4.021-3.565-6.846c0-4.628,3.779-8.394,8.424-8.394c4.645,0,8.425,3.766,8.425,8.394
		C33.052,27.825,31.639,30.323,29.485,31.846z"/>
</g>
</svg>
