<?xml version="1.0" encoding="utf-8"?>
<!-- Generator: Adobe Illustrator 16.0.0, SVG Export Plug-In . SVG Version: 6.00 Build 0)  -->
<!DOCTYPE svg PUBLIC "-//W3C//DTD SVG 1.1//EN" "http://www.w3.org/Graphics/SVG/1.1/DTD/svg11.dtd">
<svg version="1.1" id="Layer_1" xmlns="http://www.w3.org/2000/svg" xmlns:xlink="http://www.w3.org/1999/xlink" x="0px" y="0px"
	 width="50px" height="50px" viewBox="0 0 50 50" enable-background="new 0 0 50 50" xml:space="preserve">
<g>
	<path fill="#999999" d="M38.799,1.504v1.698c2.491,0,4.519,2.045,4.519,4.559V46.8H12.042V8.609L34.278,8.61v-0.85
		c0-2.515,2.027-4.56,4.519-4.56V1.502H11.201c-3.42,0-6.202,2.807-6.203,6.258v0.85h5.36v39.889h34.644V7.761
		C45.002,4.311,42.219,1.504,38.799,1.504z M11.201,3.201h23.353c-1.012,0.959-1.705,2.256-1.902,3.711L6.762,6.91
		C7.157,4.801,8.997,3.201,11.201,3.201z"/>
	<polygon fill="#999999" points="27.714,26.461 23.819,22.531 22.628,23.732 27.714,28.863 35.045,21.467 33.854,20.266 	"/>
</g>
</svg>
