<?xml version="1.0" encoding="utf-8"?>
<!-- Generator: Adobe Illustrator 16.0.0, SVG Export Plug-In . SVG Version: 6.00 Build 0)  -->
<!DOCTYPE svg PUBLIC "-//W3C//DTD SVG 1.1//EN" "http://www.w3.org/Graphics/SVG/1.1/DTD/svg11.dtd">
<svg version="1.1" id="Layer_1" xmlns="http://www.w3.org/2000/svg" xmlns:xlink="http://www.w3.org/1999/xlink" x="0px" y="0px"
	 width="50px" height="50px" viewBox="0 0 50 50" enable-background="new 0 0 50 50" xml:space="preserve">
<g>
	<path fill="#111111" d="M49.715,3.889c-0.377-0.377-0.991-0.375-1.368,0.003l-25.14,25.25l-9.995-9.993
		c-0.378-0.378-0.99-0.378-1.368,0s-0.378,0.99,0,1.368l10.681,10.679c0.182,0.182,0.428,0.283,0.684,0.283c0,0,0.001,0,0.001,0
		c0.257,0,0.503-0.103,0.684-0.285L49.719,5.257C50.096,4.878,50.094,4.266,49.715,3.889z"/>
	<path fill="#111111" d="M43.349,16.438C44.486,19.066,45.12,21.96,45.12,25c0,11.921-9.697,21.62-21.62,21.62
		C11.579,46.62,1.88,36.923,1.88,25c0-11.921,9.699-21.62,21.62-21.62c5.45,0,10.432,2.032,14.238,5.37l1.329-1.333
		C34.918,3.739,29.467,1.5,23.5,1.5C10.542,1.5,0,12.042,0,25s10.542,23.5,23.5,23.5S47,37.958,47,25
		c0-3.569-0.802-6.953-2.232-9.986L43.349,16.438z"/>
</g>
</svg>
