<?xml version="1.0" encoding="utf-8"?>
<!-- Generator: Adobe Illustrator 16.0.0, SVG Export Plug-In . SVG Version: 6.00 Build 0)  -->
<!DOCTYPE svg PUBLIC "-//W3C//DTD SVG 1.1//EN" "http://www.w3.org/Graphics/SVG/1.1/DTD/svg11.dtd">
<svg version="1.1" id="Layer_1" xmlns="http://www.w3.org/2000/svg" xmlns:xlink="http://www.w3.org/1999/xlink" x="0px" y="0px"
	 width="50px" height="50px" viewBox="0 0 50 50" enable-background="new 0 0 50 50" xml:space="preserve">
<path fill="#121212" d="M37.23,44.5c-0.702,0-1.271-0.564-1.271-1.26v-8.493c0-5.084-3.631-9.551-8.637-10.621
	c-0.561-0.12-0.971-0.598-1-1.166s0.328-1.086,0.875-1.263c2.916-0.943,4.875-3.623,4.875-6.667c0-3.866-3.172-7.012-7.071-7.012
	c-3.9,0-7.074,3.146-7.074,7.012c0,3.044,1.96,5.723,4.877,6.667c0.546,0.177,0.904,0.694,0.875,1.263s-0.439,1.046-1,1.166
	c-5.006,1.07-8.639,5.538-8.639,10.621v8.493c0,0.695-0.568,1.26-1.271,1.26c-0.701,0-1.27-0.564-1.27-1.26v-8.493
	c0-5.222,3.111-9.914,7.721-12.095c-2.371-1.764-3.834-4.557-3.834-7.622c0-5.255,4.313-9.53,9.614-9.53
	c5.3,0,9.611,4.275,9.611,9.53c0,3.065-1.462,5.858-3.832,7.622c4.608,2.181,7.72,6.873,7.72,12.095v8.493
	C38.5,43.936,37.932,44.5,37.23,44.5z"/>
</svg>
