<?xml version="1.0" encoding="utf-8"?>
<!-- Generator: Adobe Illustrator 16.0.0, SVG Export Plug-In . SVG Version: 6.00 Build 0)  -->
<!DOCTYPE svg PUBLIC "-//W3C//DTD SVG 1.1//EN" "http://www.w3.org/Graphics/SVG/1.1/DTD/svg11.dtd">
<svg version="1.1" id="Layer_1" xmlns="http://www.w3.org/2000/svg" xmlns:xlink="http://www.w3.org/1999/xlink" x="0px" y="0px"
	 width="50px" height="50px" viewBox="0 0 50 50" enable-background="new 0 0 50 50" xml:space="preserve">
<g>
	<polygon fill="#111111" points="5.5,9.646 5.5,10.985 5.5,45 35.391,45 35.391,43.662 6.856,43.662 6.856,10.985 35.391,10.985 
		35.391,9.646 6.856,9.646 6.856,6.338 35.391,6.338 35.391,5 5.5,5 	"/>
	<rect x="13.732" y="7.323" fill="#111111" width="1.355" height="1.338"/>
	<rect x="11.022" y="7.323" fill="#111111" width="1.355" height="1.338"/>
	<rect x="8.311" y="7.323" fill="#111111" width="1.355" height="1.338"/>
	<polygon fill="#111111" points="8.311,42.227 35.391,42.227 35.391,40.889 9.667,40.889 9.667,13.762 35.391,13.762 35.391,12.423 
		8.311,12.423 	"/>
	<rect x="18.13" y="16.245" fill="#111111" width="13.841" height="1.338"/>
	<rect x="18.13" y="19.219" fill="#111111" width="6.92" height="1.339"/>
	<polygon fill="#111111" points="16.146,16.569 13.872,18.814 12.586,17.544 11.628,18.49 13.872,20.707 17.104,17.516 	"/>
	<rect x="18.13" y="22.193" fill="#111111" width="13.841" height="1.339"/>
	<rect x="18.13" y="25.167" fill="#111111" width="6.92" height="1.339"/>
	<polygon fill="#111111" points="12.586,23.492 11.628,24.438 13.872,26.654 17.104,23.464 16.146,22.518 13.872,24.763 	"/>
	<path fill="#111111" d="M43.904,5.588C43.521,5.209,43.01,5,42.467,5h-2.711c-0.542,0-1.053,0.209-1.438,0.588
		c-0.383,0.379-0.596,0.884-0.596,1.42v3.309v0.669V39.07l3.389,5.854L44.5,39.07V10.985v-0.669V7.008
		C44.5,6.472,44.289,5.967,43.904,5.588z M39.079,7.008c0-0.179,0.071-0.347,0.198-0.474c0.129-0.126,0.298-0.196,0.479-0.196h2.711
		c0.182,0,0.352,0.069,0.479,0.196c0.13,0.127,0.199,0.295,0.199,0.474v2.639H39.08L39.079,7.008L39.079,7.008z M40.434,10.985
		v24.953l-1.354,1.338V10.985H40.434z M39.246,39.004l1.865-1.842l1.865,1.843l-1.865,3.224L39.246,39.004z M43.145,37.277
		l-1.354-1.34V10.985h1.354V37.277z"/>
</g>
</svg>
