<?xml version="1.0" encoding="utf-8"?>
<!-- Generator: Adobe Illustrator 15.0.0, SVG Export Plug-In . SVG Version: 6.00 Build 0)  -->
<!DOCTYPE svg PUBLIC "-//W3C//DTD SVG 1.1//EN" "http://www.w3.org/Graphics/SVG/1.1/DTD/svg11.dtd">
<svg version="1.1" id="Layer_1" xmlns="http://www.w3.org/2000/svg" xmlns:xlink="http://www.w3.org/1999/xlink" x="0px" y="0px"
	 width="20px" height="40px" viewBox="0 0 20 40" enable-background="new 0 0 20 40" xml:space="preserve">
<path fill="#989898" d="M20,35H0V15.804h20V35z M0.971,33.957h18.058V16.848H0.971V33.957z"/>
<path fill="#989898" d="M10,26.176c-1.061,0-1.924-0.928-1.924-2.066S8.939,22.044,10,22.044c1.06,0,1.925,0.927,1.925,2.065
	S11.061,26.176,10,26.176z M10,23.086c-0.525,0-0.953,0.459-0.953,1.023S9.475,25.133,10,25.133s0.952-0.459,0.952-1.023
	S10.526,23.086,10,23.086z"/>
<path fill="#989898" d="M10.486,28.238H9.515v-2.586h0.971V28.238z"/>
<path fill="#989898" d="M19.514,20.25H0.486v-1.041h19.028V20.25z"/>
<path fill="#989898" d="M19.514,31.594H0.486v-1.041h19.028V31.594z"/>
<path fill="#989898" d="M16.525,16.848h-2.697v-4.844c0-1.098-0.398-2.13-1.121-2.905C11.984,8.323,11.021,7.896,10,7.896
	c-1.023,0-1.984,0.427-2.708,1.204c-0.722,0.775-1.121,1.807-1.121,2.905v4.844H3.474v-4.844c0-1.871,0.679-3.631,1.911-4.954
	C6.619,5.728,8.257,5,10,5c1.742,0,3.382,0.728,4.615,2.05c1.232,1.323,1.91,3.083,1.91,4.954V16.848z M14.799,15.804h0.756v-3.8
	c0-1.593-0.576-3.09-1.627-4.215C12.879,6.662,11.484,6.042,10,6.042c-1.484,0-2.878,0.62-3.928,1.747
	c-1.049,1.125-1.627,2.623-1.627,4.215v3.8h0.756v-3.8c0-1.377,0.499-2.67,1.405-3.643C7.513,7.388,8.719,6.853,10,6.853
	c1.283,0,2.486,0.536,3.394,1.509c0.906,0.972,1.404,2.267,1.404,3.643V15.804z"/>
</svg>
