<?xml version="1.0" encoding="utf-8"?>
<!-- Generator: Adobe Illustrator 16.0.0, SVG Export Plug-In . SVG Version: 6.00 Build 0)  -->
<!DOCTYPE svg PUBLIC "-//W3C//DTD SVG 1.1//EN" "http://www.w3.org/Graphics/SVG/1.1/DTD/svg11.dtd">
<svg version="1.1" xmlns="http://www.w3.org/2000/svg" xmlns:xlink="http://www.w3.org/1999/xlink" x="0px" y="0px" width="54px"
	 height="54px" viewBox="0 0 54 54" enable-background="new 0 0 54 54" xml:space="preserve">
<g id="Layer_3">
	<path display="inline" fill="#aaaaaa" d="M46.048,52H7.952C6.875,52,6,51.121,6,50.04V3.96C6,2.879,6.875,2,7.952,2h38.096
		C47.124,2,48,2.879,48,3.96v46.08C48,51.121,47.124,52,46.048,52z M46,3.96L7.952,4L8,50.04L46,50V3.96z"/>
	
		<line display="inline" fill="none" stroke="#aaaaaa" stroke-width="2" stroke-linecap="round" stroke-miterlimit="10" x1="21" y1="10" x2="33" y2="10"/>
	
		<line display="inline" fill="none" stroke="#aaaaaa" stroke-width="2" stroke-linecap="round" stroke-miterlimit="10" x1="15" y1="18" x2="39" y2="18"/>
	
		<line display="inline" fill="none" stroke="#aaaaaa" stroke-width="2" stroke-linecap="round" stroke-miterlimit="10" x1="15" y1="26" x2="39" y2="26"/>
	
		<line display="inline" fill="none" stroke="#aaaaaa" stroke-width="2" stroke-linecap="round" stroke-miterlimit="10" x1="15" y1="34" x2="39" y2="34"/>
	
		<line display="inline" fill="none" stroke="#aaaaaa" stroke-width="2" stroke-linecap="round" stroke-miterlimit="10" x1="15" y1="42" x2="39" y2="42"/>
</g>
</svg>
