<?xml version="1.0" encoding="utf-8"?>
<!-- Generator: Adobe Illustrator 16.0.0, SVG Export Plug-In . SVG Version: 6.00 Build 0)  -->
<!DOCTYPE svg PUBLIC "-//W3C//DTD SVG 1.1//EN" "http://www.w3.org/Graphics/SVG/1.1/DTD/svg11.dtd">
<svg version="1.1" xmlns="http://www.w3.org/2000/svg" xmlns:xlink="http://www.w3.org/1999/xlink" x="0px" y="0px" width="54px"
	 height="54px" viewBox="0 0 54 54" enable-background="new 0 0 54 54" xml:space="preserve">
<g id="Layer_5">
	<path display="inline" fill="none" stroke="#aaaaaa" stroke-width="2" stroke-linejoin="round" stroke-miterlimit="10" d="
		M44.934,4H9.067C4.619,4,1,7.589,1,12v20C1,36.412,4.619,40,9.067,40H21v3h-9c-1.657,0-3,1.343-3,3s1.343,3,3,3h30
		c1.657,0,3-1.343,3-3s-1.343-3-3-3h-9v-3h11.934C49.381,40,53,36.412,53,32.001V12C53,7.589,49.381,4,44.934,4z M47.113,32.001
		c0,1.103-0.979,1.999-2.18,1.999H9.067c-1.202,0-2.181-0.896-2.181-1.999V12c0-1.103,0.979-2,2.181-2h35.866
		c1.201,0,2.18,0.897,2.18,2V32.001z"/>
</g>
</svg>
