<?xml version="1.0" encoding="utf-8"?>
<!-- Generator: Adobe Illustrator 16.0.0, SVG Export Plug-In . SVG Version: 6.00 Build 0)  -->
<!DOCTYPE svg PUBLIC "-//W3C//DTD SVG 1.1//EN" "http://www.w3.org/Graphics/SVG/1.1/DTD/svg11.dtd">
<svg version="1.1" id="Layer_1" xmlns="http://www.w3.org/2000/svg" xmlns:xlink="http://www.w3.org/1999/xlink" x="0px" y="0px"
	 width="110px" height="110px" viewBox="0 0 110 110" enable-background="new 0 0 110 110" xml:space="preserve">
<path d="M59.201,95.596h-27.71v-9.127h3.134v6.012h21.443v-6.012h3.134V95.596z"/>
<path d="M64.646,95.596H26.045V92.48h38.601V95.596z"/>
<path d="M88.691,73.404H2V18.49c0-1.195,0.469-2.321,1.319-3.172C4.179,14.466,5.313,14,6.517,14h77.66
	c1.209,0,2.343,0.468,3.193,1.317c0.852,0.851,1.321,1.978,1.321,3.172V73.404z M5.134,70.289h80.424V18.49
	c0-0.365-0.145-0.711-0.408-0.974c-0.259-0.258-0.604-0.4-0.973-0.4H6.517c-0.37,0-0.718,0.144-0.981,0.404
	c-0.258,0.257-0.402,0.604-0.402,0.97V70.289z"/>
<path d="M83.12,67.865H7.571V19.539H83.12V67.865z M10.704,64.749h69.283V22.655H10.704V64.749z"/>
<path d="M84.177,83.178H6.516c-1.214,0-2.35-0.469-3.197-1.318C2.472,81.021,2,79.893,2,78.688v-8.399h86.691v8.399
	c0,1.202-0.471,2.329-1.325,3.178C86.524,82.71,85.39,83.178,84.177,83.178z M5.134,73.404v5.284c0,0.368,0.143,0.713,0.404,0.97
	c0.261,0.263,0.605,0.402,0.978,0.402h77.661c0.371,0,0.717-0.14,0.972-0.395c0.266-0.265,0.409-0.609,0.409-0.978v-5.284H5.134z"/>
<path d="M106.464,80.394h-8.19v-3.099h8.19V80.394z"/>
<path d="M102.368,88.999c-1.504,0-2.919-0.591-3.981-1.663c-1.064-1.074-1.65-2.5-1.65-4.017V28.78l5.632-5.68L108,28.78v54.539
	c0,1.517-0.586,2.942-1.649,4.017C105.287,88.408,103.873,88.999,102.368,88.999z M99.809,30.063v53.256
	c0,0.688,0.267,1.337,0.75,1.825c0.968,0.977,2.653,0.976,3.619,0.001c0.484-0.489,0.751-1.138,0.751-1.826V30.063l-2.561-2.583
	L99.809,30.063z"/>
<path d="M103.904,25.292h-3.072v-4.298h3.072V25.292z"/>
<path d="M106.464,36.549h-8.19v-3.098h8.19V36.549z"/>
<g>
	<path d="M32,43.582C32,38.841,34.621,36,38.401,36s6.421,2.841,6.421,7.582c0,4.741-2.641,7.682-6.421,7.682S32,48.323,32,43.582z
		 M42.442,43.582c0-3.461-1.601-5.562-4.041-5.562s-4.021,2.101-4.021,5.562c0,3.46,1.581,5.661,4.021,5.661
		S42.442,47.042,42.442,43.582z"/>
	<path d="M47.48,36.28h2.321v6.961h0.06l5.602-6.961h2.581l-4.561,5.681l5.321,9.042h-2.58l-4.162-7.202l-2.26,2.761v4.441H47.48
		V36.28z"/>
</g>
</svg>
