<?xml version="1.0" encoding="utf-8"?>
<!-- Generator: Adobe Illustrator 16.0.0, SVG Export Plug-In . SVG Version: 6.00 Build 0)  -->
<!DOCTYPE svg PUBLIC "-//W3C//DTD SVG 1.1//EN" "http://www.w3.org/Graphics/SVG/1.1/DTD/svg11.dtd">
<svg version="1.1" xmlns="http://www.w3.org/2000/svg" xmlns:xlink="http://www.w3.org/1999/xlink" x="0px" y="0px" width="54px"
	 height="54px" viewBox="0 0 54 54" enable-background="new 0 0 54 54" xml:space="preserve">
<g id="Layer_4">
	
		<polyline display="inline" fill="none" stroke="#aaaaaa" stroke-width="2" stroke-linecap="round" stroke-linejoin="round" stroke-miterlimit="10" points="
		52.688,6.212 25.991,33.026 14.95,21.986 	"/>
	<g display="inline">		
		<path  fill="#aaaaaa" d="M48.115,17.892C49.325,20.687,50,23.766,50,27c0,12.682-10.317,23-23,23C14.318,50,4,39.683,4,27C4,14.318,14.318,4,27,4
			c5.798,0,11.098,2.161,15.146,5.713l1.414-1.419C39.146,4.382,33.348,2,27,2C13.215,2,2,13.215,2,27c0,13.785,11.215,25,25,25
			s25-11.215,25-25c0-3.797-0.854-7.397-2.376-10.624L48.115,17.892z"/>
	</g>
</g>
</svg>
