<?xml version="1.0" encoding="utf-8"?>
<!-- Generator: Adobe Illustrator 16.0.0, SVG Export Plug-In . SVG Version: 6.00 Build 0)  -->
<!DOCTYPE svg PUBLIC "-//W3C//DTD SVG 1.1//EN" "http://www.w3.org/Graphics/SVG/1.1/DTD/svg11.dtd">
<svg version="1.1" id="Layer_1" xmlns="http://www.w3.org/2000/svg" xmlns:xlink="http://www.w3.org/1999/xlink" x="0px" y="0px"
	 width="270px" height="40px" viewBox="0 0 270 40" enable-background="new 0 0 270 40" xml:space="preserve">
<g>
	<path fill="#FFFFFF" d="M63.183,17.931v1.38c1.813,0.107,3.137,0.464,3.97,1.07c0.833,0.605,1.25,1.277,1.25,2.01
		c0,0.881-0.563,1.623-1.69,2.23s-2.797,0.91-5.01,0.91s-3.894-0.303-5.04-0.91c-1.147-0.607-1.72-1.35-1.72-2.23
		c0-0.785,0.433-1.466,1.3-2.04c0.867-0.573,2.187-0.92,3.96-1.04v-1.38h-6.86v-1.979h16.72v1.979H63.183z M63.843,11.792
		c0.653,0.56,1.466,0.94,2.44,1.14c0.973,0.2,1.926,0.354,2.86,0.46c-0.227,0.293-0.48,0.613-0.76,0.96
		c-0.28,0.347-0.5,0.626-0.66,0.839c-1.053-0.105-2.184-0.363-3.39-0.77c-1.206-0.407-2.083-0.896-2.63-1.47
		c-0.613,0.574-1.48,1.06-2.6,1.46c-1.12,0.4-2.293,0.66-3.52,0.779c-0.2-0.252-0.437-0.56-0.71-0.919s-0.523-0.66-0.75-0.9
		c1.067-0.067,2.133-0.253,3.2-0.56c1.066-0.307,1.82-0.646,2.26-1.02h-4.56v-1.88h13.26v1.88L63.843,11.792L63.843,11.792z
		 M58.813,23.322c0.687,0.205,1.65,0.309,2.89,0.309c1.2,0,2.153-0.104,2.86-0.309c0.707-0.207,1.06-0.512,1.06-0.911
		c0-0.427-0.354-0.743-1.06-0.95s-1.66-0.311-2.86-0.311c-1.24,0-2.204,0.101-2.89,0.301c-0.686,0.199-1.03,0.513-1.03,0.939
		C57.783,22.805,58.126,23.115,58.813,23.322z M58.063,8.892v-1.86h7.22v1.86H58.063z"/>
	<path fill="#FFFFFF" d="M78.463,12.231c0.213,0.88,0.746,1.647,1.6,2.3c0.854,0.654,1.747,1.081,2.68,1.28
		c-0.239,0.294-0.493,0.607-0.76,0.94s-0.507,0.634-0.72,0.9c-0.813-0.267-1.573-0.667-2.28-1.2c-0.707-0.533-1.293-1.087-1.76-1.66
		c-0.4,0.693-0.994,1.356-1.78,1.99c-0.787,0.633-1.634,1.123-2.54,1.47c-0.213-0.267-0.477-0.576-0.79-0.93
		s-0.624-0.663-0.93-0.931c0.987-0.267,1.957-0.767,2.91-1.5c0.953-0.733,1.517-1.62,1.69-2.66h-3.32v-2.04h9.319v2.04
		L78.463,12.231L78.463,12.231z M75.823,24.531c-1.12-0.652-1.68-1.494-1.68-2.521s0.56-1.863,1.68-2.51
		c1.12-0.647,2.747-0.97,4.88-0.97c2.146,0,3.77,0.323,4.869,0.97c1.101,0.646,1.65,1.483,1.65,2.51s-0.55,1.868-1.65,2.521
		c-1.1,0.652-2.723,0.979-4.869,0.979C78.569,25.512,76.943,25.184,75.823,24.531z M74.403,9.151v-1.92h5.56v1.92H74.403z
		 M77.903,23.182c0.693,0.26,1.633,0.392,2.82,0.392c1.16,0,2.073-0.132,2.74-0.392c0.666-0.26,1-0.644,1-1.149
		c0-0.507-0.334-0.894-1-1.16c-0.667-0.267-1.58-0.4-2.74-0.4c-1.187,0-2.127,0.133-2.82,0.4c-0.694,0.267-1.04,0.653-1.04,1.16
		C76.863,22.538,77.209,22.921,77.903,23.182z M84.603,18.532v-3.94h-2.34v-2.06h2.34v-5.2h2.48v11.2H84.603z"/>
	<path fill="#FFFFFF" d="M98.923,18.032v1.38h5.1v5.92h-2.6v-3.741h-10.24v-2.18h5.12v-1.36h-6.96v-2.2h16.72v2.181H98.923z
		 M91.282,7.451h2.44v1.62h7.92v-1.62h2.48v7.26h-12.84V7.451z M101.643,11.131h-7.92v1.44h7.92V11.131z"/>
	<path fill="#FFFFFF" d="M107.343,23.451v-2.2h7.06v-3.98h-5v-9.24h12.7v2.18h-10.2v4.88h10.36v2.18h-5.28v3.98h7.08v2.2H107.343z"
		/>
	<path fill="#FFFFFF" d="M125.343,23.432v-2.18h3.26v-6.16h2.521v6.16h1.899v-6.16h2.54v6.16h6.5v2.18H125.343z M140.361,8.271
		c-0.053,1.693-0.155,3.497-0.31,5.41c-0.153,1.914-0.37,3.684-0.649,5.311l-2.521,0.02c0.228-1.387,0.413-2.847,0.56-4.38
		c0.147-1.533,0.233-2.927,0.262-4.18h-10.7v-2.18L140.361,8.271L140.361,8.271z"/>
	<path fill="#FFFFFF" d="M156.021,17.731v1.761h2.021v5.859h-2.601v-3.68h-10.359v-2.18h2.279v-1.761h-4.021v-2.159h16.72v2.159
		H156.021z M146.802,13.602c-1.214-0.673-1.819-1.563-1.819-2.67c0-1.026,0.605-1.893,1.819-2.6s2.841-1.06,4.88-1.06
		c2.066,0,3.696,0.354,4.891,1.06c1.193,0.706,1.789,1.58,1.789,2.62c0,1.094-0.596,1.977-1.789,2.65s-2.823,1.01-4.891,1.01
		C149.643,14.611,148.016,14.275,146.802,13.602z M148.882,12.191c0.681,0.333,1.613,0.5,2.8,0.5c1.174,0,2.101-0.167,2.78-0.5
		c0.681-0.333,1.021-0.747,1.021-1.24c0-0.546-0.354-0.977-1.061-1.29c-0.707-0.313-1.627-0.47-2.76-0.47
		c-1.094,0-2,0.164-2.721,0.49c-0.721,0.327-1.08,0.75-1.08,1.27C147.861,11.445,148.202,11.858,148.882,12.191z M153.563,17.731
		h-3.74v1.761h3.74V17.731z"/>
	<path fill="#FFFFFF" d="M168.462,12.231c0.213,0.88,0.746,1.647,1.601,2.3c0.854,0.654,1.746,1.081,2.68,1.28
		c-0.239,0.294-0.493,0.607-0.76,0.94c-0.268,0.333-0.508,0.634-0.721,0.9c-0.813-0.267-1.572-0.667-2.279-1.2
		c-0.707-0.533-1.293-1.087-1.76-1.66c-0.4,0.693-0.994,1.356-1.781,1.99c-0.785,0.633-1.633,1.123-2.539,1.47
		c-0.213-0.267-0.478-0.576-0.791-0.93c-0.313-0.354-0.622-0.663-0.93-0.931c0.986-0.267,1.957-0.767,2.91-1.5
		s1.518-1.62,1.689-2.66h-3.319v-2.04h9.319v2.04L168.462,12.231L168.462,12.231z M165.82,24.531
		c-1.118-0.652-1.68-1.494-1.68-2.521s0.562-1.863,1.68-2.51c1.121-0.646,2.748-0.97,4.882-0.97c2.146,0,3.771,0.323,4.868,0.97
		c1.102,0.646,1.65,1.483,1.65,2.51s-0.55,1.868-1.65,2.521c-1.1,0.652-2.723,0.979-4.868,0.979
		C168.568,25.512,166.941,25.184,165.82,24.531z M164.4,9.151v-1.92h5.562v1.92H164.4z M167.9,23.182
		c0.693,0.26,1.635,0.392,2.82,0.392c1.16,0,2.073-0.132,2.74-0.392c0.666-0.26,1-0.644,1-1.149c0-0.507-0.334-0.894-1-1.16
		c-0.667-0.267-1.58-0.4-2.74-0.4c-1.187,0-2.127,0.133-2.82,0.4c-0.692,0.267-1.039,0.653-1.039,1.16
		C166.861,22.538,167.208,22.921,167.9,23.182z M174.602,18.532v-3.94h-2.34v-2.06h2.34v-5.2h2.48v11.2H174.602z"/>
	<path fill="#FFFFFF" d="M179.342,18.471v-2.02h7.061v-1.3h-5.021v-7.54h12.66v1.84H183.98v1.04h9.961v1.72h-9.961v1.04h10.24v1.88
		h-5.1v1.3h6.939v2.04H179.342z M182.662,20.032c1.119-0.601,2.779-0.9,4.979-0.9c2.213,0,3.891,0.3,5.03,0.9
		c1.14,0.6,1.71,1.366,1.71,2.3c0,0.92-0.566,1.68-1.699,2.279c-1.135,0.601-2.808,0.9-5.021,0.9c-2.2,0-3.864-0.301-4.99-0.9
		c-1.127-0.6-1.69-1.358-1.69-2.279C180.98,21.398,181.542,20.631,182.662,20.032z M184.832,23.23c0.688,0.188,1.63,0.28,2.83,0.28
		c1.188,0,2.133-0.094,2.84-0.28c0.706-0.187,1.061-0.479,1.061-0.879c0-0.439-0.354-0.761-1.061-0.961
		c-0.707-0.199-1.652-0.3-2.84-0.3c-1.214,0-2.16,0.101-2.842,0.3c-0.68,0.2-1.02,0.521-1.02,0.961
		C183.802,22.751,184.145,23.045,184.832,23.23z"/>
	<path fill="#FFFFFF" d="M197.962,11.771v-1.84h10.56v1.84H197.962z M199.771,13.111c0.927-0.506,2.09-0.76,3.49-0.76
		c1.467,0,2.633,0.25,3.5,0.75c0.865,0.5,1.299,1.123,1.299,1.87c0,0.76-0.437,1.4-1.31,1.92c-0.874,0.521-2.05,0.78-3.53,0.78
		c-1.373,0-2.522-0.263-3.449-0.79c-0.928-0.526-1.391-1.156-1.391-1.89C198.382,14.245,198.846,13.618,199.771,13.111z
		 M200.361,25.092v-6.64h2.459v1.359h7.041v-1.359h2.459v6.64H200.361z M200.4,9.071v-1.84h5.621v1.84H200.4z M201.602,15.742
		c0.4,0.153,0.946,0.229,1.641,0.229c0.707,0,1.254-0.08,1.641-0.24c0.387-0.159,0.58-0.413,0.58-0.76c0-0.333-0.193-0.58-0.58-0.74
		s-0.934-0.24-1.641-0.24c-0.693,0-1.239,0.08-1.641,0.24c-0.398,0.16-0.6,0.414-0.6,0.76
		C201.002,15.337,201.202,15.588,201.602,15.742z M209.861,21.711h-7.041v1.4h7.041V21.711z M212.32,13.852v3.879h-2.459V7.332
		h2.459v4.36h2.281v2.16H212.32z"/>
	<path fill="#FFFFFF" d="M215.342,23.451v-2.2h7.061v-3.98h-5v-9.24h12.699v2.18h-10.199v4.88h10.359v2.18h-5.279v3.98h7.08v2.2
		H215.342z"/>
	<path fill="#FFFFFF" d="M240.223,12.231c0,1.934,0.437,3.523,1.31,4.77c0.874,1.247,1.937,2.257,3.19,3.03
		c-0.361,0.293-0.707,0.587-1.041,0.88c-0.332,0.293-0.605,0.553-0.82,0.778c-0.572-0.385-1.27-0.991-2.09-1.818
		c-0.818-0.827-1.43-1.673-1.83-2.54c-0.278,0.867-0.858,1.767-1.738,2.7c-0.881,0.933-1.635,1.605-2.262,2.02
		c-0.238-0.227-0.549-0.492-0.93-0.8c-0.38-0.308-0.757-0.587-1.13-0.84c0.826-0.48,1.548-1.033,2.16-1.66s1.126-1.326,1.54-2.1
		c0.333-0.641,0.586-1.327,0.76-2.061c0.174-0.733,0.26-1.52,0.26-2.36v-4.2h2.621V12.231L240.223,12.231z M246.342,25.23V14.751
		h-3.521v-2.34h3.521v-5.08h2.52V25.23H246.342z"/>
	<path fill="#FFFFFF" d="M263.162,17.452c-0.787,0.106-2.047,0.227-3.78,0.359c-1.733,0.134-3.532,0.2-5.399,0.2h-2.42v-2.22h3
		v-3.56h2.439v3.56c0.586,0,1.576-0.05,2.971-0.15c1.394-0.1,2.457-0.21,3.189-0.33V17.452z M261.98,7.872
		c-0.014,1.133-0.097,2.303-0.25,3.51c-0.152,1.207-0.303,2.177-0.449,2.91l-2.54-0.02c0.134-0.653,0.239-1.336,0.319-2.05
		c0.08-0.713,0.146-1.437,0.2-2.17h-6.76v-2.18H261.98z M254.302,24.912v-5.42h2.479v3.22h10.021v2.201L254.302,24.912
		L254.302,24.912z M266.302,14.611v5.7h-2.46v-13h2.46v5.1h2.28v2.2H266.302z"/>
</g>
<g>
	<path fill="#273B8B" stroke="#FFFFFF" stroke-width="0.5" stroke-miterlimit="10" d="M44.288,10.452
		c-1.431-1-5.222-1.491-5.936-1.635c-0.269-0.054-0.86-1.154-0.549-1.444c0.576-0.534,0.686-1.147,0.686-1.147
		c0.037,0.118,0.347-1.057,0.514-2.56c0.168-1.501-0.778-2.223-1.493-2.654c-0.717-0.429-2.996,0.057-3.283,2.201
		c-0.088,0.672-0.102,1.971,0.218,2.542c0.266,0.483,0.694,0.853,0.877,1.051c0.399,0.434,0.238,0.526,0.598,0.731
		c0.178,0.101,0.044,0.371,0.049,0.521c0.017,0.408,0.056,0.963-0.249,1.195c-0.186,0.139-0.445,0.056-0.445,0.056
		c-0.709,0.194-1.719,0.879-2.827,0.269c-0.196-0.109-0.267-0.346-0.469-0.546c-0.073-0.074-0.147-0.094-0.351-0.154
		c0,0-0.205-0.026-0.524-0.033c-0.192-0.003-0.427,0.021-0.683,0.012c-0.466-0.012-1.007-0.037-1.505-0.081
		c-0.495-0.041-0.947-0.099-1.238-0.181c-1-0.286-0.262-1.607-0.262-1.607l0.834-0.864l0.487-0.906
		c0.035-0.069,0.298-1.186,0.325-2.259c0.012-0.559-0.105-1.035-0.15-1.317c-0.181-1.142-0.301-1.882-2.64-1.571
		c-2.34,0.309-2.383,3.001-2.32,3.272c0.063,0.27,0.03,3.263,0.954,3.733c0.922,0.468-0.143,1.572-0.143,1.572
		c-1.103,0.177-2.308,0.154-3.351,0.441c-1.185,0.329-2.207,0.968-3.391,1.161c-0.517,0.087-1.01-0.169-1.411-0.169
		c-1.433,0-0.86-1.861-0.86-1.861l1.493-1.502l0.602-1.787l0.638-2.275c0.147-0.53-0.717-1.731-2.434-1.731
		c-1.716,0-1.755,0.689-2.614,1.835c-0.51,0.678-0.611,1.923-0.362,3.09c0.172,0.798,0.819,1.328,1.054,1.851
		c0.569,1.286-1.665,2.379-1.665,2.379s-5.914,0.523-7.486,1.095c-1.574,0.574-4.199,2.095-3.961,4.624
		c0.24,2.529,3.721,3.577,8.298,4.579c4.578,1,3.219,1.787,3.219,1.787l-0.356,4.507c0,0-0.471,2.055-1.549,4.444
		c-0.607,1.34-1.151,2.546-1.821,4.139c-1.857,4.435,1.435,4.435,1.082,4.435c-0.354,0,5.364,0.067,6.509-0.075
		c1.143-0.142,13.945,0.362,14.803,0.362c0.858,0,6.009,0.287,6.581-1.146c0.571-1.431-0.718-7.726-1.006-9.869
		c-0.151-1.142-0.614-2.958-0.881-4.635c-0.238-1.478-0.29-2.912-0.29-2.781c0,0.277,2.669-0.771,6.246-1.774
		c3.576-0.999,5.269-3.63,5.197-5.313C46.975,12.774,45.719,11.452,44.288,10.452z M8.032,17.989
		c-0.541-0.188-1.727-0.538-2.57-1.114c-0.901-0.609-1.43-1.462-1.087-2.239c0.572-1.288,2.882-1.724,4.003-1.997
		c1.059-0.261,0.91,0.417,0.869,1.189c-0.035,0.684-0.04,1.088-0.042,1.108c-0.058,0.447,0.083,0.949,0.233,1.139
		c0.728,0.925,0.701,0.787,1.216,1.466c0.302,0.399,0.376,0.468,0.505,0.721C11.507,18.927,10.757,18.939,8.032,17.989z
		 M42.616,16.819c-0.571,0.305-1.297,0.474-1.97,0.907c-0.999,0.642-1.878,0.95-2.671,1.154c-0.796,0.201-1.338,0.245-1.338,0.245
		s0.698-1.598,2.398-3.927c0.449-0.612,0.753-0.908,0.907-1.299c0.454-1.173-0.231-1.773,0.628-1.88
		c1.143-0.143,3.076,1.351,3.646,2.64C44.595,15.512,43.742,16.215,42.616,16.819z"/>
	<path fill="#FCEE23" d="M32.127,14.341c0.656-0.497,1.278-1.229,1.863-1.732c0.456-0.395,0.888-0.607,1.326-0.671
		c1.001-0.142,2.104,0.582,1.304,1.72c-0.805,1.135-2.337,3.146-2.45,3.257c-0.11,0.109-1.795,1.693-1.795,2.98
		c0,0.477-1.216,0.36-2.433,0.309c-1.215-0.054-2.264,0.065-2.264,0.065s0.372-0.376,0.745-1.012
		c0.292-0.496,0.529-1.173,0.955-1.773C30.35,16.109,31.567,14.768,32.127,14.341L32.127,14.341z"/>
	<path fill="#FD882F" d="M24.982,11.888l3.786,0.05c0,0,1.227-0.014-0.578,1.86c-0.323,0.336-0.526,0.86-1.033,1.382
		c-0.427,0.436-0.684,0.938-0.945,1.389c-0.261,0.454-0.591,0.821-0.732,1.173c-1.367,3.352-1.435,2.036-1.435,2.036
		s-1.656-2.459-2.372-5.321C20.958,11.597,24.694,11.883,24.982,11.888L24.982,11.888z"/>
	<path fill="#1D9432" d="M13.892,15.37c-0.269-0.803-0.066-1.514,0.462-1.955c0.319-0.265,0.688-0.6,1.331-0.331
		c1.719,0.715,2.523,2.354,2.784,3.289c0.26,0.938,0.857,3.148,0.857,3.148s-2.433,0.143-3.718,0
		C14.32,19.377,14.32,16.661,13.892,15.37L13.892,15.37z"/>
	<path fill="#FCEE23" d="M26.669,24.432c0.738-0.604,1.852-0.859,2.476-1.119c0.711-0.293,1.307-0.655,1.911-0.705
		c1.026-0.08,0.435,1.358,0.537,2.209c0.05,0.396,0.073,1.334,0.186,1.828c0.128,0.561,0.35,0.701,0.439,1.539
		c0.101,0.959,0.235,1.947,0.301,2.887c0.077,1.064,0.032,2.449,0.1,3.277c0.102,1.288,0.032,1.851-0.459,1.851
		c-0.263,0-1.076,0.02-2.024,0.11c-1.219,0.121-2.681,0.325-3.672,0.385c-0.745,0.043-0.656-1.017-0.656-0.66
		c0,4.24,0.051-3.192,0.045-5.487c-0.001-1.296-0.128-2.595,0.051-3.69C26.086,25.727,26.173,24.839,26.669,24.432L26.669,24.432z"
		/>
	<path fill="#1D9432" d="M21.187,25.958c-0.032,0.258-0.061,0.84,0.05,1.422c0.065,0.353,0.291,0.634,0.291,1.05
		c-0.001,0.463-0.281,1.096-0.319,1.588c-0.124,1.603-0.154,3.062-0.363,3.692c-0.229,0.685-0.019,1.358-0.145,2.001
		c-0.111,0.566-0.258,0.915-0.571,0.918l-5.44,0.057c-0.402,0.004-0.237-1.035,0.291-2.172c0.225-0.482,0.073-1.145,0.226-1.547
		c0.288-0.761,0.634-1.801,1.048-2.919c0.302-0.817,0.627-1.666,0.581-2.45c-0.115-1.859-0.341-3.072-0.341-3.072l-0.118-2.346
		c0,0,0.556,0.141,1.448,0.387c0.537,0.146,1.133,0.242,1.67,0.615C20.926,24.182,21.33,24.813,21.187,25.958L21.187,25.958z"/>
</g>
<g>
	<path opacity="0.5" fill="#FFFFFF" enable-background="new    " d="M58.411,35.417l0.758,0.19
		c-0.159,0.623-0.444,1.098-0.857,1.425s-0.917,0.489-1.514,0.489c-0.617,0-1.119-0.125-1.506-0.377
		c-0.387-0.25-0.681-0.615-0.883-1.092c-0.202-0.477-0.303-0.988-0.303-1.535c0-0.597,0.114-1.115,0.342-1.561
		c0.228-0.445,0.552-0.781,0.973-1.012c0.421-0.231,0.884-0.346,1.389-0.346c0.573,0,1.055,0.146,1.445,0.438
		c0.39,0.292,0.663,0.702,0.816,1.23l-0.746,0.176c-0.133-0.418-0.325-0.721-0.578-0.91c-0.253-0.19-0.57-0.285-0.953-0.285
		c-0.44,0-0.808,0.105-1.104,0.316s-0.503,0.494-0.623,0.85s-0.18,0.723-0.18,1.1c0,0.487,0.071,0.912,0.213,1.275
		s0.362,0.635,0.662,0.814c0.3,0.179,0.624,0.27,0.973,0.27c0.425,0,0.784-0.122,1.078-0.367
		C58.107,36.262,58.307,35.898,58.411,35.417z"/>
	<path opacity="0.5" fill="#FFFFFF" enable-background="new    " d="M59.726,37.425v-5.727h0.758v2.352h2.977v-2.352h0.758v5.727
		H63.46v-2.698h-2.977v2.698H59.726z"/>
	<path opacity="0.5" fill="#FFFFFF" enable-background="new    " d="M68.838,31.698h0.758v3.309c0,0.575-0.065,1.032-0.195,1.371
		c-0.13,0.339-0.365,0.614-0.705,0.826c-0.34,0.212-0.786,0.317-1.338,0.317c-0.536,0-0.976-0.092-1.316-0.276
		s-0.585-0.452-0.73-0.804c-0.145-0.351-0.219-0.828-0.219-1.436v-3.309h0.758v3.305c0,0.497,0.046,0.864,0.139,1.1
		c0.093,0.236,0.251,0.418,0.477,0.545c0.226,0.129,0.501,0.191,0.826,0.191c0.558,0,0.954-0.126,1.191-0.379
		c0.237-0.253,0.355-0.738,0.355-1.457L68.838,31.698L68.838,31.698z"/>
	<path opacity="0.5" fill="#FFFFFF" enable-background="new    " d="M70.449,37.425v-5.727h0.777l3.008,4.495v-4.495h0.727v5.727
		h-0.777l-3.008-4.5v4.5H70.449z"/>
	<path opacity="0.5" fill="#FFFFFF" enable-background="new    " d="M78.515,35.18v-0.673l2.426-0.004v2.125
		c-0.372,0.297-0.757,0.521-1.152,0.67s-0.802,0.226-1.219,0.226c-0.563,0-1.073-0.121-1.533-0.361
		c-0.46-0.241-0.807-0.589-1.041-1.045s-0.352-0.965-0.352-1.527c0-0.558,0.116-1.076,0.35-1.561
		c0.234-0.484,0.568-0.842,1.006-1.076s0.941-0.352,1.512-0.352c0.414,0,0.788,0.066,1.123,0.2c0.335,0.134,0.597,0.321,0.787,0.562
		s0.335,0.552,0.434,0.938l-0.684,0.188c-0.086-0.291-0.192-0.521-0.32-0.688s-0.31-0.3-0.547-0.4c-0.237-0.1-0.5-0.149-0.789-0.149
		c-0.347,0-0.646,0.054-0.898,0.158s-0.456,0.243-0.611,0.416c-0.155,0.172-0.275,0.36-0.361,0.565
		c-0.146,0.354-0.219,0.738-0.219,1.152c0,0.512,0.088,0.938,0.264,1.281c0.176,0.343,0.432,0.599,0.768,0.766s0.692,0.25,1.07,0.25
		c0.328,0,0.648-0.063,0.961-0.189c0.313-0.125,0.55-0.26,0.711-0.403v-1.065h-1.686V35.18z"/>
	<path opacity="0.5" fill="#FFFFFF" enable-background="new    " d="M85.743,35.417l0.758,0.19
		c-0.159,0.623-0.444,1.098-0.857,1.425s-0.917,0.489-1.514,0.489c-0.617,0-1.119-0.125-1.506-0.377
		c-0.387-0.25-0.681-0.615-0.883-1.092c-0.202-0.477-0.303-0.988-0.303-1.535c0-0.597,0.114-1.115,0.342-1.561
		s0.552-0.781,0.973-1.012c0.421-0.231,0.884-0.346,1.389-0.346c0.573,0,1.055,0.146,1.445,0.438s0.663,0.702,0.816,1.23
		l-0.746,0.176c-0.133-0.418-0.325-0.721-0.578-0.91c-0.253-0.19-0.57-0.285-0.953-0.285c-0.44,0-0.808,0.105-1.104,0.316
		s-0.503,0.494-0.623,0.85s-0.18,0.723-0.18,1.1c0,0.487,0.071,0.912,0.213,1.275s0.362,0.635,0.662,0.814
		c0.3,0.179,0.624,0.27,0.973,0.27c0.425,0,0.784-0.122,1.078-0.367C85.439,36.262,85.639,35.898,85.743,35.417z"/>
	<path opacity="0.5" fill="#FFFFFF" enable-background="new    " d="M87.058,37.425v-5.727h0.758v2.352h2.977v-2.352h0.758v5.727
		h-0.758v-2.698h-2.977v2.698H87.058z"/>
	<path opacity="0.5" fill="#FFFFFF" enable-background="new    " d="M92.428,37.425v-5.727h4.141v0.676h-3.383v1.754h3.168V34.8
		h-3.168v1.949h3.516v0.676H92.428z"/>
	<path opacity="0.5" fill="#FFFFFF" enable-background="new    " d="M97.117,34.636c0-0.95,0.255-1.694,0.766-2.231
		c0.511-0.538,1.169-0.807,1.977-0.807c0.528,0,1.005,0.125,1.43,0.379c0.425,0.252,0.748,0.604,0.971,1.057
		c0.223,0.453,0.334,0.964,0.334,1.537c0,0.58-0.117,1.101-0.352,1.559c-0.235,0.458-0.566,0.807-0.996,1.041
		c-0.43,0.234-0.894,0.354-1.391,0.354c-0.539,0-1.021-0.129-1.445-0.391c-0.424-0.261-0.746-0.615-0.965-1.066
		C97.227,35.617,97.117,35.139,97.117,34.636z M97.898,34.646c0,0.69,0.186,1.233,0.557,1.631c0.371,0.398,0.837,0.597,1.396,0.597
		c0.57,0,1.04-0.2,1.408-0.603c0.368-0.401,0.553-0.97,0.553-1.707c0-0.465-0.079-0.873-0.236-1.221
		c-0.157-0.348-0.388-0.617-0.691-0.809c-0.303-0.192-0.644-0.287-1.021-0.287c-0.536,0-0.998,0.186-1.385,0.553
		C98.092,33.169,97.898,33.785,97.898,34.646z"/>
	<path opacity="0.5" fill="#FFFFFF" enable-background="new    " d="M103.163,37.425v-5.727h0.777l3.008,4.495v-4.495h0.727v5.727
		h-0.777l-3.008-4.5v4.5H103.163z"/>
	<path opacity="0.5" fill="#FFFFFF" enable-background="new    " d="M111.228,35.18v-0.673l2.426-0.004v2.125
		c-0.372,0.297-0.757,0.521-1.152,0.67s-0.802,0.226-1.219,0.226c-0.563,0-1.073-0.121-1.533-0.361
		c-0.46-0.241-0.807-0.589-1.041-1.045s-0.352-0.965-0.352-1.527c0-0.558,0.116-1.076,0.35-1.561s0.568-0.842,1.006-1.076
		s0.941-0.352,1.512-0.352c0.414,0,0.788,0.066,1.123,0.2s0.597,0.321,0.787,0.562c0.19,0.24,0.335,0.552,0.434,0.938l-0.684,0.188
		c-0.086-0.291-0.192-0.521-0.32-0.688s-0.31-0.3-0.547-0.4c-0.237-0.1-0.5-0.149-0.789-0.149c-0.347,0-0.646,0.054-0.898,0.158
		s-0.456,0.243-0.611,0.416c-0.155,0.172-0.275,0.36-0.361,0.565c-0.146,0.354-0.219,0.738-0.219,1.152
		c0,0.512,0.088,0.938,0.264,1.281c0.176,0.343,0.432,0.599,0.768,0.766s0.692,0.25,1.07,0.25c0.328,0,0.648-0.063,0.961-0.189
		c0.313-0.125,0.55-0.26,0.711-0.403v-1.065h-1.686V35.18z"/>
	<path opacity="0.5" fill="#FFFFFF" enable-background="new    " d="M114.339,37.425v-5.727h2.148c0.438,0,0.788,0.058,1.053,0.174
		s0.472,0.294,0.621,0.535s0.225,0.493,0.225,0.756c0,0.245-0.066,0.476-0.199,0.69s-0.333,0.392-0.602,0.523
		c0.347,0.102,0.612,0.273,0.799,0.52s0.279,0.535,0.279,0.867c0,0.27-0.057,0.519-0.17,0.748c-0.113,0.23-0.253,0.408-0.42,0.533
		s-0.376,0.221-0.627,0.283c-0.251,0.063-0.56,0.096-0.924,0.096L114.339,37.425L114.339,37.425z M115.097,34.104h1.238
		c0.336,0,0.577-0.021,0.723-0.065c0.192-0.058,0.338-0.152,0.436-0.285c0.098-0.133,0.146-0.3,0.146-0.5
		c0-0.19-0.046-0.356-0.137-0.502s-0.222-0.243-0.391-0.297c-0.169-0.054-0.46-0.08-0.871-0.08h-1.145L115.097,34.104
		L115.097,34.104z M115.097,36.749h1.426c0.245,0,0.417-0.009,0.516-0.026c0.175-0.031,0.32-0.084,0.438-0.156
		c0.118-0.073,0.214-0.18,0.289-0.318c0.075-0.139,0.113-0.3,0.113-0.482c0-0.214-0.055-0.398-0.164-0.557
		c-0.109-0.158-0.261-0.27-0.455-0.332c-0.194-0.063-0.474-0.096-0.838-0.096h-1.324L115.097,36.749L115.097,36.749z"/>
	<path opacity="0.5" fill="#FFFFFF" enable-background="new    " d="M123.064,31.698h0.758v3.309c0,0.575-0.065,1.032-0.195,1.371
		s-0.365,0.614-0.705,0.826c-0.34,0.212-0.786,0.317-1.338,0.317c-0.536,0-0.976-0.092-1.316-0.276s-0.585-0.452-0.73-0.804
		c-0.145-0.351-0.219-0.828-0.219-1.436v-3.309h0.758v3.305c0,0.497,0.046,0.864,0.139,1.1c0.093,0.236,0.251,0.418,0.477,0.545
		c0.226,0.129,0.501,0.191,0.826,0.191c0.558,0,0.954-0.126,1.191-0.379s0.355-0.738,0.355-1.457L123.064,31.698L123.064,31.698z"/>
	<path opacity="0.5" fill="#FFFFFF" enable-background="new    " d="M124.652,37.425v-5.727h0.758v2.84l2.844-2.84h1.027
		l-2.402,2.319l2.508,3.406h-1l-2.039-2.898l-0.938,0.914v1.984L124.652,37.425L124.652,37.425z"/>
	<path opacity="0.5" fill="#FFFFFF" enable-background="new    " d="M129.257,35.706v-0.707h2.16v0.707H129.257z"/>
	<path opacity="0.5" fill="#FFFFFF" enable-background="new    " d="M131.884,37.425v-5.727h1.973c0.445,0,0.785,0.026,1.02,0.081
		c0.328,0.076,0.608,0.213,0.84,0.41c0.303,0.256,0.528,0.582,0.678,0.979c0.15,0.397,0.226,0.851,0.226,1.36
		c0,0.436-0.052,0.82-0.152,1.156s-0.231,0.614-0.391,0.834c-0.16,0.221-0.333,0.395-0.521,0.521
		c-0.188,0.126-0.417,0.222-0.685,0.287s-0.573,0.098-0.92,0.098H131.884z M132.642,36.749h1.223c0.378,0,0.674-0.035,0.889-0.104
		c0.215-0.07,0.386-0.17,0.514-0.297c0.18-0.181,0.319-0.422,0.419-0.726c0.102-0.304,0.15-0.671,0.15-1.104
		c0-0.599-0.099-1.06-0.295-1.381c-0.196-0.32-0.436-0.537-0.717-0.646c-0.203-0.078-0.53-0.117-0.98-0.117h-1.203L132.642,36.749
		L132.642,36.749z"/>
	<path opacity="0.5" fill="#FFFFFF" enable-background="new    " d="M137.029,34.636c0-0.95,0.256-1.694,0.767-2.231
		c0.511-0.538,1.169-0.807,1.978-0.807c0.527,0,1.004,0.125,1.43,0.379c0.425,0.252,0.748,0.604,0.971,1.057
		s0.334,0.964,0.334,1.537c0,0.58-0.117,1.101-0.352,1.559c-0.235,0.458-0.566,0.807-0.996,1.041s-0.895,0.354-1.391,0.354
		c-0.539,0-1.021-0.129-1.445-0.391c-0.424-0.261-0.746-0.615-0.965-1.066C137.141,35.617,137.029,35.139,137.029,34.636z
		 M137.813,34.646c0,0.69,0.186,1.233,0.557,1.631c0.371,0.398,0.837,0.597,1.396,0.597c0.569,0,1.039-0.2,1.407-0.603
		c0.368-0.401,0.554-0.97,0.554-1.707c0-0.465-0.08-0.873-0.236-1.221c-0.157-0.348-0.389-0.617-0.691-0.809
		c-0.303-0.192-0.645-0.287-1.021-0.287c-0.535,0-0.998,0.186-1.385,0.553C138.006,33.169,137.813,33.785,137.813,34.646z"/>
	<path opacity="0.5" fill="#FFFFFF" enable-background="new    " d="M144.906,37.425v-5.727h2.16c0.379,0,0.67,0.019,0.871,0.055
		c0.28,0.047,0.517,0.136,0.707,0.269c0.189,0.131,0.342,0.314,0.459,0.553c0.115,0.238,0.174,0.496,0.174,0.781
		c0,0.486-0.155,0.898-0.465,1.235c-0.311,0.337-0.871,0.507-1.681,0.507h-1.469v2.327H144.906z M145.664,34.421h1.48
		c0.488,0,0.836-0.091,1.043-0.272c0.205-0.183,0.309-0.438,0.309-0.771c0-0.239-0.061-0.444-0.182-0.614
		c-0.121-0.172-0.28-0.283-0.479-0.339c-0.128-0.034-0.362-0.051-0.707-0.051h-1.465L145.664,34.421L145.664,34.421z"/>
	<path opacity="0.5" fill="#FFFFFF" enable-background="new    " d="M153.602,31.698h0.758v3.309c0,0.575-0.065,1.032-0.195,1.371
		s-0.365,0.614-0.705,0.826s-0.786,0.317-1.338,0.317c-0.536,0-0.977-0.092-1.316-0.276s-0.584-0.452-0.729-0.804
		c-0.146-0.351-0.22-0.828-0.22-1.436v-3.309h0.758v3.305c0,0.497,0.047,0.864,0.14,1.1c0.093,0.236,0.251,0.418,0.478,0.545
		c0.226,0.129,0.5,0.191,0.826,0.191c0.558,0,0.953-0.126,1.19-0.379s0.354-0.738,0.354-1.457V31.698L153.602,31.698z"/>
	<path opacity="0.5" fill="#FFFFFF" enable-background="new    " d="M155.188,37.425v-5.727h2.148c0.438,0,0.788,0.058,1.053,0.174
		c0.266,0.116,0.473,0.294,0.621,0.535c0.149,0.241,0.225,0.493,0.225,0.756c0,0.245-0.065,0.476-0.198,0.69
		c-0.134,0.215-0.333,0.392-0.603,0.523c0.348,0.102,0.612,0.273,0.799,0.52c0.188,0.246,0.279,0.535,0.279,0.867
		c0,0.27-0.057,0.519-0.17,0.748c-0.113,0.23-0.253,0.408-0.42,0.533s-0.376,0.221-0.627,0.283s-0.561,0.096-0.924,0.096
		L155.188,37.425L155.188,37.425z M155.945,34.104h1.238c0.336,0,0.578-0.021,0.724-0.065c0.192-0.058,0.338-0.152,0.436-0.285
		c0.099-0.133,0.146-0.3,0.146-0.5c0-0.19-0.046-0.356-0.138-0.502c-0.09-0.146-0.222-0.243-0.391-0.297s-0.46-0.08-0.871-0.08
		h-1.145V34.104L155.945,34.104z M155.945,36.749h1.427c0.245,0,0.417-0.009,0.517-0.026c0.174-0.031,0.319-0.084,0.438-0.156
		c0.117-0.073,0.214-0.18,0.289-0.318c0.074-0.139,0.113-0.3,0.113-0.482c0-0.214-0.056-0.398-0.164-0.557
		c-0.109-0.158-0.262-0.27-0.455-0.332c-0.194-0.063-0.475-0.096-0.838-0.096h-1.324v1.968H155.945z"/>
	<path opacity="0.5" fill="#FFFFFF" enable-background="new    " d="M160.124,37.425v-5.727h0.758v5.051h2.82v0.676H160.124z"/>
	<path opacity="0.5" fill="#FFFFFF" enable-background="new    " d="M164.334,37.425v-5.727h0.758v5.727H164.334z"/>
	<path opacity="0.5" fill="#FFFFFF" enable-background="new    " d="M170.113,35.417l0.758,0.19
		c-0.159,0.623-0.444,1.098-0.857,1.425c-0.412,0.327-0.916,0.489-1.514,0.489c-0.617,0-1.119-0.125-1.506-0.377
		c-0.387-0.25-0.682-0.615-0.883-1.092c-0.202-0.477-0.303-0.988-0.303-1.535c0-0.597,0.113-1.115,0.342-1.561
		c0.228-0.445,0.552-0.781,0.973-1.012c0.421-0.231,0.884-0.346,1.389-0.346c0.573,0,1.055,0.146,1.445,0.438
		s0.663,0.702,0.816,1.23l-0.746,0.176c-0.133-0.418-0.325-0.721-0.578-0.91c-0.254-0.19-0.57-0.285-0.953-0.285
		c-0.439,0-0.809,0.105-1.104,0.316c-0.297,0.211-0.504,0.494-0.623,0.85c-0.121,0.355-0.181,0.723-0.181,1.1
		c0,0.487,0.071,0.912,0.214,1.275c0.141,0.363,0.361,0.635,0.661,0.814c0.3,0.179,0.624,0.27,0.974,0.27
		c0.424,0,0.783-0.122,1.078-0.367C169.809,36.262,170.009,35.898,170.113,35.417z"/>
	<path opacity="0.5" fill="#FFFFFF" enable-background="new    " d="M173.195,37.425v-5.727h0.759v5.051h2.819v0.676H173.195z"/>
	<path opacity="0.5" fill="#FFFFFF" enable-background="new    " d="M177.404,37.425v-5.727h0.759v5.727H177.404z"/>
	<path opacity="0.5" fill="#FFFFFF" enable-background="new    " d="M179.068,37.425v-5.727h2.147c0.438,0,0.788,0.058,1.054,0.174
		c0.265,0.116,0.472,0.294,0.621,0.535c0.148,0.241,0.225,0.493,0.225,0.756c0,0.245-0.066,0.476-0.199,0.69
		s-0.333,0.392-0.602,0.523c0.347,0.102,0.611,0.273,0.799,0.52c0.187,0.246,0.279,0.535,0.279,0.867c0,0.27-0.058,0.519-0.17,0.748
		c-0.113,0.23-0.254,0.408-0.421,0.533s-0.376,0.221-0.627,0.283s-0.56,0.096-0.924,0.096L179.068,37.425L179.068,37.425z
		 M179.826,34.104h1.238c0.336,0,0.576-0.021,0.723-0.065c0.191-0.058,0.338-0.152,0.436-0.285s0.146-0.3,0.146-0.5
		c0-0.19-0.046-0.356-0.137-0.502c-0.092-0.146-0.223-0.243-0.392-0.297s-0.46-0.08-0.87-0.08h-1.146L179.826,34.104L179.826,34.104
		z M179.826,36.749h1.426c0.245,0,0.417-0.009,0.516-0.026c0.176-0.031,0.32-0.084,0.438-0.156c0.118-0.073,0.214-0.18,0.289-0.318
		s0.112-0.3,0.112-0.482c0-0.214-0.055-0.398-0.164-0.557c-0.108-0.158-0.26-0.27-0.454-0.332s-0.474-0.096-0.839-0.096h-1.323
		L179.826,36.749L179.826,36.749z"/>
	<path opacity="0.5" fill="#FFFFFF" enable-background="new    " d="M184.047,37.425v-5.727h2.539c0.512,0,0.898,0.052,1.164,0.153
		c0.266,0.103,0.479,0.284,0.637,0.545c0.159,0.262,0.238,0.549,0.238,0.863c0,0.406-0.132,0.749-0.395,1.027
		c-0.264,0.277-0.67,0.456-1.219,0.531c0.199,0.097,0.352,0.19,0.456,0.285c0.222,0.203,0.431,0.457,0.63,0.762l0.995,1.559h-0.952
		l-0.759-1.191c-0.222-0.344-0.403-0.605-0.547-0.789c-0.144-0.183-0.271-0.31-0.385-0.383c-0.114-0.072-0.229-0.123-0.347-0.151
		c-0.086-0.019-0.227-0.027-0.422-0.027h-0.879v2.543H184.047z M184.805,34.227h1.629c0.348,0,0.617-0.037,0.813-0.107
		c0.196-0.071,0.344-0.188,0.444-0.344c0.102-0.157,0.152-0.33,0.152-0.515c0-0.271-0.099-0.493-0.295-0.668
		c-0.195-0.175-0.507-0.262-0.932-0.262h-1.813V34.227L184.805,34.227z"/>
	<path opacity="0.5" fill="#FFFFFF" enable-background="new    " d="M188.784,37.425l2.198-5.727h0.816l2.344,5.727h-0.863
		l-0.668-1.733h-2.395l-0.629,1.733H188.784z M190.438,35.073h1.94l-0.599-1.587c-0.182-0.48-0.316-0.877-0.405-1.188
		c-0.073,0.367-0.177,0.73-0.31,1.094L190.438,35.073z"/>
	<path opacity="0.5" fill="#FFFFFF" enable-background="new    " d="M194.359,37.425v-5.727h2.539c0.512,0,0.898,0.052,1.164,0.153
		c0.267,0.103,0.479,0.284,0.638,0.545c0.159,0.262,0.237,0.549,0.237,0.863c0,0.406-0.131,0.749-0.395,1.027
		c-0.264,0.277-0.669,0.456-1.219,0.531c0.199,0.097,0.353,0.19,0.457,0.285c0.222,0.203,0.431,0.457,0.629,0.762l0.996,1.559
		h-0.953l-0.758-1.191c-0.223-0.344-0.403-0.605-0.547-0.789c-0.145-0.183-0.271-0.31-0.385-0.383
		c-0.115-0.072-0.229-0.123-0.347-0.151c-0.086-0.019-0.228-0.027-0.422-0.027h-0.879v2.543H194.359z M195.118,34.227h1.629
		c0.347,0,0.616-0.037,0.813-0.107c0.195-0.071,0.344-0.188,0.444-0.344c0.101-0.157,0.152-0.33,0.152-0.515
		c0-0.271-0.099-0.493-0.296-0.668c-0.195-0.175-0.506-0.262-0.932-0.262h-1.813L195.118,34.227L195.118,34.227z"/>
	<path opacity="0.5" fill="#FFFFFF" enable-background="new    " d="M201.193,37.425v-2.426l-2.207-3.301h0.923l1.129,1.727
		c0.208,0.323,0.401,0.646,0.582,0.97c0.172-0.301,0.38-0.638,0.625-1.013l1.108-1.684h0.883l-2.284,3.301v2.426H201.193z"/>
</g>
</svg>
